<svg width="317" height="440" viewBox="0 0 317 440" fill="none" xmlns="http://www.w3.org/2000/svg">
<path d="M211.522 319.137C211.68 325.952 211.838 332.576 211.979 339.191C212.062 343.23 212.204 347.277 212.179 351.316C212.071 366.453 211.904 381.59 211.755 396.726C211.722 400.297 210.084 402.087 206.634 402.103C175.405 402.246 144.184 402.421 112.954 402.463C70.378 402.522 27.802 402.471 -14.774 402.446C-16.4697 402.446 -18.1738 402.279 -19.8612 402.087C-21.6733 401.878 -23.3108 399.979 -23.5851 397.897C-23.635 397.529 -23.5934 397.144 -23.6018 396.776C-23.7514 384.868 -24.0174 372.959 -24.0174 361.051C-24.0174 348.983 -23.768 336.907 -23.5768 324.84C-23.5436 322.992 -23.2443 321.152 -23.5186 319.22C-24.4413 322.858 -25.2476 326.521 -26.3116 330.117C-30.2433 343.464 -34.1585 356.811 -38.3147 370.082C-39.2789 373.16 -41.3487 375.861 -42.5955 378.872C-43.7842 381.74 -44.6071 384.759 -45.5049 387.745C-46.9097 392.453 -48.2064 397.195 -49.6029 401.903C-50.617 405.315 -52.5537 406.527 -55.9618 405.8C-68.5551 403.099 -81.1483 400.372 -93.7249 397.604C-97.3159 396.81 -98.3383 395.104 -97.7897 391.433C-96.734 384.416 -95.6035 377.417 -94.7557 370.375C-94.4897 368.151 -94.8804 365.792 -95.2544 363.551C-96.4015 356.761 -95.1879 350.129 -94.1239 343.481C-92.129 330.953 -90.1174 318.434 -88.0143 305.924C-85.7284 292.326 -83.3677 278.736 -80.9654 265.163C-78.746 252.619 -76.5017 240.084 -74.1244 227.565C-71.506 213.741 -68.7878 199.942 -66.0032 186.152C-62.9692 171.116 -60.0016 156.071 -56.6601 141.102C-52.9943 124.703 -49.1207 108.337 -44.9812 92.0546C-42.8781 83.8006 -39.0794 76.2407 -32.7038 70.3366C-27.0929 65.135 -20.3184 61.8233 -13.2944 59.1305C0.329575 53.9122 14.0699 49.0032 27.7105 43.8183C34.6348 41.1841 41.4343 38.2404 48.292 35.4221C51.8829 33.9419 55.5071 33.7245 59.389 34.2764C65.5568 35.1545 71.7744 35.7148 77.9921 36.1162C85.0992 36.5762 92.2395 37.103 99.3549 36.9023C110.103 36.6013 120.851 36.0661 131.507 34.2012C133.993 33.7663 136.91 34.2346 139.312 35.1378C150.276 39.2606 161.099 43.7431 172.022 47.9746C182.869 52.1811 193.817 56.1116 204.631 60.4017C211.539 63.1446 217.815 67.1755 222.91 72.5694C227.041 76.9432 229.934 82.2535 231.929 88.0907C236.792 102.282 239.734 116.959 243.001 131.544C246.343 146.438 249.31 161.415 252.286 176.393C255.42 192.165 258.396 207.971 261.405 223.768C264.223 238.545 267.074 253.313 269.742 268.124C271.579 278.31 273.158 288.546 274.821 298.765C276.558 309.428 278.378 320.082 279.966 330.769C281.338 339.977 282.626 349.201 283.532 358.467C283.856 361.736 282.817 365.115 282.634 368.46C282.535 370.216 282.851 372.006 283.117 373.762C284.039 379.875 285.07 385.98 285.976 392.102C286.425 395.171 285.319 396.835 282.086 397.596C274.081 399.486 266.051 401.25 258.013 402.998C253.383 404.002 248.728 404.863 244.09 405.816C240.748 406.502 238.62 405.281 237.681 402.037C235.753 395.397 233.907 388.731 231.871 382.125C231.289 380.243 230.017 378.596 229.311 376.739C226.676 369.79 223.758 362.916 221.663 355.799C218.172 343.957 215.221 331.957 212.037 320.023C211.963 319.755 211.755 319.53 211.522 319.137ZM90.0533 95.96C77.0195 93.4847 64.1686 91.0678 53.9444 81.6012C43.9446 72.3353 37.4111 61.2965 35.6488 47.5314C30.4702 49.4632 25.3249 51.3197 20.2211 53.2933C8.26789 57.9012 -3.80167 62.2415 -15.5554 67.3427C-20.7174 69.5839 -25.2143 73.3806 -29.9773 76.525C-31.3156 77.4031 -31.2408 78.3816 -30.4595 79.8952C-26.8602 86.9032 -22.97 93.8276 -20.1355 101.153C-14.2088 116.482 -12.3468 132.681 -12.0642 148.997C-11.8481 161.131 -12.2471 173.282 -12.6294 185.416C-13.1614 202.343 -13.9345 219.26 -14.6244 236.178C-15.1896 250.019 -15.8297 263.867 -16.3367 277.708C-16.7524 289.165 -17.1264 300.613 -17.3259 312.078C-17.6168 329.021 -17.7332 345.964 -17.9244 362.899C-17.9327 363.76 -17.9244 364.622 -17.9244 365.508H91.109C91.1423 364.789 91.1921 364.195 91.1921 363.61C91.1921 334.733 91.1755 305.857 91.1672 276.98C91.1506 225.374 91.134 173.775 91.1672 122.169C91.1672 120.488 90.8513 119.493 89.0309 119.259C87.2354 119.033 86.6536 117.887 86.8863 116.089C87.3352 112.686 87.5347 109.24 88.0584 105.853C88.5821 102.491 89.3884 99.1713 90.045 95.9433L90.0533 95.96ZM205.986 365.533C205.986 358.609 206.111 351.81 205.961 345.019C205.579 327.859 205.105 310.707 204.59 293.555C204.191 280.3 203.733 267.053 203.21 253.799C202.703 240.861 202.029 227.924 201.506 214.987C201.107 205.178 200.724 195.368 200.541 185.559C200.292 172.161 199.968 158.764 200.209 145.376C200.342 138.1 201.364 130.808 202.37 123.574C204.29 109.708 208.563 96.5956 215.57 84.4362C216.825 82.2535 218.139 80.1043 219.427 77.9383C219.07 77.5536 218.829 77.2693 218.563 77.0101C212.677 71.3067 205.521 67.602 198.081 64.6165C186.119 59.8163 173.958 55.5178 161.881 50.9936C158.738 49.8144 155.605 48.6269 152.828 47.5816C151.856 51.4033 151.249 55.108 149.969 58.5618C144.042 74.4762 133.635 86 117.135 91.118C110.951 93.0331 104.617 94.4464 98.773 95.9851C99.5876 102.065 100.535 108.32 101.217 114.617C101.674 118.815 101.508 118.832 97.3682 119.576C97.2352 119.602 97.1272 119.727 96.9443 119.844V365.542H205.994L205.986 365.533ZM235.221 373.662C248.412 371.287 261.438 368.853 274.505 366.662C276.566 366.319 276.824 365.24 277.04 363.727C277.971 357.12 276.907 350.597 275.935 344.125C274.247 332.927 272.169 321.796 270.374 310.615C269.044 302.369 268.063 294.073 266.641 285.845C264.597 274.028 262.311 262.253 260.091 250.462C256.342 230.558 252.668 210.638 248.778 190.76C245.054 171.768 241.388 152.76 237.149 133.877C233.899 119.367 229.843 105.042 226.044 90.6664C225.362 88.0991 224.165 85.6739 223.209 83.1818C222.985 83.1985 222.76 83.2152 222.544 83.2319C220.267 87.8398 217.823 92.3641 215.745 97.0639C210.766 108.329 208.313 120.254 206.726 132.422C205.088 144.949 205.205 157.502 205.662 170.071C206.102 182.188 206.751 194.306 207.249 206.424C207.499 212.487 207.549 218.558 207.815 224.621C208.322 236.287 208.895 247.945 209.477 259.611C210.009 270.273 210.067 280.944 212.245 291.498C216.584 312.58 221.48 333.504 227.914 354.043C229.992 360.683 231.156 367.699 235.229 373.678L235.221 373.662ZM-35.0479 83.165C-36.1119 85.9582 -37.0927 88.3583 -37.9406 90.8086C-42.8532 105.134 -45.9205 119.936 -49.0542 134.713C-53.0192 153.354 -56.685 172.061 -60.4089 190.76C-63.1271 204.417 -65.7289 218.098 -68.3473 231.771C-71.0072 245.67 -73.7337 259.56 -76.2274 273.493C-78.5133 286.254 -80.5249 299.066 -82.6445 311.861C-84.2405 321.503 -85.9778 331.129 -87.341 340.805C-88.2886 347.52 -88.9703 354.294 -89.2778 361.059C-89.5106 366.236 -89.1698 366.244 -84.174 367.022C-83.9579 367.055 -83.7335 367.097 -83.5173 367.139C-71.7304 369.313 -59.9435 371.487 -48.1482 373.62C-47.691 373.704 -46.9096 373.436 -46.6852 373.076C-45.7709 371.63 -44.7651 370.166 -44.2497 368.56C-37.4834 347.595 -31.3655 326.437 -26.9101 304.836C-25.5884 298.422 -24.0257 292.025 -23.2776 285.535C-22.2967 277.013 -21.8977 268.417 -21.4405 259.836C-20.867 249.065 -20.4846 238.286 -20.0191 227.506C-19.5786 217.329 -19.1048 207.151 -18.7224 196.974C-18.2818 184.923 -17.7415 172.864 -17.5836 160.805C-17.3841 146.203 -18.1156 131.661 -21.3408 117.327C-24.034 105.377 -28.4894 94.1704 -35.0396 83.1567L-35.0479 83.165ZM96.936 395.982C97.9169 395.982 98.7897 395.982 99.6625 395.982C132.845 395.982 166.028 395.982 199.211 395.974C201.215 395.974 204.024 396.609 204.997 395.572C206.077 394.418 205.595 391.675 205.612 389.618C205.662 383.488 205.629 377.366 205.629 371.186H96.9277V395.982H96.936ZM91.1256 371.228H-17.1846V395.798H91.1256V371.228ZM237.856 379.231C239.684 386.131 241.43 392.72 243.184 399.344C243.757 399.344 244.206 399.419 244.622 399.335C255.47 397.002 266.292 394.56 277.165 392.378C279.393 391.934 279.526 391.023 279.185 389.225C278.694 386.666 278.345 384.082 277.963 381.506C277.514 378.512 277.082 375.51 276.6 372.232C263.624 374.573 250.906 376.873 237.864 379.231H237.856ZM126.719 57.6169C104.908 60.0839 83.5281 59.3145 61.8245 57.7507C62.3731 58.5786 62.6973 59.1389 63.0963 59.6574C67.4936 65.4444 73.2291 69.4167 79.8624 72.2266C84.2513 74.0831 88.5405 76.1153 91.9402 79.6527C93.4531 81.2249 94.567 80.9573 96.3458 79.6276C99.2302 77.4617 102.198 75.3626 105.307 73.5479C109.205 71.2816 113.394 69.517 117.268 67.2089C121.042 64.9593 124.134 61.8651 126.719 57.6252V57.6169ZM-49.7192 379.348C-50.8996 379.098 -51.8306 378.872 -52.7616 378.704C-64.0415 376.672 -75.338 374.682 -86.6012 372.558C-88.1224 372.274 -88.6793 372.717 -88.8705 374.03C-89.6436 379.332 -90.3834 384.642 -91.1481 389.944C-91.331 391.24 -91.0317 391.951 -89.5355 392.244C-83.376 393.448 -77.2415 394.819 -71.0987 396.116C-65.8369 397.228 -60.5752 398.315 -55.2137 399.436C-53.3767 392.712 -51.5812 386.139 -49.7275 379.34L-49.7192 379.348ZM55.0998 40.3645C56.1305 43.8267 57.0782 47.1467 58.1588 50.4165C58.3084 50.8598 59.1729 51.2863 59.7381 51.3281C68.0837 51.9971 76.4211 52.9254 84.775 53.1428C93.8438 53.3769 102.929 53.101 111.998 52.7247C117.684 52.4905 123.344 51.6542 129.013 51.0605C129.462 51.0103 130.144 50.8012 130.285 50.4834C131.657 47.2471 132.787 43.927 133.062 40.4231C107.069 44.7968 81.3752 43.9689 55.0915 40.3729L55.0998 40.3645ZM91.4664 91.7285C90.8763 90.2817 90.3609 89.4204 90.178 88.5005C89.1556 83.2905 85.573 80.7733 80.9014 79.3349C80.0536 79.0757 79.2389 78.7077 78.4077 78.3983C64.2102 73.0378 55.0666 62.969 50.7275 48.3927C50.1207 46.3439 49.3726 44.3452 48.6827 42.3214C46.5381 43.1409 44.3685 43.8936 42.2821 44.8386C41.8083 45.056 41.3179 45.9926 41.3844 46.5279C43.1965 60.7613 50.4865 71.683 61.7414 80.121C69.0314 85.5819 77.6928 87.8733 86.1465 90.6079C87.7342 91.118 89.4299 91.3104 91.4581 91.7285H91.4664ZM139.279 41.9869C138.947 43.3751 138.639 44.5877 138.365 45.817C135.788 57.1067 130.443 66.6653 120.394 72.7618C115.481 75.7389 109.928 77.6205 104.799 80.2715C102.846 81.2834 100.876 82.772 99.6541 84.5616C98.3158 86.5269 97.8504 89.0859 96.9443 91.5362C97.5262 91.4525 98.1246 91.4525 98.6566 91.2769C104.766 89.2615 111.009 87.5806 116.936 85.1303C133.502 78.2645 143.46 65.8123 146.769 48.0499C147.118 46.1683 147.051 44.5961 144.566 44.0776C142.804 43.7096 141.158 42.7563 139.279 41.9869ZM94.1597 98.8703C93.2287 103.687 92.1481 109.29 91.0342 115.061H97.4264C96.2461 109.207 95.1239 103.645 94.1597 98.8703Z" fill="#E60528"/>
<path d="M90.0533 95.96C89.3967 99.1797 88.5903 102.5 88.0667 105.87C87.5347 109.257 87.3435 112.702 86.8946 116.106C86.6536 117.904 87.2437 119.041 89.0392 119.275C90.8596 119.51 91.1838 120.505 91.1755 122.186C91.1422 173.792 91.1589 225.39 91.1755 276.997C91.1755 305.873 91.1921 334.75 91.2004 363.626C91.2004 364.212 91.1506 364.797 91.1173 365.525H-17.9078C-17.9078 364.647 -17.9161 363.777 -17.9078 362.916C-17.7166 345.973 -17.6002 329.03 -17.3093 312.095C-17.1098 300.638 -16.7357 289.181 -16.3201 277.724C-15.8131 263.876 -15.173 250.035 -14.6078 236.195C-13.9179 219.277 -13.1531 202.359 -12.6128 185.433C-12.2304 173.299 -11.8398 161.148 -12.0476 149.013C-12.3302 132.689 -14.1922 116.499 -20.1189 101.17C-22.9534 93.8443 -26.8436 86.9199 -30.4429 79.9119C-31.2159 78.3983 -31.2907 77.4198 -29.9607 76.5418C-25.1978 73.3974 -20.7008 69.6007 -15.5388 67.3595C-3.79339 62.2582 8.27618 57.9179 20.2377 53.31C25.3415 51.3448 30.4868 49.4799 35.6655 47.5481C37.4194 61.3048 43.9529 72.352 53.961 81.6179C64.1769 91.0846 77.0278 93.5014 90.0699 95.9768L90.0533 95.96Z" fill="#E60528" fill-opacity="0.1"/>
<path d="M205.986 365.525H96.9362V119.836C97.119 119.719 97.2271 119.593 97.3601 119.568C101.5 118.815 101.666 118.799 101.209 114.609C100.527 108.32 99.5712 102.056 98.7649 95.9768C104.608 94.4464 110.951 93.0247 117.127 91.1096C133.619 86 144.034 74.4762 149.961 58.5535C151.249 55.0997 151.848 51.395 152.82 47.5732C155.597 48.6185 158.73 49.8144 161.872 50.9852C173.95 55.5011 186.103 59.8079 198.073 64.6081C205.512 67.5936 212.669 71.2899 218.555 77.0017C218.82 77.2609 219.062 77.5453 219.419 77.93C218.131 80.0959 216.817 82.2451 215.562 84.4278C208.563 96.5789 204.282 109.7 202.362 123.565C201.356 130.799 200.334 138.083 200.201 145.367C199.96 158.756 200.284 172.161 200.533 185.55C200.716 195.36 201.099 205.169 201.498 214.979C202.021 227.916 202.694 240.853 203.202 253.79C203.725 267.037 204.182 280.292 204.581 293.547C205.097 310.699 205.571 327.851 205.953 345.011C206.103 351.801 205.978 358.6 205.978 365.525H205.986Z" fill="#E60528" fill-opacity="0.1"/>
<path d="M235.221 373.653C231.148 367.674 229.984 360.658 227.906 354.018C221.472 333.479 216.576 312.555 212.237 291.473C210.068 280.919 210.001 270.248 209.469 259.586C208.887 247.919 208.314 236.262 207.807 224.596C207.541 218.533 207.491 212.461 207.241 206.398C206.743 194.281 206.094 182.163 205.654 170.046C205.205 157.476 205.08 144.924 206.718 132.397C208.305 120.229 210.758 108.303 215.737 97.0388C217.815 92.3473 220.259 87.8147 222.536 83.2069C222.761 83.1901 222.985 83.1734 223.201 83.1567C224.157 85.6488 225.354 88.074 226.036 90.6413C229.834 105.017 233.891 119.351 237.141 133.852C241.372 152.735 245.046 171.743 248.77 190.735C252.66 210.613 256.334 230.533 260.083 250.437C262.303 262.228 264.589 274.003 266.633 285.819C268.055 294.048 269.036 302.344 270.366 310.59C272.161 321.771 274.239 332.902 275.927 344.099C276.899 350.572 277.971 357.095 277.032 363.702C276.816 365.215 276.558 366.294 274.497 366.637C261.43 368.828 248.396 371.253 235.213 373.637L235.221 373.653Z" fill="#E60528" fill-opacity="0.1"/>
<path d="M-35.0479 83.165C-28.4894 94.1788 -24.0336 105.385 -21.3487 117.335C-18.1235 131.661 -17.3921 146.212 -17.5916 160.813C-17.7578 172.872 -18.2898 184.931 -18.7303 196.982C-19.1044 207.159 -19.5865 217.337 -20.0271 227.514C-20.4926 238.294 -20.8749 249.074 -21.4485 259.845C-21.9057 268.417 -22.3047 277.013 -23.2855 285.543C-24.0336 292.033 -25.5964 298.43 -26.918 304.845C-31.3735 326.446 -37.4914 347.603 -44.2576 368.569C-44.773 370.174 -45.7788 371.638 -46.6932 373.085C-46.9176 373.444 -47.699 373.704 -48.1561 373.628C-59.9514 371.496 -71.7384 369.321 -83.5253 367.147C-83.7414 367.105 -83.9659 367.064 -84.182 367.03C-89.1777 366.261 -89.5185 366.244 -89.2858 361.067C-88.9782 354.302 -88.2966 347.528 -87.349 340.813C-85.9858 331.137 -84.2485 321.512 -82.6525 311.869C-80.5328 299.074 -78.5129 286.263 -76.2354 273.501C-73.7416 259.569 -71.0152 245.678 -68.3552 231.779C-65.7368 218.106 -63.135 204.425 -60.4169 190.769C-56.7013 172.069 -53.0272 153.37 -49.0622 134.721C-45.9201 119.953 -42.8612 105.142 -37.9486 90.817C-37.109 88.3667 -36.1198 85.9666 -35.0558 83.1734L-35.0479 83.165Z" fill="#E60528" fill-opacity="0.1"/>
<path d="M96.9362 395.974V371.178H205.637C205.637 377.358 205.67 383.48 205.62 389.609C205.604 391.667 206.086 394.41 205.005 395.564C204.033 396.609 201.223 395.965 199.22 395.965C166.037 395.982 132.854 395.974 99.6709 395.974C98.7981 395.974 97.9253 395.974 96.9445 395.974H96.9362Z" fill="#E60528" fill-opacity="0.1"/>
<path d="M91.1258 371.22V395.79H-17.1844V371.22H91.1258Z" fill="#E60528" fill-opacity="0.1"/>
<path d="M237.856 379.223C250.898 376.865 263.616 374.565 276.591 372.223C277.073 375.502 277.506 378.495 277.955 381.498C278.345 384.073 278.686 386.657 279.177 389.216C279.517 391.014 279.393 391.926 277.157 392.369C266.284 394.552 255.453 396.994 244.614 399.327C244.198 399.419 243.749 399.335 243.176 399.335C241.422 392.712 239.676 386.122 237.847 379.223H237.856Z" fill="#E60528" fill-opacity="0.1"/>
<path d="M126.719 57.6169C124.134 61.8651 121.042 64.951 117.268 67.2006C113.395 69.5087 109.205 71.2732 105.307 73.5395C102.19 75.3459 99.2305 77.4533 96.3461 79.6192C94.5673 80.9489 93.4534 81.2165 91.9406 79.6443C88.5408 76.1069 84.2433 74.0747 79.8627 72.2182C73.2377 69.4083 67.5022 65.4444 63.0966 59.649C62.7059 59.1305 62.3735 58.5619 61.8248 57.7423C83.5285 59.3145 104.908 60.0755 126.72 57.6085L126.719 57.6169Z" fill="#E60528" fill-opacity="0.1"/>
<path d="M-49.7192 379.348C-51.5729 386.147 -53.3683 392.72 -55.2053 399.444C-60.5668 398.323 -65.8285 397.236 -71.0903 396.124C-77.2331 394.828 -83.3676 393.456 -89.5271 392.252C-91.0317 391.959 -91.3309 391.249 -91.1397 389.952C-90.3833 384.65 -89.6352 379.34 -88.8621 374.038C-88.6709 372.725 -88.114 372.282 -86.5928 372.566C-75.3296 374.69 -64.0331 376.672 -52.7532 378.713C-51.8139 378.88 -50.8912 379.106 -49.7108 379.357L-49.7192 379.348Z" fill="#E60528" fill-opacity="0.1"/>
<path d="M55.0998 40.3645C81.3835 43.9605 107.077 44.7884 133.07 40.4147C132.796 43.927 131.665 47.2387 130.294 50.4751C130.161 50.8012 129.471 51.0103 129.022 51.0521C123.353 51.6542 117.692 52.4821 112.006 52.7163C102.938 53.0926 93.8522 53.3686 84.7834 53.1344C76.4294 52.917 68.0921 51.9887 59.7465 51.3197C59.1812 51.2779 58.3085 50.8514 58.1671 50.4082C57.0782 47.1383 56.1389 43.8183 55.1082 40.3562L55.0998 40.3645Z" fill="#E60528" fill-opacity="0.1"/>
<path d="M91.4664 91.7285C89.4382 91.3104 87.7425 91.118 86.1549 90.6079C77.7012 87.8733 69.0314 85.5902 61.7497 80.121C50.4948 71.6746 43.2048 60.7613 41.3927 46.5279C41.3262 45.9926 41.8167 45.056 42.2905 44.8386C44.3769 43.8936 46.5547 43.1409 48.691 42.3214C49.3726 44.3452 50.1207 46.3522 50.7358 48.3927C55.0666 62.969 64.2185 73.0378 78.416 78.3983C79.2473 78.7077 80.0619 79.0757 80.9098 79.3349C85.5813 80.7817 89.1639 83.2989 90.1864 88.5005C90.3692 89.4287 90.8846 90.2901 91.4748 91.7285L91.4664 91.7285Z" fill="#E60528" fill-opacity="0.1"/>
<path d="M139.279 41.9869C141.158 42.7563 142.804 43.7096 144.566 44.0776C147.051 44.5961 147.118 46.1683 146.769 48.0499C143.469 65.8123 133.51 78.2645 116.936 85.1303C111.009 87.5889 104.766 89.2699 98.6566 91.2769C98.1246 91.4525 97.5345 91.4525 96.9443 91.5362C97.8504 89.0775 98.3241 86.5185 99.6541 84.5616C100.868 82.772 102.846 81.2834 104.799 80.2715C109.928 77.6205 115.481 75.7473 120.394 72.7618C130.435 66.6653 135.788 57.1067 138.365 45.817C138.647 44.5961 138.947 43.3751 139.279 41.9869Z" fill="#E60528" fill-opacity="0.1"/>
<path d="M94.1682 98.8703C95.1325 103.637 96.2547 109.198 97.4351 115.061H91.0427C92.1566 109.29 93.2372 103.687 94.1682 98.8703Z" fill="#E60528" fill-opacity="0.1"/>
<path d="M172.613 199.965V164.733C172.613 160.829 172.709 156.221 172.901 150.909H172.517L161.765 199.965H153.797L143.045 150.909H142.661C142.853 156.221 142.949 160.829 142.949 164.733V199.965H135.269V136.221H148.325L157.733 182.973H158.117L167.525 136.221H180.293V199.965H172.613Z" fill="#E60528"/>
</svg>
