<svg width="317" height="440" viewBox="0 0 317 440" fill="none" xmlns="http://www.w3.org/2000/svg">
<path d="M168.157 150.628C168.551 150.628 169.298 150.628 170.046 150.628C188.285 150.643 206.531 150.659 224.77 150.667C227.541 150.667 228.273 151.384 228.005 154.127C227.053 163.765 226.03 173.396 225.085 183.034C224.321 190.82 223.668 198.606 222.92 206.393C222.141 214.455 221.275 222.501 220.512 230.563C219.882 237.246 219.386 243.945 218.748 250.62C218.15 256.957 217.426 263.277 216.796 269.605C216.174 275.871 215.631 282.144 215.009 288.409C214.387 294.745 213.695 301.066 213.073 307.402C212.585 312.359 212.183 317.324 211.679 322.281C211.073 328.263 210.404 334.244 209.751 340.226C209.161 345.585 208.515 350.944 207.964 356.311C207.256 363.262 206.429 370.205 205.996 377.172C205.673 382.381 204.319 387.062 201.171 391.239C195.976 398.135 188.993 401.618 180.476 401.634C130.743 401.705 81.0098 401.665 31.2766 401.665C24.688 401.665 18.0994 401.76 11.5108 401.642C-0.485573 401.437 -11.4665 394.604 -13.0881 380.119C-13.7336 374.342 -14.1429 368.534 -14.7569 362.749C-15.3315 357.32 -16.0479 351.905 -16.6697 346.475C-17.2995 340.982 -17.8898 335.482 -18.4881 329.981C-19.1414 323.928 -19.8026 317.884 -20.4166 311.823C-20.9204 306.795 -21.3297 301.759 -21.8257 296.731C-22.4082 290.813 -23.0458 284.894 -23.6519 278.976C-24.1557 274.019 -24.6673 269.062 -25.1475 264.104C-25.8087 257.287 -26.4385 250.463 -27.0918 243.638C-27.6901 237.302 -28.2726 230.957 -28.9102 224.621C-29.5399 218.285 -30.2326 211.965 -30.886 205.628C-31.4921 199.718 -32.0431 193.791 -32.6649 187.881C-33.2789 182.033 -34.0031 176.201 -34.5856 170.353C-35.113 165.05 -35.6011 159.746 -35.9474 154.426C-36.1127 151.928 -34.8218 150.793 -32.295 150.777C-13.71 150.706 4.8829 150.636 23.4679 150.565C23.8143 150.565 24.1527 150.565 24.6093 150.565C24.7825 147.404 24.8769 144.315 25.121 141.234C25.6641 134.401 26.0341 127.545 26.9078 120.751C29.5606 100.19 34.7952 80.5114 47.7048 63.6857C57.6703 50.6902 70.4618 42.3522 86.8585 39.8855C103.082 37.4503 117.944 40.6814 131.097 50.5956C140.488 57.6726 147.455 66.8617 152.752 77.3197C159.01 89.6769 162.859 102.814 164.591 116.519C166 127.702 166.937 138.948 168.118 150.58L168.157 150.628ZM-32.3343 154.631C-31.9959 157.492 -31.6495 160.085 -31.3897 162.693C-30.7836 168.825 -30.2483 174.956 -29.6186 181.087C-28.9968 187.14 -28.2804 193.177 -27.6428 199.229C-26.9816 205.423 -26.3519 211.618 -25.7221 217.812C-25.1003 224.007 -24.4942 230.201 -23.888 236.395C-23.3764 241.628 -22.8647 246.861 -22.3609 252.094C-21.7548 258.359 -21.1644 264.625 -20.5583 270.89C-20.0624 275.989 -19.5429 281.08 -19.0391 286.171C-18.5747 290.781 -18.1102 295.384 -17.6537 299.994C-17.0397 306.188 -16.4651 312.391 -15.8196 318.577C-15.2135 324.425 -14.5444 330.257 -13.9068 336.096C-13.3164 341.455 -12.7181 346.814 -12.1356 352.173C-11.4665 358.289 -10.7975 364.404 -10.1677 370.52C-9.79775 374.098 -9.80562 377.747 -9.11292 381.262C-7.00331 392.003 1.3564 397.89 12.1248 397.898C68.0373 397.977 123.942 397.938 179.854 397.93C184.53 397.93 188.891 396.661 192.74 394.013C197.817 390.522 201.084 385.809 201.745 379.536C202.265 374.579 202.761 369.622 203.265 364.672C203.855 358.959 204.438 353.245 205.044 347.539C205.618 342.039 206.217 336.538 206.807 331.037C207.46 324.913 208.145 318.798 208.783 312.674C209.405 306.685 209.979 300.695 210.57 294.706C211.223 288.094 211.892 281.49 212.53 274.878C213.128 268.746 213.695 262.615 214.277 256.484C214.946 249.462 215.631 242.432 216.277 235.41C216.749 230.311 217.142 225.204 217.638 220.106C218.26 213.698 218.961 207.307 219.598 200.9C220.212 194.705 220.763 188.503 221.393 182.309C222.149 174.877 222.975 167.453 223.755 160.022C223.936 158.272 224.046 156.507 224.188 154.702H167.653V168.659C168.448 168.817 169.18 168.998 169.92 169.093C172.919 169.479 173.392 169.999 173.4 173.033C173.4 180.953 173.4 188.866 173.4 196.786C173.4 199.513 171.998 200.813 169.322 200.797C161.828 200.766 154.342 200.766 146.848 200.797C143.794 200.813 142.991 200.12 142.983 197.101C142.983 189.67 142.928 182.238 142.999 174.806C143.054 169.573 141.85 169.203 148.328 168.572V154.639H43.8949V168.659C44.3593 168.691 44.7686 168.746 45.1858 168.754C48.917 168.825 49.3893 169.29 49.3972 172.931C49.3972 180.638 49.3972 188.346 49.3972 196.061C49.3972 200.364 48.8777 200.837 44.6427 200.813C37.6369 200.766 30.6311 200.782 23.6253 200.805C20.6341 200.813 19.3904 199.615 19.3825 196.55C19.3825 189.331 19.3825 182.104 19.3825 174.885C19.3825 171.591 20.9437 169.579 24.0662 168.848C24.1291 168.832 24.1764 168.769 24.4597 168.549V154.647H-32.3343V154.631ZM148.439 150.533C148.439 149.579 148.439 148.886 148.439 148.2C148.376 138.278 147.518 128.427 145.959 118.639C144.227 107.756 141.393 97.2031 136.363 87.3599C132.317 79.4317 127.712 71.8109 120.392 66.4362C111.52 59.9108 101.571 57.2549 90.5266 58.6341C80.8917 59.832 72.9335 64.1349 66.463 71.1883C58.5598 79.8021 53.5298 90.0788 50.2473 101.183C45.5716 117.016 43.9815 133.282 43.9815 149.745C43.9815 149.997 44.0917 150.249 44.1704 150.549H148.446L148.439 150.533ZM164.166 169.053C163.741 157.035 163.607 145.237 162.796 133.487C162.261 125.716 160.97 117.985 159.64 110.293C157.058 95.359 151.926 81.3783 143.164 68.8792C132.522 53.7007 118.345 44.5115 99.5633 43.2348C88.2203 42.4625 77.6092 45.1105 67.8562 50.8478C55.9385 57.8618 47.8386 68.3433 41.864 80.5981C32.7093 99.3783 30.1982 119.632 29.0174 140.13C28.5215 148.72 28.4979 157.334 28.2696 165.94C28.246 166.949 28.2696 167.958 28.2696 168.966H39.8016C39.8016 167.414 39.8016 166.027 39.8016 164.648C39.8174 150.36 39.9276 136.08 41.8404 121.878C43.5643 109.088 46.4532 96.6357 52.3018 85.0508C56.521 76.6892 61.7951 69.0447 69.3282 63.3469C79.3725 55.7576 90.6369 52.7628 103.232 54.9064C112.174 56.4274 119.904 60.2103 126.374 66.4756C132.396 72.3074 136.914 79.2505 140.543 86.8082C148.879 104.186 151.217 122.824 152.138 141.754C152.485 148.894 152.414 156.058 152.524 163.206C152.555 165.128 152.524 167.044 152.524 169.053H164.166ZM146.904 173.08V196.81H169.361V173.08H146.904ZM45.5086 173.198H23.279V196.857H45.5086V173.198Z" fill="#E60528"/>
<path d="M-32.3343 154.639H24.4598V168.541C24.1764 168.761 24.1291 168.824 24.0662 168.84C20.9437 169.571 19.3825 171.583 19.3825 174.877C19.3825 182.096 19.3825 189.323 19.3825 196.542C19.3825 199.607 20.6341 200.805 23.6253 200.797C30.6311 200.774 37.6369 200.766 44.6427 200.805C48.8777 200.829 49.3972 200.364 49.3972 196.053C49.3972 188.345 49.3972 180.638 49.3972 172.923C49.3972 169.289 48.9249 168.824 45.1858 168.746C44.7765 168.738 44.3672 168.69 43.8949 168.651V154.631H148.336V168.564C141.858 169.195 143.062 169.573 143.007 174.798C142.928 182.23 142.983 189.662 142.991 197.093C142.991 200.112 143.794 200.805 146.856 200.789C154.35 200.75 161.836 200.75 169.33 200.789C172.014 200.797 173.407 199.505 173.407 196.778C173.407 188.858 173.407 180.945 173.407 173.025C173.407 169.991 172.927 169.463 169.928 169.085C169.188 168.99 168.456 168.801 167.661 168.651V154.694H224.195C224.054 156.507 223.944 158.264 223.763 160.014C222.983 167.445 222.165 174.869 221.401 182.301C220.771 188.495 220.22 194.697 219.606 200.892C218.969 207.291 218.26 213.69 217.646 220.097C217.15 225.196 216.757 230.303 216.284 235.402C215.631 242.432 214.946 249.454 214.285 256.476C213.703 262.607 213.136 268.738 212.538 274.87C211.9 281.482 211.231 288.086 210.577 294.698C209.987 300.687 209.412 306.677 208.791 312.666C208.153 318.79 207.476 324.913 206.815 331.029C206.224 336.53 205.634 342.031 205.052 347.531C204.453 353.245 203.863 358.951 203.273 364.664C202.761 369.621 202.273 374.579 201.753 379.528C201.092 385.809 197.825 390.522 192.748 394.005C188.899 396.653 184.538 397.922 179.862 397.922C123.95 397.93 68.0373 397.969 12.1327 397.89C1.36427 397.874 -6.99544 391.995 -9.10505 381.254C-9.79775 377.739 -9.78988 374.09 -10.1598 370.512C-10.7896 364.396 -11.4665 358.281 -12.1278 352.165C-12.7103 346.806 -13.3085 341.447 -13.8989 336.088C-14.5444 330.249 -15.2056 324.409 -15.8117 318.569C-16.4493 312.375 -17.0318 306.18 -17.6458 299.986C-18.1024 295.376 -18.5747 290.773 -19.0312 286.163C-19.5429 281.072 -20.0545 275.973 -20.5505 270.882C-21.1644 264.617 -21.7548 258.351 -22.3531 252.086C-22.8568 246.853 -23.3685 241.62 -23.8802 236.387C-24.4863 230.193 -25.0924 223.999 -25.7143 217.804C-26.3361 211.61 -26.9737 205.415 -27.635 199.221C-28.2804 193.176 -28.9968 187.132 -29.6107 181.079C-30.2405 174.956 -30.7679 168.817 -31.3819 162.685C-31.6416 160.085 -31.988 157.484 -32.3265 154.623L-32.3343 154.639Z" fill="#E60528" fill-opacity="0.1"/>
<path d="M164.158 169.061H152.516C152.516 167.051 152.54 165.136 152.516 163.213C152.414 156.057 152.485 148.902 152.13 141.762C151.209 122.84 148.871 104.193 140.535 86.816C136.907 79.2582 132.388 72.3152 126.366 66.4833C119.896 60.218 112.166 56.4352 103.224 54.9142C90.6368 52.7706 79.3646 55.7653 69.3204 63.3546C61.7872 69.0525 56.5053 76.7048 52.294 85.0586C46.4453 96.6513 43.5564 109.103 41.8325 121.886C39.9197 136.087 39.8095 150.367 39.7937 164.655C39.7937 166.035 39.7937 167.422 39.7937 168.974H28.2618C28.2618 167.965 28.2381 166.957 28.2618 165.948C28.49 157.342 28.5136 148.728 29.0096 140.138C30.1903 119.64 32.7014 99.386 41.8561 80.6059C47.8307 68.3511 55.9307 57.8695 67.8484 50.8555C77.6014 45.1182 88.2124 42.4703 99.5555 43.2426C118.337 44.5193 132.514 53.7084 143.157 68.887C151.918 81.3861 157.05 95.3589 159.632 110.301C160.962 117.985 162.253 125.724 162.789 133.494C163.599 145.245 163.725 157.043 164.158 169.061Z" fill="#E60528" fill-opacity="0.1"/>
<path d="M146.896 173.088H169.354V196.817H146.896V173.088Z" fill="#E60528" fill-opacity="0.1"/>
<path d="M45.5086 173.206V196.865H23.279V173.206H45.5086Z" fill="#E60528" fill-opacity="0.1"/>
<path d="M168.157 150.628C168.551 150.628 169.298 150.628 170.046 150.628C188.285 150.643 206.531 150.659 224.77 150.667C227.541 150.667 228.273 151.384 228.005 154.127C227.053 163.765 226.03 173.396 225.085 183.034C224.321 190.82 223.668 198.606 222.92 206.393C222.141 214.455 221.275 222.501 220.512 230.563C219.882 237.246 219.386 243.945 218.748 250.62C218.15 256.957 217.426 263.277 216.796 269.605C216.174 275.871 215.631 282.144 215.009 288.409C214.387 294.745 213.695 301.066 213.073 307.402C212.585 312.359 212.183 317.324 211.679 322.281C211.073 328.263 210.404 334.244 209.751 340.226C209.161 345.585 208.515 350.944 207.964 356.311C207.256 363.262 206.429 370.205 205.996 377.172C205.673 382.381 204.319 387.062 201.171 391.239C195.976 398.135 188.993 401.618 180.476 401.634C130.743 401.705 81.0098 401.665 31.2766 401.665C24.688 401.665 18.0994 401.76 11.5108 401.642C-0.485573 401.437 -11.4665 394.604 -13.0881 380.119C-13.7336 374.342 -14.1429 368.534 -14.7569 362.749C-15.3315 357.32 -16.0479 351.905 -16.6697 346.475C-17.2995 340.982 -17.8898 335.482 -18.4881 329.981C-19.1414 323.928 -19.8026 317.884 -20.4166 311.823C-20.9204 306.795 -21.3297 301.759 -21.8257 296.731C-22.4082 290.813 -23.0458 284.894 -23.6519 278.976C-24.1557 274.019 -24.6673 269.062 -25.1475 264.104C-25.8087 257.287 -26.4385 250.463 -27.0918 243.638C-27.6901 237.302 -28.2726 230.957 -28.9102 224.621C-29.5399 218.285 -30.2326 211.965 -30.886 205.628C-31.4921 199.718 -32.0431 193.791 -32.6649 187.881C-33.2789 182.033 -34.0031 176.201 -34.5856 170.353C-35.113 165.05 -35.6011 159.746 -35.9474 154.426C-36.1127 151.928 -34.8218 150.793 -32.295 150.777C-13.71 150.706 4.8829 150.636 23.4679 150.565C23.8143 150.565 24.1527 150.565 24.6093 150.565C24.7825 147.404 24.8769 144.315 25.121 141.234C25.6641 134.401 26.0341 127.545 26.9078 120.751C29.5606 100.19 34.7952 80.5114 47.7048 63.6857C57.6703 50.6902 70.4618 42.3522 86.8585 39.8855C103.082 37.4503 117.944 40.6814 131.097 50.5956C140.488 57.6726 147.455 66.8617 152.752 77.3197C159.01 89.6769 162.859 102.814 164.591 116.519C166 127.702 166.937 138.948 168.118 150.58L168.157 150.628ZM-32.3343 154.631C-31.9959 157.492 -31.6495 160.085 -31.3897 162.693C-30.7836 168.825 -30.2483 174.956 -29.6186 181.087C-28.9968 187.14 -28.2804 193.177 -27.6428 199.229C-26.9816 205.423 -26.3519 211.618 -25.7221 217.812C-25.1003 224.007 -24.4942 230.201 -23.888 236.395C-23.3764 241.628 -22.8647 246.861 -22.3609 252.094C-21.7548 258.359 -21.1644 264.625 -20.5583 270.89C-20.0624 275.989 -19.5429 281.08 -19.0391 286.171C-18.5747 290.781 -18.1102 295.384 -17.6537 299.994C-17.0397 306.188 -16.4651 312.391 -15.8196 318.577C-15.2135 324.425 -14.5444 330.257 -13.9068 336.096C-13.3164 341.455 -12.7181 346.814 -12.1356 352.173C-11.4665 358.289 -10.7975 364.404 -10.1677 370.52C-9.79775 374.098 -9.80562 377.747 -9.11292 381.262C-7.00331 392.003 1.3564 397.89 12.1248 397.898C68.0373 397.977 123.942 397.938 179.854 397.93C184.53 397.93 188.891 396.661 192.74 394.013C197.817 390.522 201.084 385.809 201.745 379.536C202.265 374.579 202.761 369.622 203.265 364.672C203.855 358.959 204.438 353.245 205.044 347.539C205.618 342.039 206.217 336.538 206.807 331.037C207.46 324.913 208.145 318.798 208.783 312.674C209.405 306.685 209.979 300.695 210.57 294.706C211.223 288.094 211.892 281.49 212.53 274.878C213.128 268.746 213.695 262.615 214.277 256.484C214.946 249.462 215.631 242.432 216.277 235.41C216.749 230.311 217.142 225.204 217.638 220.106C218.26 213.698 218.961 207.307 219.598 200.9C220.212 194.705 220.763 188.503 221.393 182.309C222.149 174.877 222.975 167.453 223.755 160.022C223.936 158.272 224.046 156.507 224.188 154.702H167.653V168.659C168.448 168.817 169.18 168.998 169.92 169.093C172.919 169.479 173.392 169.999 173.4 173.033C173.4 180.953 173.4 188.866 173.4 196.786C173.4 199.513 171.998 200.813 169.322 200.797C161.828 200.766 154.342 200.766 146.848 200.797C143.794 200.813 142.991 200.12 142.983 197.101C142.983 189.67 142.928 182.238 142.999 174.806C143.054 169.573 141.85 169.203 148.328 168.572V154.639H43.8949V168.659C44.3593 168.691 44.7686 168.746 45.1858 168.754C48.917 168.825 49.3893 169.29 49.3972 172.931C49.3972 180.638 49.3972 188.346 49.3972 196.061C49.3972 200.364 48.8777 200.837 44.6427 200.813C37.6369 200.766 30.6311 200.782 23.6253 200.805C20.6341 200.813 19.3904 199.615 19.3825 196.55C19.3825 189.331 19.3825 182.104 19.3825 174.885C19.3825 171.591 20.9437 169.579 24.0662 168.848C24.1291 168.832 24.1764 168.769 24.4597 168.549V154.647H-32.3343V154.631ZM148.439 150.533C148.439 149.579 148.439 148.886 148.439 148.2C148.376 138.278 147.518 128.427 145.959 118.639C144.227 107.756 141.393 97.2031 136.363 87.3599C132.317 79.4317 127.712 71.8109 120.392 66.4362C111.52 59.9108 101.571 57.2549 90.5266 58.6341C80.8917 59.832 72.9335 64.1349 66.463 71.1883C58.5598 79.8021 53.5298 90.0788 50.2473 101.183C45.5716 117.016 43.9815 133.282 43.9815 149.745C43.9815 149.997 44.0917 150.249 44.1704 150.549H148.446L148.439 150.533ZM164.166 169.053C163.741 157.035 163.607 145.237 162.796 133.487C162.261 125.716 160.97 117.985 159.64 110.293C157.058 95.359 151.926 81.3783 143.164 68.8792C132.522 53.7007 118.345 44.5115 99.5633 43.2348C88.2203 42.4625 77.6092 45.1105 67.8562 50.8478C55.9385 57.8618 47.8386 68.3433 41.864 80.5981C32.7093 99.3783 30.1982 119.632 29.0174 140.13C28.5215 148.72 28.4979 157.334 28.2696 165.94C28.246 166.949 28.2696 167.958 28.2696 168.966H39.8016C39.8016 167.414 39.8016 166.027 39.8016 164.648C39.8174 150.36 39.9276 136.08 41.8404 121.878C43.5643 109.088 46.4532 96.6357 52.3018 85.0508C56.521 76.6892 61.7951 69.0447 69.3282 63.3469C79.3725 55.7576 90.6369 52.7628 103.232 54.9064C112.174 56.4274 119.904 60.2103 126.374 66.4756C132.396 72.3074 136.914 79.2505 140.543 86.8082C148.879 104.186 151.217 122.824 152.138 141.754C152.485 148.894 152.414 156.058 152.524 163.206C152.555 165.128 152.524 167.044 152.524 169.053H164.166ZM146.904 173.08V196.81H169.361V173.08H146.904ZM45.5086 173.198H23.279V196.857H45.5086V173.198Z" stroke="#E60528"/>
<path d="M-32.3343 154.639H24.4598V168.541C24.1764 168.761 24.1291 168.824 24.0662 168.84C20.9437 169.571 19.3825 171.583 19.3825 174.877C19.3825 182.096 19.3825 189.323 19.3825 196.542C19.3825 199.607 20.6341 200.805 23.6253 200.797C30.6311 200.774 37.6369 200.766 44.6427 200.805C48.8777 200.829 49.3972 200.364 49.3972 196.053C49.3972 188.345 49.3972 180.638 49.3972 172.923C49.3972 169.289 48.9249 168.824 45.1858 168.746C44.7765 168.738 44.3672 168.69 43.8949 168.651V154.631H148.336V168.564C141.858 169.195 143.062 169.573 143.007 174.798C142.928 182.23 142.983 189.662 142.991 197.093C142.991 200.112 143.794 200.805 146.856 200.789C154.35 200.75 161.836 200.75 169.33 200.789C172.014 200.797 173.407 199.505 173.407 196.778C173.407 188.858 173.407 180.945 173.407 173.025C173.407 169.991 172.927 169.463 169.928 169.085C169.188 168.99 168.456 168.801 167.661 168.651V154.694H224.195C224.054 156.507 223.944 158.264 223.763 160.014C222.983 167.445 222.165 174.869 221.401 182.301C220.771 188.495 220.22 194.697 219.606 200.892C218.969 207.291 218.26 213.69 217.646 220.097C217.15 225.196 216.757 230.303 216.284 235.402C215.631 242.432 214.946 249.454 214.285 256.476C213.703 262.607 213.136 268.738 212.538 274.87C211.9 281.482 211.231 288.086 210.577 294.698C209.987 300.687 209.412 306.677 208.791 312.666C208.153 318.79 207.476 324.913 206.815 331.029C206.224 336.53 205.634 342.031 205.052 347.531C204.453 353.245 203.863 358.951 203.273 364.664C202.761 369.621 202.273 374.579 201.753 379.528C201.092 385.809 197.825 390.522 192.748 394.005C188.899 396.653 184.538 397.922 179.862 397.922C123.95 397.93 68.0373 397.969 12.1327 397.89C1.36427 397.874 -6.99544 391.995 -9.10505 381.254C-9.79775 377.739 -9.78988 374.09 -10.1598 370.512C-10.7896 364.396 -11.4665 358.281 -12.1278 352.165C-12.7103 346.806 -13.3085 341.447 -13.8989 336.088C-14.5444 330.249 -15.2056 324.409 -15.8117 318.569C-16.4493 312.375 -17.0318 306.18 -17.6458 299.986C-18.1024 295.376 -18.5747 290.773 -19.0312 286.163C-19.5429 281.072 -20.0545 275.973 -20.5505 270.882C-21.1644 264.617 -21.7548 258.351 -22.3531 252.086C-22.8568 246.853 -23.3685 241.62 -23.8802 236.387C-24.4863 230.193 -25.0924 223.999 -25.7143 217.804C-26.3361 211.61 -26.9737 205.415 -27.635 199.221C-28.2804 193.176 -28.9968 187.132 -29.6107 181.079C-30.2405 174.956 -30.7679 168.817 -31.3819 162.685C-31.6416 160.085 -31.988 157.484 -32.3265 154.623L-32.3343 154.639Z" stroke="#E60528"/>
<path d="M164.158 169.061H152.516C152.516 167.051 152.54 165.136 152.516 163.213C152.414 156.057 152.485 148.902 152.13 141.762C151.209 122.84 148.871 104.193 140.535 86.816C136.907 79.2582 132.388 72.3152 126.366 66.4833C119.896 60.218 112.166 56.4352 103.224 54.9142C90.6368 52.7706 79.3646 55.7653 69.3204 63.3546C61.7872 69.0525 56.5053 76.7048 52.294 85.0586C46.4453 96.6513 43.5564 109.103 41.8325 121.886C39.9197 136.087 39.8095 150.367 39.7937 164.655C39.7937 166.035 39.7937 167.422 39.7937 168.974H28.2618C28.2618 167.965 28.2381 166.957 28.2618 165.948C28.49 157.342 28.5136 148.728 29.0096 140.138C30.1903 119.64 32.7014 99.386 41.8561 80.6059C47.8307 68.3511 55.9307 57.8695 67.8484 50.8555C77.6014 45.1182 88.2124 42.4703 99.5555 43.2426C118.337 44.5193 132.514 53.7084 143.157 68.887C151.918 81.3861 157.05 95.3589 159.632 110.301C160.962 117.985 162.253 125.724 162.789 133.494C163.599 145.245 163.725 157.043 164.158 169.061Z" stroke="#E60528"/>
<path d="M146.896 173.088H169.354V196.817H146.896V173.088Z" stroke="#E60528"/>
<path d="M45.5086 173.206V196.865H23.279V173.206H45.5086Z" stroke="#E60528"/>
<path d="M180.578 386.938L178.498 374.458H168.738L166.818 386.938H159.858L168.898 333.818H178.578L187.618 386.938H180.578ZM169.698 368.298H177.538L173.778 345.018H173.458L169.698 368.298Z" fill="#E60528"/>
<path d="M132.698 386.938V333.818H147.178C150.858 333.818 153.445 334.752 154.938 336.618C156.485 338.485 157.258 341.098 157.258 344.458V349.898C157.258 354.858 155.472 357.765 151.898 358.618V358.938C153.925 359.312 155.445 360.165 156.458 361.498C157.472 362.778 157.978 364.858 157.978 367.738V377.818C157.978 380.858 157.232 383.152 155.738 384.698C154.298 386.192 151.792 386.938 148.218 386.938H132.698ZM150.858 367.258C150.858 365.392 150.458 364.058 149.658 363.258C148.912 362.458 147.632 362.058 145.818 362.058H139.738V380.698H146.058C147.765 380.698 148.992 380.272 149.738 379.418C150.485 378.565 150.858 377.285 150.858 375.578V367.258ZM150.538 345.498C150.538 343.685 150.192 342.325 149.498 341.418C148.858 340.512 147.632 340.058 145.818 340.058H139.738V356.058H145.898C147.285 356.058 148.405 355.658 149.258 354.858C150.112 354.058 150.538 352.645 150.538 350.618V345.498Z" fill="#E60528"/>
<path d="M122.285 386.938L114.685 363.978H114.365L110.525 371.498V386.938H103.245V333.818H110.525V357.658H110.845L122.365 333.818H129.645L119.645 354.858L129.565 386.938H122.285Z" fill="#E60528"/>
<path d="M92.1027 365.258H98.9027V374.138C98.9027 378.618 97.8627 381.952 95.7827 384.138C93.7027 386.325 90.6627 387.418 86.6627 387.418C82.5027 387.418 79.3827 386.272 77.3027 383.978C75.2227 381.632 74.1827 378.298 74.1827 373.978V346.618C74.1827 342.138 75.2227 338.805 77.3027 336.618C79.3827 334.432 82.4227 333.338 86.4227 333.338C90.4761 333.338 93.5694 334.432 95.7027 336.618C97.8361 338.805 98.9027 342.112 98.9027 346.538V352.858H92.1027V346.538C92.1027 344.458 91.6494 342.858 90.7427 341.738C89.8361 340.618 88.4761 340.058 86.6627 340.058C83.0894 340.058 81.3027 342.192 81.3027 346.458V374.538C81.3027 376.565 81.7294 378.112 82.5827 379.178C83.4361 380.245 84.7961 380.778 86.6627 380.778C90.2894 380.778 92.1027 378.698 92.1027 374.538V365.258Z" fill="#E60528"/>
<path d="M70.0783 374.138C70.0783 378.618 68.985 381.952 66.7983 384.138C64.665 386.325 61.5983 387.418 57.5983 387.418C53.4383 387.418 50.265 386.272 48.0783 383.978C45.945 381.632 44.8783 378.298 44.8783 373.978V347.018C44.8783 342.698 45.9716 339.338 48.1583 336.938C50.3983 334.538 53.5183 333.338 57.5183 333.338C61.5183 333.338 64.6116 334.565 66.7983 337.018C68.985 339.472 70.0783 342.858 70.0783 347.178V374.138ZM63.0383 346.538C63.0383 344.458 62.5583 342.858 61.5983 341.738C60.6383 340.618 59.2516 340.058 57.4383 340.058C55.7316 340.058 54.3983 340.618 53.4383 341.738C52.4783 342.805 51.9983 344.378 51.9983 346.458V374.458C51.9983 378.672 53.8383 380.778 57.5183 380.778C59.2783 380.778 60.6383 380.272 61.5983 379.258C62.5583 378.245 63.0383 376.672 63.0383 374.538V346.538Z" fill="#E60528"/>
<path d="M34.4434 386.938V357.578C34.4434 354.325 34.5234 350.485 34.6834 346.058H34.3634L25.4034 386.938H18.7634L9.80336 346.058H9.48336C9.64336 350.485 9.72336 354.325 9.72336 357.578V386.938H3.32336V333.818H14.2034L22.0434 372.778H22.3634L30.2034 333.818H40.8434V386.938H34.4434Z" fill="#E60528"/>
</svg>
