<svg width="317" height="440" viewBox="0 0 317 440" fill="none" xmlns="http://www.w3.org/2000/svg">
<path d="M82.8607 397.569C71.2346 397.569 59.6004 397.737 47.9743 397.521C34.5811 397.274 21.1878 396.756 7.80257 396.222C-4.09543 395.744 -15.9934 395.082 -27.8834 394.484C-29.6505 394.396 -31.4176 394.197 -33.1768 394.054C-34.8879 393.91 -35.6795 392.945 -35.6075 391.279C-35.4796 388.553 -35.3517 385.835 -35.1598 383.116C-34.4561 373.12 -33.7125 363.123 -33.0248 353.126C-32.5211 345.768 -32.1453 338.41 -31.6015 331.06C-31.1298 324.675 -30.4741 318.297 -29.9464 311.912C-29.4346 305.742 -28.9629 299.571 -28.5231 293.401C-27.9554 285.533 -27.4436 277.657 -26.8839 269.789C-26.4042 263.1 -25.9164 256.412 -25.3887 249.723C-24.9809 244.51 -24.5571 239.296 -24.0534 234.083C-23.9014 232.464 -24.4771 231.564 -25.9004 230.782C-47.7454 218.817 -69.5584 206.787 -91.3874 194.797C-94.05 193.339 -94.6337 192.254 -93.3064 189.967C-76.9627 161.938 -60.6669 133.877 -44.1712 105.943C-38.2062 95.8351 -30.9539 86.5957 -23.2937 77.7072C-17.5926 71.0905 -10.94 65.7574 -2.75211 62.3056C11.9605 56.1035 26.5451 49.6144 41.2257 43.3406C42.3132 42.8782 43.9363 42.7586 44.9678 43.229C51.6125 46.2583 58.7049 47.5497 65.7973 48.7614C76.0161 50.5152 86.3629 51.1689 96.7017 50.9696C111.31 50.6906 125.895 49.7499 140.072 45.7082C142.255 45.0864 144.31 44.0102 146.501 43.4203C147.612 43.1174 149.035 43.0775 150.075 43.508C165.035 49.7021 179.9 56.1035 194.892 62.2258C204.367 66.0922 211.556 72.645 217.913 80.3857C232.369 98.0114 243.556 117.766 255.142 137.241C265.481 154.627 275.428 172.245 285.542 189.767C286.782 191.904 286.254 193.339 283.687 194.694C279.25 197.03 274.74 199.222 270.358 201.653C252.831 211.387 235.336 221.168 217.873 231.006C217.169 231.404 216.465 232.576 216.497 233.365C216.713 238.443 217.121 243.513 217.505 248.576C217.865 253.271 218.296 257.966 218.648 262.67C219.216 270.235 219.744 277.808 220.303 285.381C220.783 291.918 221.255 298.463 221.775 305C222.286 311.457 222.886 317.915 223.406 324.372C223.782 329.075 224.085 333.779 224.429 338.482C224.965 345.904 225.517 353.333 226.052 360.755C226.356 364.948 226.668 369.134 226.932 373.327C227.3 379.138 227.692 384.942 227.963 390.753C228.083 393.304 227.284 393.942 224.717 394.069C213.779 394.596 202.84 395.194 191.902 395.712C184.138 396.078 176.374 396.493 168.601 396.668C140.024 397.306 111.446 397.856 82.8607 398.438C82.8607 398.151 82.8607 397.864 82.8527 397.569H82.8607ZM164.108 54.5809C163.724 55.5215 163.372 56.3267 163.068 57.1398C159.286 67.0568 154.497 76.4077 146.98 84.0607C135.778 95.4604 121.713 101.112 106.169 103.257C96.23 104.628 86.283 103.99 76.4879 101.567C64.9018 98.697 54.483 93.6907 45.7194 85.4558C38.3472 78.5362 33.5816 69.9745 29.7755 60.7829C28.9199 58.7103 28.0723 56.6296 27.1928 54.5011C22.4032 56.6057 17.9175 58.6306 13.3838 60.5597C8.77808 62.5208 4.11642 64.3384 -0.481255 66.3074C-7.22186 69.1932 -13.3308 73.0755 -18.0964 78.6797C-23.2058 84.6905 -27.9554 91.0042 -32.9529 97.1026C-34.2722 98.7129 -33.3846 99.6377 -32.4811 100.889C-27.2357 108.08 -22.0544 115.326 -16.857 122.549C-16.5292 123.003 -16.2013 123.45 -15.6256 124.247C-15.4497 121.975 -15.2898 120.149 -15.1778 118.324C-14.7221 111.037 -14.3383 103.743 -13.7546 96.4649C-13.6906 95.6518 -12.4912 94.9343 -11.8115 94.177C-11.1479 94.8466 -10.3802 95.4445 -9.85252 96.2098C-9.55666 96.6403 -9.54868 97.3577 -9.58865 97.9317C-10.1244 106.023 -10.6681 114.115 -11.2598 122.198C-11.7955 129.468 -12.4112 136.739 -12.955 144.017C-13.3228 148.943 -13.5786 153.878 -13.9545 158.805C-14.6341 167.693 -15.3777 176.574 -16.0654 185.462C-16.5691 191.999 -17.0249 198.544 -17.5047 205.081C-18.0644 212.798 -18.6321 220.515 -19.1918 228.223C-19.5516 233.23 -19.8795 238.228 -20.2553 243.234C-20.775 250.218 -21.3427 257.193 -21.8545 264.176C-22.2143 269.103 -22.4781 274.038 -22.838 278.964C-23.3817 286.458 -23.9734 293.951 -24.5331 301.445C-25.0129 307.918 -25.4606 314.383 -25.9644 320.856C-26.5001 327.688 -27.1158 334.512 -27.6356 341.344C-28.1553 348.176 -28.6031 355.015 -29.0908 361.855C-29.6345 369.429 -30.1943 377.002 -30.762 384.567C-30.8819 386.209 -31.0658 387.851 -31.2177 389.51C53.8194 395.249 138.569 394.5 223.55 389.557C223.334 385.906 223.19 382.462 222.926 379.027C222.414 372.266 221.823 365.522 221.295 358.762C220.927 354.131 220.631 349.499 220.271 344.875C219.736 338.043 219.16 331.219 218.632 324.388C218.12 317.779 217.657 311.162 217.161 304.546C216.617 297.347 216.057 290.149 215.514 282.95C215.17 278.39 214.85 273.838 214.514 269.278C213.963 261.928 213.395 254.586 212.851 247.236C212.363 240.548 211.94 233.852 211.42 227.163C210.9 220.483 210.268 213.818 209.749 207.138C209.229 200.378 208.837 193.61 208.293 186.858C207.638 178.631 206.838 170.412 206.198 162.185C205.527 153.519 205.015 144.838 204.343 136.165C203.528 125.586 202.616 115.015 201.777 104.437C201.569 101.862 201.305 99.2789 201.393 96.712C201.417 95.9308 202.4 94.8147 203.192 94.5038C204.399 94.0335 205.287 94.8147 205.447 96.1859C205.511 96.6961 205.663 97.1983 205.695 97.7085C206.158 104.54 206.598 111.38 207.086 118.22C207.214 120.069 207.486 121.911 207.71 123.84C208.022 123.657 208.197 123.617 208.261 123.505C213.211 115.262 218.864 107.546 225.589 100.634C226.588 99.6138 226.156 98.8166 225.485 97.9317C222.062 93.4037 218.672 88.8438 215.218 84.3397C209.629 77.0535 203.208 70.7398 194.516 67.1524C184.457 62.9991 174.398 58.8458 164.092 54.5888L164.108 54.5809ZM229.331 102.755C228.395 103.624 228.003 103.95 227.652 104.317C220.527 111.882 214.73 120.38 209.925 129.54C209.213 130.903 208.829 132.649 208.925 134.18C209.373 141.53 210.053 148.864 210.612 156.206C211.372 166.123 212.115 176.032 212.827 185.957C213.603 196.83 214.322 207.712 215.106 218.585C215.29 221.184 215.65 223.775 215.922 226.294C237.607 214.352 259.124 202.498 281.137 190.381C264.017 161.419 246.762 132.235 229.331 102.755ZM-88.6448 190.572C-66.8318 202.602 -45.3226 214.464 -23.6855 226.398C-23.4776 223.552 -23.2777 220.706 -23.0619 217.86C-22.5101 210.446 -21.9264 203.024 -21.3987 195.611C-20.887 188.484 -20.4552 181.349 -19.9354 174.23C-19.4157 167.183 -18.848 160.144 -18.2723 153.097C-17.9045 148.545 -17.3847 144.009 -17.1448 139.457C-16.9929 136.643 -16.0094 133.773 -17.4007 130.991C-22.5101 120.795 -28.9949 111.556 -36.9109 102.89C-55.4215 131.637 -71.9252 161.292 -88.6448 190.572ZM31.5106 53.0582C32.766 56.1035 33.8774 58.9654 35.1088 61.7715C39.3227 71.3855 45.1117 79.8277 53.7794 86.0058C70.7228 98.0832 89.5293 101.798 109.871 98.0035C134.986 93.316 151.058 78.329 159.254 54.4932C159.654 53.3373 159.526 52.7314 158.327 52.3089C156.32 51.5994 154.313 50.858 152.378 49.9811C151.138 49.4151 150.682 49.9412 150.243 50.9457C149.363 52.9705 148.42 54.9635 147.516 56.9724C141.375 70.676 131.9 80.9676 117.371 85.9899C106.249 89.8403 94.8387 90.3106 83.3405 88.2459C65.8693 85.113 52.7799 76.0012 45.1757 59.6749C43.6005 56.2948 41.9613 52.9387 40.2262 49.3035C37.3557 50.5312 34.621 51.711 31.5106 53.0503V53.0582ZM53.7074 65.0718C70.7948 91.0998 120.514 91.7376 137.833 65.1595C109.935 70.8195 81.8852 70.8833 53.7074 65.0718ZM146.157 49.2796C112.15 57.3152 78.7828 58.782 45.0238 48.586C46.487 51.719 47.7744 54.3417 48.9418 57.0202C49.6375 58.6226 50.6929 59.4835 52.4281 59.9698C62.5589 62.7759 72.9217 63.8601 83.3804 64.442C100.86 65.4226 118.211 64.5616 135.394 61.1656C137.433 60.767 140.136 60.4083 141.183 59.0132C143.278 56.247 144.446 52.7792 146.149 49.2716L146.157 49.2796Z" fill="white"/>
<path d="M164.107 54.5799C174.414 58.8368 184.473 62.9981 194.532 67.1435C203.224 70.7308 209.644 77.0445 215.234 84.3308C218.688 88.8349 222.078 93.3948 225.5 97.9228C226.172 98.8156 226.604 99.6048 225.604 100.625C218.88 107.529 213.227 115.246 208.277 123.496C208.213 123.6 208.045 123.64 207.725 123.831C207.509 121.902 207.238 120.061 207.102 118.211C206.614 111.379 206.182 104.539 205.71 97.6996C205.678 97.1894 205.526 96.6871 205.462 96.1769C205.295 94.8058 204.407 94.0245 203.208 94.4949C202.408 94.8058 201.432 95.9218 201.409 96.7031C201.321 99.27 201.584 101.853 201.792 104.428C202.64 115.006 203.551 125.577 204.359 136.156C205.023 144.821 205.542 153.502 206.214 162.176C206.854 170.403 207.653 178.622 208.309 186.849C208.845 193.609 209.237 200.377 209.764 207.129C210.284 213.809 210.916 220.474 211.435 227.154C211.955 233.843 212.379 240.539 212.867 247.227C213.402 254.577 213.978 261.919 214.53 269.27C214.874 273.829 215.186 278.381 215.529 282.941C216.073 290.14 216.633 297.338 217.177 304.537C217.672 311.154 218.136 317.77 218.648 324.379C219.176 331.211 219.751 338.035 220.287 344.866C220.647 349.498 220.951 354.13 221.31 358.753C221.838 365.506 222.43 372.258 222.942 379.018C223.206 382.454 223.349 385.898 223.565 389.549C138.576 394.491 53.835 395.241 -31.2021 389.501C-31.0502 387.843 -30.8663 386.2 -30.7463 384.558C-30.1786 376.985 -29.6189 369.42 -29.0752 361.846C-28.5794 355.007 -28.1396 348.167 -27.6199 341.335C-27.1002 334.503 -26.4845 327.679 -25.9488 320.847C-25.445 314.382 -24.9972 307.909 -24.5175 301.436C-23.9578 293.942 -23.3661 286.449 -22.8223 278.955C-22.4625 274.029 -22.1986 269.094 -21.8388 264.168C-21.3271 257.184 -20.7594 250.209 -20.2396 243.225C-19.8638 238.227 -19.536 233.221 -19.1762 228.215C-18.6165 220.498 -18.0487 212.781 -17.489 205.072C-17.0093 198.535 -16.5535 191.99 -16.0497 185.454C-15.3621 176.565 -14.6185 167.684 -13.9388 158.796C-13.563 153.869 -13.3071 148.935 -12.9393 144.008C-12.3956 136.738 -11.7799 129.467 -11.2442 122.189C-10.6525 114.106 -10.1087 106.014 -9.57301 97.9228C-9.53304 97.3488 -9.54103 96.6313 -9.83688 96.2008C-10.3646 95.4356 -11.1322 94.8377 -11.7959 94.168C-12.4676 94.9254 -13.6749 95.6508 -13.7389 96.456C-14.3226 103.734 -14.7064 111.028 -15.1622 118.315C-15.2741 120.14 -15.4341 121.966 -15.61 124.238C-16.1937 123.441 -16.5215 122.986 -16.8413 122.54C-22.0467 115.317 -27.2201 108.071 -32.4655 100.88C-33.377 99.6287 -34.2646 98.712 -32.9372 97.0937C-27.9317 90.9952 -23.1821 84.6815 -18.0807 78.6708C-13.3231 73.0666 -7.20621 69.1843 -0.465614 66.2985C4.13206 64.3294 8.79371 62.5119 13.3994 60.5508C17.9331 58.6216 22.4188 56.5968 27.2084 54.4922C28.08 56.6207 28.9276 58.7013 29.7911 60.774C33.5972 69.9655 38.3708 78.5193 45.7351 85.4468C54.4986 93.6817 64.9174 98.6801 76.5035 101.558C86.2986 103.989 96.2456 104.619 106.185 103.248C121.737 101.104 135.794 95.4435 146.996 84.0518C154.52 76.3988 159.302 67.0478 163.084 57.1309C163.396 56.3177 163.74 55.5126 164.123 54.5719L164.107 54.5799Z" fill="#E60528"/>
<path d="M229.338 102.762C246.769 132.242 264.017 161.426 281.144 190.388C259.131 202.513 237.614 214.359 215.929 226.301C215.657 223.782 215.305 221.191 215.113 218.592C214.33 207.719 213.618 196.837 212.834 185.964C212.123 176.047 211.371 166.13 210.619 156.213C210.06 148.871 209.38 141.537 208.932 134.187C208.836 132.656 209.22 130.91 209.932 129.547C214.737 120.379 220.542 111.882 227.659 104.324C228.003 103.957 228.403 103.631 229.338 102.762Z" fill="#E60528"/>
<path d="M-88.6448 190.572C-71.9252 161.292 -55.4218 131.628 -36.9191 102.889C-28.9951 111.563 -22.5184 120.802 -17.409 130.99C-16.0177 133.772 -17.0012 136.642 -17.1531 139.456C-17.393 144.008 -17.9127 148.552 -18.2806 153.096C-18.8483 160.135 -19.424 167.182 -19.9437 174.229C-20.4635 181.356 -20.8952 188.483 -21.407 195.61C-21.9347 203.031 -22.5184 210.445 -23.0701 217.859C-23.286 220.705 -23.4859 223.551 -23.6938 226.397C-45.3309 214.463 -66.832 202.601 -88.653 190.571L-88.6448 190.572Z" fill="#E60528"/>
<path d="M31.5102 53.0573C34.6206 51.718 37.3633 50.5461 40.2258 49.3105C41.9609 52.9457 43.6001 56.2938 45.1753 59.6819C52.7795 76.0082 65.8689 85.12 83.3401 88.2529C94.8303 90.3176 106.241 89.8393 117.371 85.9969C131.9 80.9746 141.367 70.683 147.516 56.9794C148.419 54.9705 149.363 52.9696 150.242 50.9527C150.682 49.9482 151.138 49.4221 152.377 49.9881C154.312 50.873 156.319 51.6144 158.326 52.3159C159.534 52.7384 159.654 53.3363 159.254 54.5002C151.058 78.336 134.986 93.331 109.871 98.0105C89.5289 101.805 70.7224 98.0822 53.779 86.0128C45.1113 79.8347 39.3223 71.3925 35.1084 61.7785C33.877 58.9644 32.7576 56.1025 31.5102 53.0652V53.0573Z" fill="#E60528"/>
<path d="M53.7072 65.0788C81.885 70.8902 109.935 70.8265 137.833 65.1665C120.513 91.7446 70.7946 91.1068 53.7072 65.0788Z" fill="#E60528"/>
<path d="M146.164 49.2786C144.461 52.7782 143.294 56.254 141.199 59.0202C140.143 60.4073 137.449 60.766 135.41 61.1726C118.219 64.5606 100.867 65.4216 83.3961 64.449C72.9374 63.8671 62.5826 62.7749 52.4438 59.9768C50.7086 59.4985 49.6532 58.6296 48.9575 57.0272C47.7901 54.3487 46.5028 51.726 45.0395 48.593C78.7984 58.797 112.166 57.3222 146.172 49.2866L146.164 49.2786Z" fill="#E60528"/>
<path d="M-88.6448 190.572C-66.8318 202.602 -45.3226 214.464 -23.6855 226.398C-23.4776 223.552 -23.2778 220.706 -23.0619 217.86C-22.5101 210.446 -21.9264 203.024 -21.3987 195.611C-20.887 188.484 -20.4552 181.349 -19.9354 174.23C-19.4157 167.183 -18.848 160.144 -18.2723 153.097C-17.9045 148.545 -17.3847 144.009 -17.1448 139.457C-16.9929 136.643 -16.0094 133.773 -17.4007 130.991C-22.5101 120.795 -28.9949 111.556 -36.9109 102.89C-55.4215 131.637 -71.9252 161.292 -88.6448 190.572ZM-88.6448 190.572C-71.9252 161.292 -55.4218 131.628 -36.9191 102.889C-28.9952 111.563 -22.5184 120.802 -17.409 130.99C-16.0177 133.772 -17.0012 136.642 -17.1531 139.456C-17.393 144.008 -17.9127 148.552 -18.2806 153.096C-18.8483 160.135 -19.424 167.182 -19.9437 174.229C-20.4635 181.356 -20.8952 188.483 -21.407 195.61C-21.9347 203.031 -22.5184 210.445 -23.0701 217.859C-23.286 220.705 -23.4859 223.551 -23.6938 226.397C-45.3309 214.463 -66.832 202.601 -88.653 190.571L-88.6448 190.572ZM82.8607 397.569C71.2346 397.569 59.6004 397.737 47.9743 397.521C34.5811 397.274 21.1878 396.756 7.80257 396.222C-4.09543 395.744 -15.9934 395.082 -27.8834 394.484C-29.6505 394.396 -31.4176 394.197 -33.1768 394.054C-34.8879 393.91 -35.6795 392.945 -35.6075 391.279C-35.4796 388.553 -35.3517 385.835 -35.1598 383.116C-34.4561 373.119 -33.7125 363.123 -33.0248 353.126C-32.5211 345.768 -32.1453 338.41 -31.6015 331.06C-31.1298 324.675 -30.4741 318.297 -29.9464 311.912C-29.4346 305.742 -28.9629 299.571 -28.5231 293.401C-27.9554 285.533 -27.4436 277.657 -26.8839 269.789C-26.4042 263.1 -25.9164 256.412 -25.3887 249.723C-24.9809 244.51 -24.5571 239.296 -24.0534 234.083C-23.9014 232.464 -24.4771 231.564 -25.9004 230.782C-47.7454 218.817 -69.5584 206.787 -91.3874 194.797C-94.05 193.339 -94.6337 192.254 -93.3064 189.967C-76.9627 161.938 -60.6669 133.877 -44.1712 105.943C-38.2062 95.8351 -30.9539 86.5958 -23.2937 77.7072C-17.5926 71.0905 -10.94 65.7574 -2.75211 62.3056C11.9605 56.1035 26.5451 49.6144 41.2257 43.3406C42.3132 42.8782 43.9363 42.7586 44.9678 43.229C51.6125 46.2583 58.7049 47.5497 65.7973 48.7614C76.0161 50.5152 86.3629 51.1689 96.7017 50.9696C111.31 50.6906 125.895 49.7499 140.072 45.7082C142.255 45.0864 144.31 44.0102 146.501 43.4203C147.612 43.1174 149.035 43.0775 150.075 43.508C165.035 49.7021 179.9 56.1035 194.892 62.2258C204.367 66.0922 211.556 72.645 217.913 80.3857C232.369 98.0114 243.556 117.766 255.142 137.241C265.481 154.627 275.428 172.245 285.542 189.767C286.782 191.904 286.254 193.339 283.687 194.694C279.25 197.03 274.74 199.222 270.358 201.653C252.831 211.387 235.336 221.168 217.873 231.006C217.169 231.404 216.465 232.576 216.497 233.365C216.713 238.443 217.121 243.513 217.505 248.576C217.865 253.271 218.296 257.966 218.648 262.67C219.216 270.235 219.744 277.808 220.303 285.381C220.783 291.918 221.255 298.463 221.775 305C222.286 311.457 222.886 317.915 223.406 324.372C223.782 329.075 224.085 333.778 224.429 338.482C224.965 345.904 225.517 353.333 226.052 360.755C226.356 364.948 226.668 369.134 226.932 373.327C227.3 379.138 227.692 384.942 227.963 390.753C228.083 393.304 227.284 393.942 224.717 394.069C213.779 394.596 202.84 395.194 191.902 395.712C184.138 396.078 176.374 396.493 168.601 396.668C140.024 397.306 111.446 397.856 82.8607 398.438C82.8607 398.151 82.8607 397.864 82.8527 397.569H82.8607ZM164.108 54.5809C163.724 55.5215 163.372 56.3267 163.068 57.1398C159.286 67.0568 154.497 76.4077 146.98 84.0607C135.778 95.4604 121.713 101.112 106.169 103.257C96.23 104.628 86.283 103.99 76.4879 101.567C64.9018 98.697 54.483 93.6907 45.7194 85.4558C38.3472 78.5362 33.5816 69.9745 29.7755 60.7829C28.9199 58.7103 28.0723 56.6296 27.1928 54.5011C22.4032 56.6057 17.9175 58.6305 13.3838 60.5597C8.77807 62.5208 4.11643 64.3384 -0.481255 66.3074C-7.22185 69.1932 -13.3308 73.0755 -18.0964 78.6797C-23.2058 84.6905 -27.9554 91.0042 -32.9529 97.1026C-34.2722 98.7129 -33.3846 99.6377 -32.4811 100.889C-27.2357 108.08 -22.0544 115.326 -16.857 122.549C-16.5292 123.003 -16.2013 123.45 -15.6256 124.247C-15.4497 121.975 -15.2898 120.149 -15.1778 118.324C-14.7221 111.037 -14.3383 103.743 -13.7546 96.4649C-13.6906 95.6518 -12.4912 94.9343 -11.8115 94.177C-11.1479 94.8466 -10.3802 95.4445 -9.85252 96.2098C-9.55667 96.6403 -9.54867 97.3577 -9.58865 97.9317C-10.1244 106.023 -10.6681 114.115 -11.2598 122.198C-11.7955 129.468 -12.4112 136.739 -12.955 144.017C-13.3228 148.943 -13.5786 153.878 -13.9545 158.805C-14.6341 167.693 -15.3777 176.574 -16.0654 185.462C-16.5691 191.999 -17.0249 198.544 -17.5047 205.081C-18.0644 212.798 -18.6321 220.515 -19.1918 228.223C-19.5516 233.23 -19.8795 238.228 -20.2553 243.234C-20.775 250.218 -21.3427 257.193 -21.8545 264.176C-22.2143 269.103 -22.4781 274.038 -22.838 278.964C-23.3817 286.458 -23.9734 293.951 -24.5331 301.445C-25.0129 307.918 -25.4606 314.383 -25.9644 320.856C-26.5001 327.688 -27.1158 334.512 -27.6356 341.344C-28.1553 348.176 -28.6031 355.015 -29.0908 361.855C-29.6345 369.429 -30.1943 377.002 -30.762 384.567C-30.8819 386.209 -31.0658 387.851 -31.2177 389.51C53.8194 395.249 138.569 394.5 223.55 389.557C223.334 385.906 223.19 382.462 222.926 379.027C222.414 372.266 221.823 365.522 221.295 358.762C220.927 354.131 220.631 349.499 220.271 344.875C219.736 338.043 219.16 331.219 218.632 324.388C218.12 317.779 217.657 311.162 217.161 304.546C216.617 297.347 216.057 290.149 215.514 282.95C215.17 278.39 214.85 273.838 214.514 269.278C213.963 261.928 213.395 254.586 212.851 247.236C212.363 240.548 211.94 233.852 211.42 227.163C210.9 220.483 210.268 213.818 209.749 207.138C209.229 200.378 208.837 193.61 208.293 186.858C207.638 178.631 206.838 170.412 206.198 162.185C205.527 153.519 205.015 144.838 204.343 136.165C203.528 125.586 202.616 115.015 201.777 104.437C201.569 101.862 201.305 99.2789 201.393 96.712C201.417 95.9308 202.4 94.8147 203.192 94.5038C204.399 94.0335 205.287 94.8147 205.447 96.1859C205.511 96.6961 205.663 97.1983 205.695 97.7085C206.158 104.54 206.598 111.38 207.086 118.22C207.214 120.069 207.486 121.911 207.71 123.84C208.022 123.657 208.197 123.617 208.261 123.505C213.211 115.262 218.864 107.546 225.589 100.634C226.588 99.6138 226.156 98.8166 225.485 97.9317C222.062 93.4037 218.672 88.8438 215.218 84.3397C209.629 77.0535 203.208 70.7398 194.516 67.1524C184.457 62.9991 174.399 58.8458 164.092 54.5888L164.108 54.5809ZM229.331 102.755C228.395 103.624 228.003 103.95 227.652 104.317C220.527 111.882 214.73 120.38 209.925 129.54C209.213 130.903 208.829 132.649 208.925 134.18C209.373 141.53 210.053 148.864 210.612 156.206C211.372 166.123 212.115 176.032 212.827 185.957C213.603 196.83 214.322 207.712 215.106 218.585C215.29 221.184 215.65 223.775 215.922 226.294C237.607 214.352 259.124 202.498 281.137 190.381C264.017 161.419 246.762 132.235 229.331 102.755ZM31.5106 53.0582C32.766 56.1035 33.8774 58.9654 35.1088 61.7715C39.3227 71.3855 45.1117 79.8277 53.7794 86.0058C70.7228 98.0832 89.5293 101.798 109.871 98.0035C134.986 93.316 151.058 78.329 159.254 54.4932C159.654 53.3373 159.526 52.7314 158.327 52.3089C156.32 51.5994 154.313 50.858 152.378 49.9811C151.138 49.4151 150.682 49.9412 150.243 50.9457C149.363 52.9705 148.42 54.9635 147.516 56.9724C141.375 70.676 131.9 80.9676 117.371 85.9899C106.249 89.8403 94.8387 90.3106 83.3405 88.2459C65.8693 85.113 52.7799 76.0012 45.1757 59.6749C43.6005 56.2948 41.9613 52.9387 40.2262 49.3035C37.3557 50.5312 34.621 51.711 31.5106 53.0503V53.0582ZM53.7074 65.0718C70.7948 91.0998 120.514 91.7376 137.833 65.1595C109.935 70.8195 81.8852 70.8833 53.7074 65.0718ZM146.157 49.2796C112.15 57.3152 78.7828 58.782 45.0238 48.586C46.4871 51.719 47.7744 54.3417 48.9418 57.0202C49.6375 58.6226 50.6929 59.4835 52.4281 59.9698C62.5589 62.7759 72.9217 63.8601 83.3804 64.442C100.86 65.4226 118.211 64.5616 135.394 61.1656C137.433 60.767 140.136 60.4083 141.183 59.0132C143.278 56.247 144.446 52.7792 146.149 49.2716L146.157 49.2796ZM164.107 54.5799C174.414 58.8368 184.473 62.9981 194.532 67.1435C203.224 70.7308 209.644 77.0445 215.234 84.3308C218.688 88.8349 222.078 93.3948 225.5 97.9228C226.172 98.8156 226.604 99.6048 225.604 100.625C218.88 107.529 213.227 115.246 208.277 123.496C208.213 123.6 208.045 123.64 207.725 123.831C207.509 121.902 207.238 120.061 207.102 118.211C206.614 111.379 206.182 104.539 205.71 97.6996C205.678 97.1894 205.526 96.6871 205.462 96.1769C205.295 94.8058 204.407 94.0245 203.208 94.4949C202.408 94.8058 201.432 95.9218 201.409 96.7031C201.321 99.27 201.584 101.853 201.792 104.428C202.64 115.006 203.551 125.577 204.359 136.156C205.023 144.821 205.542 153.502 206.214 162.176C206.854 170.403 207.653 178.622 208.309 186.849C208.845 193.609 209.237 200.377 209.764 207.129C210.284 213.809 210.916 220.474 211.435 227.154C211.955 233.843 212.379 240.539 212.867 247.227C213.402 254.577 213.978 261.919 214.53 269.27C214.874 273.829 215.186 278.381 215.529 282.941C216.073 290.14 216.633 297.338 217.177 304.537C217.672 311.154 218.136 317.77 218.648 324.379C219.176 331.211 219.751 338.035 220.287 344.866C220.647 349.498 220.951 354.13 221.31 358.753C221.838 365.506 222.43 372.258 222.942 379.018C223.206 382.454 223.349 385.898 223.565 389.549C138.576 394.491 53.835 395.241 -31.2021 389.501C-31.0502 387.843 -30.8663 386.2 -30.7463 384.558C-30.1786 376.985 -29.6189 369.42 -29.0752 361.846C-28.5794 355.007 -28.1396 348.167 -27.6199 341.335C-27.1002 334.503 -26.4845 327.679 -25.9488 320.847C-25.445 314.382 -24.9972 307.909 -24.5175 301.436C-23.9578 293.942 -23.3661 286.449 -22.8223 278.955C-22.4625 274.029 -22.1986 269.094 -21.8388 264.168C-21.3271 257.184 -20.7594 250.209 -20.2396 243.225C-19.8638 238.227 -19.536 233.221 -19.1762 228.215C-18.6165 220.498 -18.0487 212.781 -17.489 205.072C-17.0093 198.535 -16.5535 191.99 -16.0497 185.454C-15.3621 176.565 -14.6185 167.684 -13.9388 158.796C-13.563 153.869 -13.3071 148.935 -12.9393 144.008C-12.3956 136.738 -11.7799 129.467 -11.2442 122.189C-10.6525 114.106 -10.1087 106.014 -9.57301 97.9228C-9.53303 97.3488 -9.54103 96.6313 -9.83688 96.2008C-10.3646 95.4356 -11.1322 94.8377 -11.7959 94.168C-12.4676 94.9254 -13.6749 95.6508 -13.7389 96.456C-14.3226 103.734 -14.7064 111.028 -15.1622 118.315C-15.2741 120.14 -15.4341 121.966 -15.61 124.238C-16.1937 123.441 -16.5215 122.986 -16.8413 122.54C-22.0467 115.317 -27.2201 108.071 -32.4655 100.88C-33.377 99.6287 -34.2646 98.712 -32.9372 97.0937C-27.9317 90.9952 -23.1821 84.6815 -18.0807 78.6708C-13.3231 73.0666 -7.20621 69.1843 -0.465614 66.2985C4.13207 64.3294 8.79371 62.5119 13.3994 60.5508C17.9331 58.6216 22.4188 56.5968 27.2084 54.4922C28.08 56.6207 28.9276 58.7013 29.7911 60.774C33.5972 69.9655 38.3708 78.5193 45.7351 85.4468C54.4986 93.6817 64.9174 98.6801 76.5035 101.558C86.2986 103.989 96.2456 104.619 106.185 103.248C121.737 101.104 135.794 95.4435 146.996 84.0518C154.52 76.3988 159.302 67.0478 163.084 57.1309C163.396 56.3177 163.74 55.5126 164.123 54.5719L164.107 54.5799ZM229.338 102.762C246.769 132.242 264.017 161.426 281.144 190.388C259.131 202.513 237.614 214.359 215.929 226.301C215.657 223.782 215.305 221.191 215.113 218.592C214.33 207.719 213.618 196.837 212.834 185.964C212.123 176.047 211.371 166.13 210.619 156.213C210.06 148.871 209.38 141.537 208.932 134.187C208.836 132.656 209.22 130.91 209.932 129.547C214.737 120.379 220.542 111.881 227.659 104.324C228.003 103.957 228.403 103.631 229.338 102.762ZM31.5102 53.0573C34.6206 51.718 37.3632 50.5461 40.2258 49.3105C41.9609 52.9457 43.6001 56.2938 45.1753 59.6819C52.7795 76.0082 65.8689 85.12 83.3401 88.2529C94.8303 90.3176 106.241 89.8393 117.371 85.9969C131.9 80.9746 141.367 70.683 147.516 56.9794C148.419 54.9705 149.363 52.9696 150.242 50.9527C150.682 49.9482 151.138 49.4221 152.377 49.9881C154.312 50.873 156.319 51.6144 158.326 52.3159C159.534 52.7384 159.654 53.3363 159.254 54.5002C151.058 78.336 134.986 93.331 109.871 98.0105C89.5289 101.805 70.7224 98.0822 53.779 86.0128C45.1113 79.8347 39.3223 71.3925 35.1084 61.7785C33.877 58.9644 32.7576 56.1025 31.5102 53.0652V53.0573ZM53.7072 65.0788C81.885 70.8902 109.935 70.8265 137.833 65.1665C120.513 91.7446 70.7946 91.1068 53.7072 65.0788ZM146.164 49.2786C144.461 52.7782 143.294 56.254 141.199 59.0202C140.143 60.4073 137.449 60.766 135.41 61.1726C118.218 64.5606 100.867 65.4216 83.3961 64.449C72.9374 63.8671 62.5826 62.7749 52.4438 59.9768C50.7086 59.4985 49.6532 58.6296 48.9575 57.0272C47.7901 54.3487 46.5028 51.726 45.0395 48.593C78.7985 58.797 112.166 57.3222 146.172 49.2866L146.164 49.2786Z" stroke="white"/>
<path d="M171.199 142.224L179.505 191.031H172.155L170.352 180.217L170.282 179.799H162.351L162.285 180.223L160.623 191.031H153.338L161.645 142.224H171.199ZM162.416 143.64L154.621 189.447L154.523 190.031H159.765L159.83 189.607L161.492 178.799H171.129L172.931 189.613L173 190.031H178.321L178.222 189.447L170.427 143.64L170.356 143.224H162.488L162.416 143.64ZM166.883 152.304L170.429 174.255H162.198L165.744 152.304H166.883ZM163.467 172.675L163.373 173.255H169.254L169.16 172.675L166.807 158.101H165.821L163.467 172.675Z" fill="#E60528" stroke="white"/>
<path d="M142.518 142.224C145.791 142.224 148.25 143.026 149.747 144.756L149.897 144.937C151.38 146.734 152.09 149.21 152.09 152.299V157.195L152.085 157.619C152.037 159.713 151.626 161.441 150.811 162.768C150.327 163.555 149.709 164.182 148.972 164.657L148.221 165.141L149.026 165.527C149.922 165.959 150.67 166.552 151.256 167.318L151.295 167.369C152.289 168.657 152.738 170.653 152.739 173.251V182.323C152.739 185.111 152.058 187.306 150.618 188.822L150.58 188.862C149.141 190.354 146.714 191.031 143.454 191.031H128.987V142.224H142.518ZM129.987 190.031H143.454C146.627 190.031 148.711 189.362 149.864 188.167L149.863 188.166C151.084 186.9 151.739 184.983 151.739 182.323V173.251L151.734 172.781C151.681 170.489 151.236 168.911 150.486 167.956H150.487L150.475 167.94L150.473 167.938L150.314 167.739C149.495 166.77 148.299 166.121 146.676 165.822H146.675L146.266 165.747V164.648L146.651 164.557C148.14 164.201 149.23 163.429 149.958 162.243C150.697 161.042 151.09 159.374 151.09 157.195V152.299L151.082 151.754C151.003 149.072 150.33 147.025 149.117 145.562L149.103 145.544L149.092 145.533C147.882 144.039 145.745 143.224 142.518 143.224H129.987V190.031ZM141.294 167.64C142.963 167.64 144.28 168.002 145.094 168.856L145.132 168.896C145.97 169.757 146.33 171.108 146.33 172.819V180.308L146.326 180.604C146.285 182.065 145.933 183.253 145.198 184.093C144.392 185.014 143.117 185.415 141.51 185.415H135.323V167.64H141.294ZM136.323 184.415H141.51C142.976 184.415 143.909 184.047 144.446 183.434C145.006 182.793 145.33 181.782 145.33 180.308V172.819C145.33 171.19 144.977 170.154 144.397 169.573L144.28 169.456C143.729 168.949 142.776 168.64 141.294 168.64H136.323V184.415ZM141.294 147.839C142.971 147.839 144.274 148.254 144.994 149.249L145.063 149.344C145.739 150.281 146.042 151.603 146.042 153.235V157.843C146.042 159.71 145.654 161.159 144.733 162.023C143.855 162.846 142.717 163.239 141.366 163.239H135.323V147.839H141.294ZM136.323 162.239H141.366C142.513 162.239 143.39 161.912 144.048 161.295C144.662 160.719 145.042 159.624 145.042 157.843V153.235C145.042 151.751 144.774 150.696 144.305 150.001L144.209 149.867L144.198 149.852L144.111 149.738C143.649 149.188 142.771 148.839 141.294 148.839H136.323V162.239Z" fill="#E60528" stroke="white"/>
<path d="M110.031 142.224V160.407L110.981 160.625L119.872 142.224H127.53L118.358 161.521L118.274 161.698L118.331 161.884L127.345 191.031H119.753L113.438 171.953L113.062 170.817L112.518 171.883L110.085 176.647L110.031 176.755V191.031H102.479V142.224H110.031ZM103.479 190.031H109.031V176.515L112.681 169.367H113.635L120.363 189.688L120.476 190.031H125.989L125.788 189.384L117.202 161.62L125.607 143.938L125.947 143.224H120.5L120.364 143.506L110.132 164.68H109.031V143.224H103.479V190.031Z" fill="#E60528" stroke="white"/>
<path d="M87.8381 141.791C91.5752 141.791 94.5063 142.802 96.5481 144.895C98.5928 146.991 99.5705 150.115 99.5706 154.171V160.359H92.4504V154.171L92.4456 153.838C92.3994 152.202 92.01 150.997 91.3372 150.166C90.6405 149.306 89.5786 148.839 88.054 148.839C86.5479 148.839 85.5015 149.284 84.8186 150.1C84.1212 150.932 83.7297 152.237 83.7297 154.1V179.371C83.7297 181.135 84.103 182.398 84.7727 183.235C85.3735 183.986 86.3357 184.43 87.762 184.482L88.054 184.487C89.5907 184.487 90.656 184.049 91.3489 183.254C92.0533 182.446 92.4504 181.182 92.4504 179.371V170.52H99.5706V179.012L99.5598 179.77C99.4479 183.5 98.4944 186.389 96.6243 188.355C94.6301 190.452 91.7446 191.463 88.054 191.463C84.2196 191.463 81.256 190.404 79.26 188.203L79.2561 188.198C77.2771 185.965 76.3225 182.831 76.3225 178.867V154.243L76.3333 153.485C76.445 149.754 77.3976 146.865 79.2678 144.898C81.1373 142.933 83.7903 141.922 87.1555 141.803L87.8381 141.791ZM87.8381 142.791C84.3283 142.791 81.742 143.749 79.9924 145.588C78.2437 147.426 77.3225 150.278 77.3225 154.243V178.867C77.3225 182.673 78.2362 185.536 79.9954 187.526L80.0002 187.531C81.6386 189.338 84.072 190.334 87.3801 190.451L88.054 190.463C91.5635 190.463 94.15 189.506 95.8997 187.667C97.6483 185.829 98.5705 182.977 98.5706 179.012V171.52H93.4504V179.371C93.4504 181.305 93.0299 182.849 92.1028 183.912C91.1644 184.988 89.7826 185.487 88.054 185.487C86.2805 185.487 84.8856 184.977 83.9915 183.859C83.1256 182.777 82.7297 181.256 82.7297 179.371V154.1C82.7297 152.122 83.1426 150.545 84.053 149.458C84.9196 148.423 86.174 147.905 87.7375 147.845L88.054 147.839C89.7946 147.839 91.18 148.382 92.1145 149.536C93.0284 150.665 93.4504 152.234 93.4504 154.171V159.359H98.5706V154.171L98.5598 153.45C98.4496 149.909 97.5148 147.316 95.8323 145.592C94.0343 143.749 91.3971 142.791 87.8381 142.791Z" fill="#E60528" stroke="white"/>
<path d="M61.8245 141.791C65.5335 141.791 68.4671 142.934 70.55 145.271C72.6223 147.596 73.6281 150.776 73.6282 154.747V179.012L73.6165 179.77C73.4988 183.501 72.4969 186.39 70.5364 188.355L70.3186 188.573C68.2909 190.52 65.4595 191.463 61.8958 191.463C58.0601 191.463 55.0561 190.403 52.967 188.213L52.9583 188.204C50.9284 185.971 49.9485 182.834 49.9485 178.867V154.604C49.9485 150.633 50.9544 147.473 53.0305 145.194L53.0354 145.189L53.0432 145.181L53.0422 145.18C55.1722 142.903 58.1233 141.791 61.8245 141.791ZM61.8245 142.791C58.3358 142.791 55.6744 143.831 53.7737 145.862L53.7698 145.867C51.9102 147.908 50.9485 150.798 50.9485 154.604V178.867C50.9485 182.434 51.773 185.17 53.3635 187.139L53.6917 187.522L53.7004 187.532C55.4313 189.341 57.9155 190.334 61.2229 190.451L61.8958 190.463C65.4019 190.463 68.0147 189.507 69.8137 187.666L69.8225 187.657C71.6613 185.818 72.6281 182.971 72.6282 179.012V154.747L72.6165 154.044C72.5039 150.581 71.5499 147.895 69.803 145.936C67.9503 143.857 65.3155 142.791 61.8245 142.791ZM61.7522 147.839C63.4938 147.839 64.8951 148.382 65.8752 149.525C66.8434 150.655 67.2922 152.228 67.2922 154.171V179.371C67.2922 181.353 66.8472 182.919 65.8586 183.963C64.8771 184.999 63.5078 185.487 61.8245 185.487C60.072 185.487 58.6724 184.982 57.7219 183.894C56.7828 182.818 56.3567 181.257 56.3567 179.299V154.1C56.3567 152.168 56.7992 150.618 57.7659 149.533L57.7727 149.525C58.6861 148.46 59.9286 147.91 61.4456 147.846L61.7522 147.839ZM61.7522 148.839C60.3397 148.839 59.2902 149.295 58.5374 150.17L58.5295 150.179L58.512 150.198C57.7685 151.033 57.3567 152.305 57.3567 154.1V179.299C57.3567 181.133 57.7584 182.416 58.4749 183.236C59.1797 184.043 60.2635 184.487 61.8245 184.487C63.3096 184.487 64.3881 184.063 65.134 183.275C65.873 182.495 66.2922 181.229 66.2922 179.371V154.171L66.2874 153.839C66.2388 152.208 65.8283 151.007 65.1165 150.177C64.3693 149.305 63.2754 148.839 61.7522 148.839Z" fill="#E60528" stroke="white"/>
<path d="M23.2502 142.224L29.55 173.531H30.5305L36.8313 142.224H47.3167V191.031H40.5569V164.107C40.5569 163.622 40.5617 163.123 40.5657 162.604L39.5774 162.493L33.3225 191.031H26.5422L20.2874 162.497L19.2991 162.608C19.303 163.126 19.3088 163.623 19.3088 164.107V191.031H12.5491V142.224H23.2502ZM13.5491 190.031H18.3088V164.107C18.3088 161.187 18.2369 157.738 18.093 153.758L18.0745 153.239H19.2825L27.261 189.639L27.3469 190.031H32.5178L32.6038 189.639L40.5823 153.239H41.7903L41.7717 153.757V153.758C41.6279 157.738 41.5569 161.187 41.5569 164.107V190.031H46.3167V143.224H37.6506L37.5696 143.625L30.594 178.287H29.4875L22.512 143.625L22.4309 143.224H13.5491V190.031Z" fill="#E60528" stroke="white"/>
</svg>
