<svg width="317" height="440" viewBox="0 0 317 440" fill="none" xmlns="http://www.w3.org/2000/svg">
<path d="M82.8607 397.569C71.2346 397.569 59.6004 397.737 47.9743 397.521C34.5811 397.274 21.1878 396.756 7.80257 396.222C-4.09543 395.744 -15.9934 395.082 -27.8834 394.484C-29.6505 394.396 -31.4176 394.197 -33.1768 394.054C-34.8879 393.91 -35.6795 392.945 -35.6075 391.279C-35.4796 388.553 -35.3517 385.835 -35.1598 383.116C-34.4561 373.12 -33.7125 363.123 -33.0248 353.126C-32.5211 345.768 -32.1453 338.41 -31.6015 331.06C-31.1298 324.675 -30.4741 318.297 -29.9464 311.912C-29.4346 305.742 -28.9629 299.571 -28.5231 293.401C-27.9554 285.533 -27.4436 277.657 -26.8839 269.789C-26.4042 263.1 -25.9164 256.412 -25.3887 249.723C-24.9809 244.51 -24.5571 239.296 -24.0534 234.083C-23.9014 232.464 -24.4771 231.564 -25.9004 230.782C-47.7454 218.817 -69.5584 206.787 -91.3874 194.797C-94.05 193.339 -94.6337 192.254 -93.3064 189.967C-76.9627 161.938 -60.6669 133.877 -44.1712 105.943C-38.2062 95.8351 -30.9539 86.5957 -23.2937 77.7072C-17.5926 71.0905 -10.94 65.7574 -2.75211 62.3056C11.9605 56.1035 26.5451 49.6144 41.2257 43.3406C42.3132 42.8782 43.9363 42.7586 44.9678 43.229C51.6125 46.2583 58.7049 47.5497 65.7973 48.7614C76.0161 50.5152 86.3629 51.1689 96.7017 50.9696C111.31 50.6906 125.895 49.7499 140.072 45.7082C142.255 45.0864 144.31 44.0102 146.501 43.4203C147.612 43.1174 149.035 43.0775 150.075 43.508C165.035 49.7021 179.9 56.1035 194.892 62.2258C204.367 66.0922 211.556 72.645 217.913 80.3857C232.369 98.0114 243.556 117.766 255.142 137.241C265.481 154.627 275.428 172.245 285.542 189.767C286.782 191.904 286.254 193.339 283.687 194.694C279.25 197.03 274.74 199.222 270.358 201.653C252.831 211.387 235.336 221.168 217.873 231.006C217.169 231.404 216.465 232.576 216.497 233.365C216.713 238.443 217.121 243.513 217.505 248.576C217.865 253.271 218.296 257.966 218.648 262.67C219.216 270.235 219.744 277.808 220.303 285.381C220.783 291.918 221.255 298.463 221.775 305C222.286 311.457 222.886 317.915 223.406 324.372C223.782 329.075 224.085 333.779 224.429 338.482C224.965 345.904 225.517 353.333 226.052 360.755C226.356 364.948 226.668 369.134 226.932 373.327C227.3 379.138 227.692 384.942 227.963 390.753C228.083 393.304 227.284 393.942 224.717 394.069C213.779 394.596 202.84 395.194 191.902 395.712C184.138 396.078 176.374 396.493 168.601 396.668C140.024 397.306 111.446 397.856 82.8607 398.438C82.8607 398.151 82.8607 397.864 82.8527 397.569H82.8607ZM164.108 54.5809C163.724 55.5215 163.372 56.3267 163.068 57.1398C159.286 67.0568 154.497 76.4077 146.98 84.0607C135.778 95.4604 121.713 101.112 106.169 103.257C96.23 104.628 86.283 103.99 76.4879 101.567C64.9018 98.697 54.483 93.6907 45.7194 85.4558C38.3472 78.5362 33.5816 69.9745 29.7755 60.7829C28.9199 58.7103 28.0723 56.6296 27.1928 54.5011C22.4032 56.6057 17.9175 58.6306 13.3838 60.5597C8.77808 62.5208 4.11642 64.3384 -0.481255 66.3074C-7.22186 69.1932 -13.3308 73.0755 -18.0964 78.6797C-23.2058 84.6905 -27.9554 91.0042 -32.9529 97.1026C-34.2722 98.7129 -33.3846 99.6377 -32.4811 100.889C-27.2357 108.08 -22.0544 115.326 -16.857 122.549C-16.5292 123.003 -16.2013 123.45 -15.6256 124.247C-15.4497 121.975 -15.2898 120.149 -15.1778 118.324C-14.7221 111.037 -14.3383 103.743 -13.7546 96.4649C-13.6906 95.6518 -12.4912 94.9343 -11.8115 94.177C-11.1479 94.8466 -10.3802 95.4445 -9.85252 96.2098C-9.55666 96.6403 -9.54868 97.3577 -9.58865 97.9317C-10.1244 106.023 -10.6681 114.115 -11.2598 122.198C-11.7955 129.468 -12.4112 136.739 -12.955 144.017C-13.3228 148.943 -13.5786 153.878 -13.9545 158.805C-14.6341 167.693 -15.3777 176.574 -16.0654 185.462C-16.5691 191.999 -17.0249 198.544 -17.5047 205.081C-18.0644 212.798 -18.6321 220.515 -19.1918 228.223C-19.5516 233.23 -19.8795 238.228 -20.2553 243.234C-20.775 250.218 -21.3427 257.193 -21.8545 264.176C-22.2143 269.103 -22.4781 274.038 -22.838 278.964C-23.3817 286.458 -23.9734 293.951 -24.5331 301.445C-25.0129 307.918 -25.4606 314.383 -25.9644 320.856C-26.5001 327.688 -27.1158 334.512 -27.6356 341.344C-28.1553 348.176 -28.6031 355.015 -29.0908 361.855C-29.6345 369.429 -30.1943 377.002 -30.762 384.567C-30.8819 386.209 -31.0658 387.851 -31.2177 389.51C53.8194 395.249 138.569 394.5 223.55 389.557C223.334 385.906 223.19 382.462 222.926 379.027C222.414 372.266 221.823 365.522 221.295 358.762C220.927 354.131 220.631 349.499 220.271 344.875C219.736 338.043 219.16 331.219 218.632 324.388C218.12 317.779 217.657 311.162 217.161 304.546C216.617 297.347 216.057 290.149 215.514 282.95C215.17 278.39 214.85 273.838 214.514 269.278C213.963 261.928 213.395 254.586 212.851 247.236C212.363 240.548 211.94 233.852 211.42 227.163C210.9 220.483 210.268 213.818 209.749 207.138C209.229 200.378 208.837 193.61 208.293 186.858C207.638 178.631 206.838 170.412 206.198 162.185C205.527 153.519 205.015 144.838 204.343 136.165C203.528 125.586 202.616 115.015 201.777 104.437C201.569 101.862 201.305 99.2789 201.393 96.712C201.417 95.9308 202.4 94.8147 203.192 94.5038C204.399 94.0335 205.287 94.8147 205.447 96.1859C205.511 96.6961 205.663 97.1983 205.695 97.7085C206.158 104.54 206.598 111.38 207.086 118.22C207.214 120.069 207.486 121.911 207.71 123.84C208.022 123.657 208.197 123.617 208.261 123.505C213.211 115.262 218.864 107.546 225.589 100.634C226.588 99.6138 226.156 98.8166 225.485 97.9317C222.062 93.4037 218.672 88.8438 215.218 84.3397C209.629 77.0535 203.208 70.7398 194.516 67.1524C184.457 62.9991 174.398 58.8458 164.092 54.5888L164.108 54.5809ZM229.331 102.755C228.395 103.624 228.003 103.95 227.652 104.317C220.527 111.882 214.73 120.38 209.925 129.54C209.213 130.903 208.829 132.649 208.925 134.18C209.373 141.53 210.053 148.864 210.612 156.206C211.372 166.123 212.115 176.032 212.827 185.957C213.603 196.83 214.322 207.712 215.106 218.585C215.29 221.184 215.65 223.775 215.922 226.294C237.607 214.352 259.124 202.498 281.137 190.381C264.017 161.419 246.762 132.235 229.331 102.755ZM-88.6448 190.572C-66.8318 202.602 -45.3226 214.464 -23.6855 226.398C-23.4776 223.552 -23.2777 220.706 -23.0619 217.86C-22.5101 210.446 -21.9264 203.024 -21.3987 195.611C-20.887 188.484 -20.4552 181.349 -19.9354 174.23C-19.4157 167.183 -18.848 160.144 -18.2723 153.097C-17.9045 148.545 -17.3847 144.009 -17.1448 139.457C-16.9929 136.643 -16.0094 133.773 -17.4007 130.991C-22.5101 120.795 -28.9949 111.556 -36.9109 102.89C-55.4215 131.637 -71.9252 161.292 -88.6448 190.572ZM31.5106 53.0582C32.766 56.1035 33.8774 58.9654 35.1088 61.7715C39.3227 71.3855 45.1117 79.8277 53.7794 86.0058C70.7228 98.0832 89.5293 101.798 109.871 98.0035C134.986 93.316 151.058 78.329 159.254 54.4932C159.654 53.3373 159.526 52.7314 158.327 52.3089C156.32 51.5994 154.313 50.858 152.378 49.9811C151.138 49.4151 150.682 49.9412 150.243 50.9457C149.363 52.9705 148.42 54.9635 147.516 56.9724C141.375 70.676 131.9 80.9676 117.371 85.9899C106.249 89.8403 94.8387 90.3106 83.3405 88.2459C65.8693 85.113 52.7799 76.0012 45.1757 59.6749C43.6005 56.2948 41.9613 52.9387 40.2262 49.3035C37.3557 50.5312 34.621 51.711 31.5106 53.0503V53.0582ZM53.7074 65.0718C70.7948 91.0998 120.514 91.7376 137.833 65.1595C109.935 70.8195 81.8852 70.8833 53.7074 65.0718ZM146.157 49.2796C112.15 57.3152 78.7828 58.782 45.0238 48.586C46.487 51.719 47.7744 54.3417 48.9418 57.0202C49.6375 58.6226 50.6929 59.4835 52.4281 59.9698C62.5589 62.7759 72.9217 63.8601 83.3804 64.442C100.86 65.4226 118.211 64.5616 135.394 61.1656C137.433 60.767 140.136 60.4083 141.183 59.0132C143.278 56.247 144.446 52.7792 146.149 49.2716L146.157 49.2796Z" fill="#E60528"/>
<path d="M164.107 54.5799C174.414 58.8368 184.473 62.9981 194.532 67.1435C203.224 70.7308 209.644 77.0445 215.234 84.3308C218.688 88.8349 222.078 93.3948 225.5 97.9228C226.172 98.8156 226.604 99.6048 225.604 100.625C218.88 107.529 213.227 115.246 208.277 123.496C208.213 123.6 208.045 123.64 207.725 123.831C207.509 121.902 207.238 120.061 207.102 118.211C206.614 111.379 206.182 104.539 205.71 97.6996C205.678 97.1894 205.526 96.6871 205.462 96.1769C205.295 94.8058 204.407 94.0245 203.208 94.4949C202.408 94.8058 201.432 95.9218 201.409 96.7031C201.321 99.27 201.584 101.853 201.792 104.428C202.64 115.006 203.551 125.577 204.359 136.156C205.023 144.821 205.542 153.502 206.214 162.176C206.854 170.403 207.653 178.622 208.309 186.849C208.845 193.609 209.237 200.377 209.764 207.129C210.284 213.809 210.916 220.474 211.435 227.154C211.955 233.843 212.379 240.539 212.867 247.227C213.402 254.577 213.978 261.919 214.53 269.27C214.874 273.829 215.186 278.381 215.529 282.941C216.073 290.14 216.633 297.338 217.177 304.537C217.672 311.154 218.136 317.77 218.648 324.379C219.176 331.211 219.751 338.035 220.287 344.866C220.647 349.498 220.951 354.13 221.31 358.753C221.838 365.506 222.43 372.258 222.942 379.018C223.206 382.454 223.349 385.898 223.565 389.549C138.576 394.491 53.835 395.241 -31.2021 389.501C-31.0502 387.843 -30.8663 386.2 -30.7463 384.558C-30.1786 376.985 -29.6189 369.42 -29.0752 361.846C-28.5794 355.007 -28.1396 348.167 -27.6199 341.335C-27.1002 334.503 -26.4845 327.679 -25.9488 320.847C-25.445 314.382 -24.9972 307.909 -24.5175 301.436C-23.9578 293.942 -23.3661 286.449 -22.8223 278.955C-22.4625 274.029 -22.1986 269.094 -21.8388 264.168C-21.3271 257.184 -20.7594 250.209 -20.2396 243.225C-19.8638 238.227 -19.536 233.221 -19.1762 228.215C-18.6165 220.498 -18.0487 212.781 -17.489 205.072C-17.0093 198.535 -16.5535 191.99 -16.0497 185.454C-15.3621 176.565 -14.6185 167.684 -13.9388 158.796C-13.563 153.869 -13.3071 148.935 -12.9393 144.008C-12.3956 136.738 -11.7799 129.467 -11.2442 122.189C-10.6525 114.106 -10.1087 106.014 -9.57301 97.9228C-9.53304 97.3488 -9.54103 96.6313 -9.83688 96.2008C-10.3646 95.4356 -11.1322 94.8377 -11.7959 94.168C-12.4676 94.9254 -13.6749 95.6508 -13.7389 96.456C-14.3226 103.734 -14.7064 111.028 -15.1622 118.315C-15.2741 120.14 -15.4341 121.966 -15.61 124.238C-16.1937 123.441 -16.5215 122.986 -16.8413 122.54C-22.0467 115.317 -27.2201 108.071 -32.4655 100.88C-33.377 99.6287 -34.2646 98.712 -32.9372 97.0937C-27.9317 90.9952 -23.1821 84.6815 -18.0807 78.6708C-13.3231 73.0666 -7.20621 69.1843 -0.465614 66.2985C4.13206 64.3294 8.79371 62.5119 13.3994 60.5508C17.9331 58.6216 22.4188 56.5968 27.2084 54.4922C28.08 56.6207 28.9276 58.7013 29.7911 60.774C33.5972 69.9655 38.3708 78.5193 45.7351 85.4468C54.4986 93.6817 64.9174 98.6801 76.5035 101.558C86.2986 103.989 96.2456 104.619 106.185 103.248C121.737 101.104 135.794 95.4435 146.996 84.0518C154.52 76.3988 159.302 67.0478 163.084 57.1309C163.396 56.3177 163.74 55.5126 164.123 54.5719L164.107 54.5799Z" fill="#E60528" fill-opacity="0.1"/>
<path d="M229.338 102.762C246.769 132.242 264.017 161.426 281.144 190.388C259.131 202.513 237.614 214.359 215.929 226.301C215.657 223.782 215.305 221.191 215.113 218.592C214.33 207.719 213.618 196.837 212.834 185.964C212.123 176.047 211.371 166.13 210.619 156.213C210.06 148.871 209.38 141.537 208.932 134.187C208.836 132.656 209.22 130.91 209.932 129.547C214.737 120.379 220.542 111.882 227.659 104.324C228.003 103.957 228.403 103.631 229.338 102.762Z" fill="#E60528" fill-opacity="0.1"/>
<path d="M-88.6448 190.572C-71.9252 161.292 -55.4218 131.628 -36.9191 102.889C-28.9951 111.563 -22.5184 120.802 -17.409 130.99C-16.0177 133.772 -17.0012 136.642 -17.1531 139.456C-17.393 144.008 -17.9127 148.552 -18.2806 153.096C-18.8483 160.135 -19.424 167.182 -19.9437 174.229C-20.4635 181.356 -20.8952 188.483 -21.407 195.61C-21.9347 203.031 -22.5184 210.445 -23.0701 217.859C-23.286 220.705 -23.4859 223.551 -23.6938 226.397C-45.3309 214.463 -66.832 202.601 -88.653 190.571L-88.6448 190.572Z" fill="#E60528" fill-opacity="0.1"/>
<path d="M31.5102 53.0573C34.6206 51.718 37.3633 50.5461 40.2258 49.3105C41.9609 52.9457 43.6001 56.2938 45.1753 59.6819C52.7795 76.0082 65.8689 85.12 83.3401 88.2529C94.8303 90.3176 106.241 89.8393 117.371 85.9969C131.9 80.9746 141.367 70.683 147.516 56.9794C148.419 54.9705 149.363 52.9696 150.242 50.9527C150.682 49.9482 151.138 49.4221 152.377 49.9881C154.312 50.873 156.319 51.6144 158.326 52.3159C159.534 52.7384 159.654 53.3363 159.254 54.5002C151.058 78.336 134.986 93.331 109.871 98.0105C89.5289 101.805 70.7224 98.0822 53.779 86.0128C45.1113 79.8347 39.3223 71.3925 35.1084 61.7785C33.877 58.9644 32.7576 56.1025 31.5102 53.0652V53.0573Z" fill="#E60528" fill-opacity="0.1"/>
<path d="M53.7072 65.0788C81.885 70.8902 109.935 70.8265 137.833 65.1665C120.513 91.7446 70.7946 91.1068 53.7072 65.0788Z" fill="#E60528" fill-opacity="0.1"/>
<path d="M146.164 49.2786C144.461 52.7782 143.294 56.254 141.199 59.0202C140.143 60.4073 137.449 60.766 135.41 61.1726C118.219 64.5606 100.867 65.4216 83.3961 64.449C72.9374 63.8671 62.5826 62.7749 52.4438 59.9768C50.7086 59.4985 49.6532 58.6296 48.9575 57.0272C47.7901 54.3487 46.5028 51.726 45.0395 48.593C78.7984 58.797 112.166 57.3222 146.172 49.2866L146.164 49.2786Z" fill="#E60528" fill-opacity="0.1"/>
<path d="M-88.6448 190.572C-66.8318 202.602 -45.3226 214.464 -23.6855 226.398C-23.4776 223.552 -23.2778 220.706 -23.0619 217.86C-22.5101 210.446 -21.9264 203.024 -21.3987 195.611C-20.887 188.484 -20.4552 181.349 -19.9354 174.23C-19.4157 167.183 -18.848 160.144 -18.2723 153.097C-17.9045 148.545 -17.3847 144.009 -17.1448 139.457C-16.9929 136.643 -16.0094 133.773 -17.4007 130.991C-22.5101 120.795 -28.9949 111.556 -36.9109 102.89C-55.4215 131.637 -71.9252 161.292 -88.6448 190.572ZM-88.6448 190.572C-71.9252 161.292 -55.4218 131.628 -36.9191 102.889C-28.9952 111.563 -22.5184 120.802 -17.409 130.99C-16.0177 133.772 -17.0012 136.642 -17.1531 139.456C-17.393 144.008 -17.9127 148.552 -18.2806 153.096C-18.8483 160.135 -19.424 167.182 -19.9437 174.229C-20.4635 181.356 -20.8952 188.483 -21.407 195.61C-21.9347 203.031 -22.5184 210.445 -23.0701 217.859C-23.286 220.705 -23.4859 223.551 -23.6938 226.397C-45.3309 214.463 -66.832 202.601 -88.653 190.571L-88.6448 190.572ZM82.8607 397.569C71.2346 397.569 59.6004 397.737 47.9743 397.521C34.5811 397.274 21.1878 396.756 7.80257 396.222C-4.09543 395.744 -15.9934 395.082 -27.8834 394.484C-29.6505 394.396 -31.4176 394.197 -33.1768 394.054C-34.8879 393.91 -35.6795 392.945 -35.6075 391.279C-35.4796 388.553 -35.3517 385.835 -35.1598 383.116C-34.4561 373.119 -33.7125 363.123 -33.0248 353.126C-32.5211 345.768 -32.1453 338.41 -31.6015 331.06C-31.1298 324.675 -30.4741 318.297 -29.9464 311.912C-29.4346 305.742 -28.9629 299.571 -28.5231 293.401C-27.9554 285.533 -27.4436 277.657 -26.8839 269.789C-26.4042 263.1 -25.9164 256.412 -25.3887 249.723C-24.9809 244.51 -24.5571 239.296 -24.0534 234.083C-23.9014 232.464 -24.4771 231.564 -25.9004 230.782C-47.7454 218.817 -69.5584 206.787 -91.3874 194.797C-94.05 193.339 -94.6337 192.254 -93.3064 189.967C-76.9627 161.938 -60.6669 133.877 -44.1712 105.943C-38.2062 95.8351 -30.9539 86.5958 -23.2937 77.7072C-17.5926 71.0905 -10.94 65.7574 -2.75211 62.3056C11.9605 56.1035 26.5451 49.6144 41.2257 43.3406C42.3132 42.8782 43.9363 42.7586 44.9678 43.229C51.6125 46.2583 58.7049 47.5497 65.7973 48.7614C76.0161 50.5152 86.3629 51.1689 96.7017 50.9696C111.31 50.6906 125.895 49.7499 140.072 45.7082C142.255 45.0864 144.31 44.0102 146.501 43.4203C147.612 43.1174 149.035 43.0775 150.075 43.508C165.035 49.7021 179.9 56.1035 194.892 62.2258C204.367 66.0922 211.556 72.645 217.913 80.3857C232.369 98.0114 243.556 117.766 255.142 137.241C265.481 154.627 275.428 172.245 285.542 189.767C286.782 191.904 286.254 193.339 283.687 194.694C279.25 197.03 274.74 199.222 270.358 201.653C252.831 211.387 235.336 221.168 217.873 231.006C217.169 231.404 216.465 232.576 216.497 233.365C216.713 238.443 217.121 243.513 217.505 248.576C217.865 253.271 218.296 257.966 218.648 262.67C219.216 270.235 219.744 277.808 220.303 285.381C220.783 291.918 221.255 298.463 221.775 305C222.286 311.457 222.886 317.915 223.406 324.372C223.782 329.075 224.085 333.778 224.429 338.482C224.965 345.904 225.517 353.333 226.052 360.755C226.356 364.948 226.668 369.134 226.932 373.327C227.3 379.138 227.692 384.942 227.963 390.753C228.083 393.304 227.284 393.942 224.717 394.069C213.779 394.596 202.84 395.194 191.902 395.712C184.138 396.078 176.374 396.493 168.601 396.668C140.024 397.306 111.446 397.856 82.8607 398.438C82.8607 398.151 82.8607 397.864 82.8527 397.569H82.8607ZM164.108 54.5809C163.724 55.5215 163.372 56.3267 163.068 57.1398C159.286 67.0568 154.497 76.4077 146.98 84.0607C135.778 95.4604 121.713 101.112 106.169 103.257C96.23 104.628 86.283 103.99 76.4879 101.567C64.9018 98.697 54.483 93.6907 45.7194 85.4558C38.3472 78.5362 33.5816 69.9745 29.7755 60.7829C28.9199 58.7103 28.0723 56.6296 27.1928 54.5011C22.4032 56.6057 17.9175 58.6305 13.3838 60.5597C8.77807 62.5208 4.11643 64.3384 -0.481255 66.3074C-7.22185 69.1932 -13.3308 73.0755 -18.0964 78.6797C-23.2058 84.6905 -27.9554 91.0042 -32.9529 97.1026C-34.2722 98.7129 -33.3846 99.6377 -32.4811 100.889C-27.2357 108.08 -22.0544 115.326 -16.857 122.549C-16.5292 123.003 -16.2013 123.45 -15.6256 124.247C-15.4497 121.975 -15.2898 120.149 -15.1778 118.324C-14.7221 111.037 -14.3383 103.743 -13.7546 96.4649C-13.6906 95.6518 -12.4912 94.9343 -11.8115 94.177C-11.1479 94.8466 -10.3802 95.4445 -9.85252 96.2098C-9.55667 96.6403 -9.54867 97.3577 -9.58865 97.9317C-10.1244 106.023 -10.6681 114.115 -11.2598 122.198C-11.7955 129.468 -12.4112 136.739 -12.955 144.017C-13.3228 148.943 -13.5786 153.878 -13.9545 158.805C-14.6341 167.693 -15.3777 176.574 -16.0654 185.462C-16.5691 191.999 -17.0249 198.544 -17.5047 205.081C-18.0644 212.798 -18.6321 220.515 -19.1918 228.223C-19.5516 233.23 -19.8795 238.228 -20.2553 243.234C-20.775 250.218 -21.3427 257.193 -21.8545 264.176C-22.2143 269.103 -22.4781 274.038 -22.838 278.964C-23.3817 286.458 -23.9734 293.951 -24.5331 301.445C-25.0129 307.918 -25.4606 314.383 -25.9644 320.856C-26.5001 327.688 -27.1158 334.512 -27.6356 341.344C-28.1553 348.176 -28.6031 355.015 -29.0908 361.855C-29.6345 369.429 -30.1943 377.002 -30.762 384.567C-30.8819 386.209 -31.0658 387.851 -31.2177 389.51C53.8194 395.249 138.569 394.5 223.55 389.557C223.334 385.906 223.19 382.462 222.926 379.027C222.414 372.266 221.823 365.522 221.295 358.762C220.927 354.131 220.631 349.499 220.271 344.875C219.736 338.043 219.16 331.219 218.632 324.388C218.12 317.779 217.657 311.162 217.161 304.546C216.617 297.347 216.057 290.149 215.514 282.95C215.17 278.39 214.85 273.838 214.514 269.278C213.963 261.928 213.395 254.586 212.851 247.236C212.363 240.548 211.94 233.852 211.42 227.163C210.9 220.483 210.268 213.818 209.749 207.138C209.229 200.378 208.837 193.61 208.293 186.858C207.638 178.631 206.838 170.412 206.198 162.185C205.527 153.519 205.015 144.838 204.343 136.165C203.528 125.586 202.616 115.015 201.777 104.437C201.569 101.862 201.305 99.2789 201.393 96.712C201.417 95.9308 202.4 94.8147 203.192 94.5038C204.399 94.0335 205.287 94.8147 205.447 96.1859C205.511 96.6961 205.663 97.1983 205.695 97.7085C206.158 104.54 206.598 111.38 207.086 118.22C207.214 120.069 207.486 121.911 207.71 123.84C208.022 123.657 208.197 123.617 208.261 123.505C213.211 115.262 218.864 107.546 225.589 100.634C226.588 99.6138 226.156 98.8166 225.485 97.9317C222.062 93.4037 218.672 88.8438 215.218 84.3397C209.629 77.0535 203.208 70.7398 194.516 67.1524C184.457 62.9991 174.399 58.8458 164.092 54.5888L164.108 54.5809ZM229.331 102.755C228.395 103.624 228.003 103.95 227.652 104.317C220.527 111.882 214.73 120.38 209.925 129.54C209.213 130.903 208.829 132.649 208.925 134.18C209.373 141.53 210.053 148.864 210.612 156.206C211.372 166.123 212.115 176.032 212.827 185.957C213.603 196.83 214.322 207.712 215.106 218.585C215.29 221.184 215.65 223.775 215.922 226.294C237.607 214.352 259.124 202.498 281.137 190.381C264.017 161.419 246.762 132.235 229.331 102.755ZM31.5106 53.0582C32.766 56.1035 33.8774 58.9654 35.1088 61.7715C39.3227 71.3855 45.1117 79.8277 53.7794 86.0058C70.7228 98.0832 89.5293 101.798 109.871 98.0035C134.986 93.316 151.058 78.329 159.254 54.4932C159.654 53.3373 159.526 52.7314 158.327 52.3089C156.32 51.5994 154.313 50.858 152.378 49.9811C151.138 49.4151 150.682 49.9412 150.243 50.9457C149.363 52.9705 148.42 54.9635 147.516 56.9724C141.375 70.676 131.9 80.9676 117.371 85.9899C106.249 89.8403 94.8387 90.3106 83.3405 88.2459C65.8693 85.113 52.7799 76.0012 45.1757 59.6749C43.6005 56.2948 41.9613 52.9387 40.2262 49.3035C37.3557 50.5312 34.621 51.711 31.5106 53.0503V53.0582ZM53.7074 65.0718C70.7948 91.0998 120.514 91.7376 137.833 65.1595C109.935 70.8195 81.8852 70.8833 53.7074 65.0718ZM146.157 49.2796C112.15 57.3152 78.7828 58.782 45.0238 48.586C46.4871 51.719 47.7744 54.3417 48.9418 57.0202C49.6375 58.6226 50.6929 59.4835 52.4281 59.9698C62.5589 62.7759 72.9217 63.8601 83.3804 64.442C100.86 65.4226 118.211 64.5616 135.394 61.1656C137.433 60.767 140.136 60.4083 141.183 59.0132C143.278 56.247 144.446 52.7792 146.149 49.2716L146.157 49.2796ZM164.107 54.5799C174.414 58.8368 184.473 62.9981 194.532 67.1435C203.224 70.7308 209.644 77.0445 215.234 84.3308C218.688 88.8349 222.078 93.3948 225.5 97.9228C226.172 98.8156 226.604 99.6048 225.604 100.625C218.88 107.529 213.227 115.246 208.277 123.496C208.213 123.6 208.045 123.64 207.725 123.831C207.509 121.902 207.238 120.061 207.102 118.211C206.614 111.379 206.182 104.539 205.71 97.6996C205.678 97.1894 205.526 96.6871 205.462 96.1769C205.295 94.8058 204.407 94.0245 203.208 94.4949C202.408 94.8058 201.432 95.9218 201.409 96.7031C201.321 99.27 201.584 101.853 201.792 104.428C202.64 115.006 203.551 125.577 204.359 136.156C205.023 144.821 205.542 153.502 206.214 162.176C206.854 170.403 207.653 178.622 208.309 186.849C208.845 193.609 209.237 200.377 209.764 207.129C210.284 213.809 210.916 220.474 211.435 227.154C211.955 233.843 212.379 240.539 212.867 247.227C213.402 254.577 213.978 261.919 214.53 269.27C214.874 273.829 215.186 278.381 215.529 282.941C216.073 290.14 216.633 297.338 217.177 304.537C217.672 311.154 218.136 317.77 218.648 324.379C219.176 331.211 219.751 338.035 220.287 344.866C220.647 349.498 220.951 354.13 221.31 358.753C221.838 365.506 222.43 372.258 222.942 379.018C223.206 382.454 223.349 385.898 223.565 389.549C138.576 394.491 53.835 395.241 -31.2021 389.501C-31.0502 387.843 -30.8663 386.2 -30.7463 384.558C-30.1786 376.985 -29.6189 369.42 -29.0752 361.846C-28.5794 355.007 -28.1396 348.167 -27.6199 341.335C-27.1002 334.503 -26.4845 327.679 -25.9488 320.847C-25.445 314.382 -24.9972 307.909 -24.5175 301.436C-23.9578 293.942 -23.3661 286.449 -22.8223 278.955C-22.4625 274.029 -22.1986 269.094 -21.8388 264.168C-21.3271 257.184 -20.7594 250.209 -20.2396 243.225C-19.8638 238.227 -19.536 233.221 -19.1762 228.215C-18.6165 220.498 -18.0487 212.781 -17.489 205.072C-17.0093 198.535 -16.5535 191.99 -16.0497 185.454C-15.3621 176.565 -14.6185 167.684 -13.9388 158.796C-13.563 153.869 -13.3071 148.935 -12.9393 144.008C-12.3956 136.738 -11.7799 129.467 -11.2442 122.189C-10.6525 114.106 -10.1087 106.014 -9.57301 97.9228C-9.53303 97.3488 -9.54103 96.6313 -9.83688 96.2008C-10.3646 95.4356 -11.1322 94.8377 -11.7959 94.168C-12.4676 94.9254 -13.6749 95.6508 -13.7389 96.456C-14.3226 103.734 -14.7064 111.028 -15.1622 118.315C-15.2741 120.14 -15.4341 121.966 -15.61 124.238C-16.1937 123.441 -16.5215 122.986 -16.8413 122.54C-22.0467 115.317 -27.2201 108.071 -32.4655 100.88C-33.377 99.6287 -34.2646 98.712 -32.9372 97.0937C-27.9317 90.9952 -23.1821 84.6815 -18.0807 78.6708C-13.3231 73.0666 -7.20621 69.1843 -0.465614 66.2985C4.13207 64.3294 8.79371 62.5119 13.3994 60.5508C17.9331 58.6216 22.4188 56.5968 27.2084 54.4922C28.08 56.6207 28.9276 58.7013 29.7911 60.774C33.5972 69.9655 38.3708 78.5193 45.7351 85.4468C54.4986 93.6817 64.9174 98.6801 76.5035 101.558C86.2986 103.989 96.2456 104.619 106.185 103.248C121.737 101.104 135.794 95.4435 146.996 84.0518C154.52 76.3988 159.302 67.0478 163.084 57.1309C163.396 56.3177 163.74 55.5126 164.123 54.5719L164.107 54.5799ZM229.338 102.762C246.769 132.242 264.017 161.426 281.144 190.388C259.131 202.513 237.614 214.359 215.929 226.301C215.657 223.782 215.305 221.191 215.113 218.592C214.33 207.719 213.618 196.837 212.834 185.964C212.123 176.047 211.371 166.13 210.619 156.213C210.06 148.871 209.38 141.537 208.932 134.187C208.836 132.656 209.22 130.91 209.932 129.547C214.737 120.379 220.542 111.881 227.659 104.324C228.003 103.957 228.403 103.631 229.338 102.762ZM31.5102 53.0573C34.6206 51.718 37.3632 50.5461 40.2258 49.3105C41.9609 52.9457 43.6001 56.2938 45.1753 59.6819C52.7795 76.0082 65.8689 85.12 83.3401 88.2529C94.8303 90.3176 106.241 89.8393 117.371 85.9969C131.9 80.9746 141.367 70.683 147.516 56.9794C148.419 54.9705 149.363 52.9696 150.242 50.9527C150.682 49.9482 151.138 49.4221 152.377 49.9881C154.312 50.873 156.319 51.6144 158.326 52.3159C159.534 52.7384 159.654 53.3363 159.254 54.5002C151.058 78.336 134.986 93.331 109.871 98.0105C89.5289 101.805 70.7224 98.0822 53.779 86.0128C45.1113 79.8347 39.3223 71.3925 35.1084 61.7785C33.877 58.9644 32.7576 56.1025 31.5102 53.0652V53.0573ZM53.7072 65.0788C81.885 70.8902 109.935 70.8265 137.833 65.1665C120.513 91.7446 70.7946 91.1068 53.7072 65.0788ZM146.164 49.2786C144.461 52.7782 143.294 56.254 141.199 59.0202C140.143 60.4073 137.449 60.766 135.41 61.1726C118.218 64.5606 100.867 65.4216 83.3961 64.449C72.9374 63.8671 62.5826 62.7749 52.4438 59.9768C50.7086 59.4985 49.6532 58.6296 48.9575 57.0272C47.7901 54.3487 46.5028 51.726 45.0395 48.593C78.7985 58.797 112.166 57.3222 146.172 49.2866L146.164 49.2786Z" stroke="#E60528"/>
<path d="M171.622 141.724L180.098 191.531H171.731L169.859 180.299H162.78L161.052 191.531H152.745L161.222 141.724H171.622ZM155.115 189.531H159.336L161.064 178.299H171.553L173.424 189.531H177.729L169.934 143.724H162.909L155.115 189.531ZM167.309 151.804L171.016 174.755H161.612L165.319 151.804H167.309ZM163.96 172.755H168.667L166.314 158.181L163.96 172.755Z" fill="#E60528"/>
<path d="M150.59 152.299C150.59 149.419 149.928 147.323 148.733 145.881L148.727 145.875L148.721 145.868C147.651 144.53 145.692 143.724 142.518 143.724H130.487V189.531H143.454C146.583 189.531 148.493 188.867 149.503 187.82C150.604 186.68 151.239 184.908 151.239 182.323V173.251C151.238 170.731 150.786 169.14 150.086 168.256L150.074 168.24C149.346 167.282 148.223 166.616 146.585 166.314L145.766 166.164V164.254L146.534 164.07C147.906 163.743 148.879 163.045 149.532 161.981C150.205 160.887 150.59 159.321 150.59 157.195V152.299ZM144.83 172.819C144.83 171.241 144.485 170.369 144.043 169.927L144.031 169.914L144.019 169.901C143.629 169.484 142.823 169.14 141.294 169.14H136.823V183.915H141.51C142.904 183.915 143.666 183.565 144.07 183.104C144.518 182.592 144.83 181.72 144.83 180.308V172.819ZM144.542 153.235C144.542 151.703 144.244 150.736 143.812 150.171L143.8 150.155L143.789 150.14C143.495 149.723 142.809 149.339 141.294 149.339H136.823V161.739H141.366C142.41 161.739 143.157 161.444 143.706 160.93C144.167 160.498 144.542 159.58 144.542 157.843V153.235ZM146.83 180.308C146.83 181.967 146.47 183.399 145.574 184.422C144.634 185.497 143.187 185.915 141.51 185.915H134.823V167.14H141.294C143.014 167.14 144.501 167.509 145.456 168.512H145.457C145.462 168.516 145.466 168.521 145.47 168.525C145.474 168.529 145.478 168.533 145.482 168.537H145.481C146.461 169.536 146.83 171.052 146.83 172.819V180.308ZM146.542 157.843C146.542 159.753 146.15 161.38 145.074 162.389C144.088 163.314 142.818 163.739 141.366 163.739H134.823V147.339H141.294C143.028 147.339 144.538 147.765 145.4 148.956H145.401C145.405 148.961 145.408 148.967 145.412 148.973C145.416 148.977 145.42 148.982 145.423 148.986H145.422C146.221 150.051 146.542 151.52 146.542 153.235V157.843ZM152.59 157.195C152.59 159.533 152.172 161.508 151.237 163.029C150.714 163.88 150.043 164.561 149.242 165.077C150.204 165.541 151.016 166.181 151.654 167.015H151.655C152.779 168.435 153.238 170.588 153.239 173.251V182.323C153.239 185.21 152.529 187.566 150.942 189.21L150.941 189.209C149.358 190.849 146.758 191.531 143.454 191.531H128.487V141.724H142.518C145.967 141.724 148.666 142.596 150.283 144.618H150.282C151.864 146.535 152.59 149.138 152.59 152.299V157.195Z" fill="#E60528"/>
<path d="M110.531 141.724V160.407L119.559 141.724H128.321L118.809 161.736L128.023 191.531H119.392L112.963 172.11L110.531 176.875V191.531H101.979V141.724H110.531ZM103.979 189.531H108.531V176.395L112.374 168.867H113.996L120.837 189.531H125.311L116.668 161.582L125.156 143.724H120.814L110.446 165.18H108.531V143.724H103.979V189.531Z" fill="#E60528"/>
<path d="M82.2297 154.1C82.2297 152.064 82.6523 150.351 83.6692 149.137C84.7145 147.889 86.2408 147.339 88.054 147.339C89.9024 147.339 91.4495 147.92 92.5032 149.222C93.5151 150.472 93.9504 152.169 93.9504 154.171V158.859H98.0706V154.171C98.0705 150.331 97.1445 147.653 95.4749 145.941C93.7986 144.223 91.3081 143.291 87.8381 143.291C84.419 143.291 81.9822 144.222 80.3547 145.933C78.729 147.642 77.8225 150.345 77.8225 154.243V178.867C77.8225 182.597 78.7179 185.326 80.3704 187.195C81.9939 188.985 84.4908 189.963 88.054 189.963C91.4729 189.963 93.9098 189.033 95.5374 187.322C97.1631 185.613 98.0705 182.909 98.0706 179.012V172.02H93.9504V179.371C93.9504 181.366 93.5181 183.049 92.4797 184.24C91.4185 185.458 89.8785 185.987 88.054 185.987C86.1886 185.987 84.6219 185.448 83.6008 184.172C82.6368 182.967 82.2297 181.316 82.2297 179.371V154.1ZM84.2297 179.371C84.2297 181.074 84.5915 182.208 85.1633 182.923C85.6783 183.566 86.5598 183.987 88.054 183.987C89.4934 183.987 90.4011 183.58 90.9719 182.926C91.5656 182.245 91.9504 181.12 91.9504 179.371V170.02H100.071V179.012C100.07 183.178 99.1047 186.473 96.9866 188.7C94.8701 190.925 91.8348 191.963 88.054 191.963C84.1295 191.963 81.0103 190.877 78.8899 188.539L78.8821 188.53C76.7956 186.176 75.8225 182.907 75.8225 178.867V154.243C75.8225 150.077 76.7873 146.781 78.9055 144.554C81.022 142.329 84.0573 141.291 87.8381 141.291C91.664 141.291 94.7418 142.327 96.9055 144.545C99.0756 146.769 100.07 150.043 100.071 154.171V160.859H91.9504V154.171C91.9504 152.429 91.5684 151.246 90.9485 150.48C90.3701 149.766 89.4692 149.339 88.054 149.339C86.6514 149.339 85.765 149.749 85.2024 150.421C84.6113 151.127 84.2297 152.295 84.2297 154.1V179.371Z" fill="#E60528"/>
<path d="M49.4485 178.867V154.604C49.4485 150.55 50.4765 147.255 52.6614 144.857L52.6692 144.849C54.9146 142.443 58.0126 141.291 61.8245 141.291C65.6423 141.291 68.7248 142.471 70.9231 144.938C73.1001 147.38 74.1281 150.693 74.1282 154.747V179.012C74.1281 183.184 73.1106 186.483 70.8909 188.709L70.8918 188.71C68.7305 190.925 65.6781 191.963 61.8958 191.963C57.9682 191.963 54.8153 190.876 52.6047 188.558L52.5959 188.549L52.5881 188.54C50.4483 186.186 49.4485 182.913 49.4485 178.867ZM55.8567 179.299V154.1C55.8567 152.1 56.3141 150.41 57.3928 149.2C58.4776 147.935 59.9752 147.339 61.7522 147.339C63.6031 147.339 65.1584 147.921 66.2551 149.2C67.3276 150.451 67.7922 152.157 67.7922 154.171V179.371C67.7922 181.415 67.3352 183.131 66.2219 184.307C65.1225 185.467 63.6069 185.987 61.8245 185.987C59.9765 185.987 58.4184 185.452 57.345 184.223C56.2943 183.02 55.8567 181.318 55.8567 179.299ZM51.4485 178.867C51.4485 182.592 52.3661 185.317 54.0618 187.187C55.7869 188.99 58.3424 189.963 61.8958 189.963C65.3133 189.963 67.7815 189.033 69.4602 187.312L69.469 187.304C71.1791 185.593 72.1281 182.897 72.1282 179.012V154.747C72.1281 151.026 71.1888 148.242 69.4299 146.269C67.6923 144.319 65.2064 143.291 61.8245 143.291C58.4417 143.291 55.925 144.296 54.1389 146.204C52.3878 148.126 51.4485 150.881 51.4485 154.604V178.867ZM57.8567 179.299C57.8567 181.071 58.2466 182.214 58.8518 182.907C59.4344 183.574 60.3605 183.987 61.8245 183.987C63.2098 183.987 64.1423 183.595 64.7708 182.932C65.3853 182.283 65.7922 181.167 65.7922 179.371V154.171C65.7922 152.441 65.392 151.267 64.7366 150.502C64.1054 149.766 63.165 149.339 61.7522 149.339C60.4573 149.339 59.5546 149.752 58.9114 150.502L58.9036 150.511L58.8958 150.521C58.258 151.229 57.8567 152.365 57.8567 154.1V179.299Z" fill="#E60528"/>
<path d="M23.6594 141.724L30.0403 173.433L36.4221 141.724H47.8167V191.531H40.0569V164.107C40.0569 163.62 40.0617 163.117 40.0657 162.601L33.7249 191.531H26.1399L19.7991 162.604C19.803 163.12 19.8088 163.621 19.8088 164.107V191.531H12.0491V141.724H23.6594ZM42.0569 189.531H45.8167V143.724H38.0598L31.0032 178.787H29.0784L22.0217 143.724H14.0491V189.531H17.8088V164.107C17.8088 161.195 17.7367 157.751 17.593 153.775L17.5559 152.739H19.6848L27.7493 189.531H32.1155L40.1799 152.739H42.3098L42.2717 153.775C42.128 157.751 42.0569 161.195 42.0569 164.107V189.531Z" fill="#E60528"/>
</svg>
