<svg width="317" height="440" viewBox="0 0 317 440" fill="none" xmlns="http://www.w3.org/2000/svg">
<path d="M-28.0318 344.786C-30.0787 350.866 -32.101 357.143 -34.296 363.355C-38.3323 374.803 -42.5907 386.283 -50.7127 395.502C-54.6833 400.009 -56.7221 404.754 -57.6017 410.432C-58.1196 413.776 -59.1883 417.029 -59.9939 420.331C-61.2106 425.297 -63.1178 426.576 -68.0666 425.625C-79.5428 423.429 -91.0189 421.216 -102.487 418.996C-106.91 418.135 -107.822 416.513 -106.934 412.186C-105.652 405.934 -104.386 399.673 -103.547 393.355C-103.292 391.454 -103.909 388.93 -105.085 387.43C-109.589 381.711 -111.776 375.188 -111.587 368.157C-111.234 355.341 -111.094 342.426 -109.4 329.749C-106.893 310.951 -103.473 292.251 -99.7904 273.641C-94.7018 247.96 -88.6184 222.491 -81.1622 197.375C-74.487 174.873 -67.9022 152.297 -58.4484 130.745C-52.9734 118.265 -45.3528 107.096 -35.2989 97.779C-32.3723 95.0748 -28.9032 92.9114 -25.5327 90.7317C-11.1382 81.4145 4.62914 75.0638 20.9884 70.229C30.3846 67.4511 37.4051 61.633 43.8008 54.7004C44.3845 54.0694 45.0422 53.4548 45.4121 52.7009C48.5277 46.301 53.9123 45.6864 60.3738 45.7602C86.6061 46.0634 112.847 45.8995 139.087 45.8421C140.838 45.8421 141.858 46.4813 142.943 47.7924C146.823 52.4715 150.695 57.1833 154.887 61.5756C160.099 67.0332 167.218 68.9507 174.157 71.196C187.022 75.3506 199.452 80.4476 211.339 86.9868C223.169 93.4932 232.705 102.048 240.44 113.152C249.162 125.673 254.498 139.587 259.364 153.764C269.468 183.207 278.658 212.936 285.276 243.379C289.156 261.243 293.094 279.099 296.456 297.07C298.898 310.123 300.789 323.308 302.235 336.51C303.337 346.614 303.649 356.832 303.773 367.01C303.863 374.639 302.137 381.932 296.711 387.873C295.478 389.217 295.034 390.774 295.453 392.822C296.859 399.648 297.977 406.54 299.169 413.415C299.728 416.652 298.553 418.34 295.1 418.987C287.471 420.422 279.818 421.741 272.172 423.126C267.478 423.978 262.817 425.084 258.082 425.641C254.44 426.076 252.985 424.609 252.221 421.061C251.012 415.406 249.804 409.752 248.472 404.131C248.168 402.844 247.65 401.369 246.737 400.492C237.637 391.79 232.425 380.776 228.027 369.321C225.528 362.822 223.522 356.127 221.253 349.539C220.678 347.859 219.93 346.237 219.206 344.458C217.389 346.515 215.778 348.441 214.052 350.252C213.23 351.112 212.293 352.112 211.224 352.423C208.075 353.333 207.689 355.414 207.788 358.274C207.993 364.101 207.845 369.935 207.845 375.77C207.845 382.038 205.823 384.087 199.575 384.087C147.439 384.087 95.3036 384.095 43.1761 384.095C26.0523 384.095 8.93678 383.915 -8.17874 384.177C-14.7882 384.276 -16.5721 380.793 -16.6461 375.532C-16.7283 369.796 -16.4981 364.043 -16.1693 358.315C-16.0131 355.587 -16.9338 354.087 -19.2849 352.538C-22.4252 350.473 -24.9983 347.54 -28.0235 344.794L-28.0318 344.786ZM102.02 109.464C102.02 110.382 102.02 111.218 102.02 112.062C102.02 190.352 102.02 268.643 102.02 346.933C102.02 350.186 102.299 350.465 105.514 350.465C137.69 350.465 169.857 350.432 202.033 350.473C206.645 350.473 210.542 349.006 213.238 345.319C215.178 342.664 217.077 339.771 218.113 336.698C221.302 327.225 223.358 317.449 223.802 307.452C224.254 297.192 224.574 286.908 224.402 276.641C224.229 266.635 223.473 256.63 222.766 246.641C222.338 240.593 221.533 234.578 220.875 228.547C220.152 221.934 219.428 215.313 218.664 208.708C218.047 203.365 217.307 198.039 216.748 192.696C215.959 185.141 214.742 177.569 214.685 169.997C214.611 160.959 215.145 151.855 216.197 142.873C217.48 131.901 220.571 121.371 226.572 111.882C227.83 109.89 228.923 107.801 230.247 105.49C227.468 103.237 224.969 101.024 222.289 99.0573C205.313 86.5853 186.052 79.0381 166.026 73.1053C163.388 72.3268 161.908 72.8349 160.297 75.1621C154.92 82.9223 149.149 90.4121 141.496 96.1237C129.937 104.744 116.439 107.809 102.02 109.473V109.464ZM89.1134 109.464C86.9185 109.186 85.0524 108.981 83.2027 108.719C73.6749 107.35 64.3855 105.154 55.9839 100.237C45.223 93.9439 37.1832 84.9054 30.5244 74.5803C29.4475 72.9168 28.3706 72.3268 26.5373 72.9168C13.2116 77.178 -0.163544 81.3408 -12.4946 88.1258C-20.666 92.6246 -28.8703 97.0742 -35.899 103.343C-37.872 105.105 -38.0775 106.514 -36.606 108.735C-26.4287 124.124 -23.0171 141.398 -22.343 159.484C-21.784 174.275 -24.5544 188.763 -26.1081 203.357C-27.1193 212.855 -28.6237 222.303 -29.5362 231.808C-30.761 244.575 -32.1257 257.359 -32.5367 270.159C-33.03 285.54 -33.8191 301.011 -31.0816 316.286C-29.7828 323.546 -28.2455 330.831 -25.9519 337.821C-23.4611 345.401 -18.2984 350.703 -8.12942 350.58C23.0024 350.186 54.1343 350.449 85.2743 350.457C89.1216 350.457 89.1299 350.465 89.1299 346.745C89.1299 268.643 89.1299 190.541 89.1299 112.439V109.464H89.1134ZM232.647 109.546C230.082 114.414 227.468 118.724 225.487 123.305C222.642 129.885 221.089 136.834 220.069 143.963C218.466 155.223 218.096 166.498 219.313 177.757C220.579 189.533 222.494 201.243 223.9 213.002C225.224 224.114 226.646 235.234 227.328 246.395C228.241 261.35 228.75 276.337 228.923 291.325C229.096 306.051 227.32 320.604 223.012 334.764C222.108 337.731 222.149 340.558 223.259 343.5C226.999 353.456 230.403 363.535 234.316 373.418C237.177 380.637 240.646 387.586 245.923 393.486C247.633 395.387 249.458 395.871 251.875 395.33C264.182 392.585 276.48 389.782 288.836 387.291C292.042 386.644 293.982 385.046 295.659 382.489C298.536 378.105 299.465 373.188 299.679 368.141C300.526 348.211 297.467 328.594 294.352 309.017C292.403 296.766 289.83 284.606 287.348 272.445C281.758 245.133 275.51 217.976 267.141 191.36C261.403 173.119 256.315 154.649 248.587 137.072C244.411 127.582 239.511 118.527 232.639 109.538L232.647 109.546ZM-41.1191 109.686C-43.6265 113.562 -46.0187 117.052 -48.1972 120.674C-56.163 133.917 -61.2517 148.364 -66.1265 162.934C-77.5122 196.998 -86.5797 231.677 -94.1345 266.75C-96.9296 279.714 -99.3876 292.759 -101.739 305.805C-103.235 314.098 -104.402 322.456 -105.446 330.823C-106.318 337.854 -107.09 344.925 -107.378 351.997C-107.699 359.84 -108.611 367.837 -106.416 375.499C-104.871 380.899 -102.996 386.242 -95.902 387.562C-83.8422 389.799 -71.8893 392.634 -59.9281 395.387C-57.3304 395.986 -55.3985 395.338 -54.1243 393.339C-50.836 388.176 -47.1203 383.145 -44.7445 377.572C-39.9765 366.387 -36.0223 354.857 -31.6489 343.5C-30.4158 340.304 -30.5062 337.223 -31.4598 334.01C-35.9072 319.072 -37.5349 303.756 -37.3212 288.244C-37.165 276.936 -36.7704 265.627 -36.2443 254.335C-35.9483 248.017 -35.2413 241.716 -34.6001 235.422C-33.8685 228.293 -33.0217 221.172 -32.1915 214.051C-31.5667 208.716 -30.9748 203.373 -30.2267 198.055C-29.2402 191.057 -27.8262 184.1 -27.1275 177.069C-25.7135 162.86 -26.4945 148.741 -29.6184 134.761C-31.6407 125.73 -35.8579 117.749 -41.1191 109.677V109.686ZM152.906 355.193C152.906 355.365 152.906 355.537 152.906 355.709C137.081 355.709 121.256 355.709 105.423 355.709C102.053 355.709 102.02 355.742 102.012 359.209C102.012 365.043 102.102 370.869 101.962 376.696C101.905 379.129 102.628 379.949 105.168 379.941C136.481 379.859 167.786 379.891 199.098 379.883C202.798 379.883 203.694 379.015 203.702 375.401C203.718 369.656 203.595 363.912 203.751 358.168C203.817 355.742 202.979 355.128 200.627 355.136C184.72 355.226 168.805 355.185 152.89 355.185L152.906 355.193ZM-12.1658 355.193C-12.1658 362.56 -12.1493 369.64 -12.174 376.728C-12.1822 379.228 -10.7765 379.908 -8.54045 379.908C23.0189 379.883 54.57 379.883 86.1293 379.924C88.3735 379.924 89.171 379.064 89.1463 376.876C89.0641 370.787 89.0312 364.707 89.1627 358.619C89.2121 356.357 88.4886 355.677 86.2279 355.668C54.4138 355.554 22.5996 355.365 -9.21455 355.193C-10.1353 355.193 -11.0642 355.193 -12.1658 355.193ZM54.1918 50.7425C56.2634 55.5281 58.3022 60.1088 60.2258 64.7305C61.1465 66.943 62.5687 67.6314 64.9938 67.6232C85.5374 67.6068 106.089 67.7625 126.633 67.7461C127.767 67.7461 129.461 66.9184 129.937 65.9924C132.494 61.0184 134.747 55.8886 137.139 50.7343H54.2L54.1918 50.7425ZM93.2484 110.399C93.2484 111.8 93.2484 112.988 93.2484 114.176C93.2484 200.94 93.2484 287.711 93.2484 374.475C93.2484 375.671 92.9854 376.966 93.3553 378.048C93.6184 378.818 94.7282 379.76 95.4762 379.769C96.2654 379.777 97.2355 378.908 97.8192 378.179C98.1562 377.753 97.9014 376.851 97.9014 376.171C97.9014 288.547 97.9014 200.923 97.9014 113.299C97.9014 112.382 97.9014 111.456 97.9014 110.407H93.2567L93.2484 110.399ZM64.813 72.5972C70.4606 83.2337 82.0765 95.7139 91.818 102.319C94.4733 104.122 96.6189 104.089 99.2906 102.524C107.544 97.6888 113.759 90.7972 119.325 83.2419C121.774 79.9231 124.06 76.4814 126.764 72.589H64.8048L64.813 72.5972ZM89.656 105.613C70.5839 92.4853 58.6968 74.4574 49.8924 53.799C45.5025 59.6499 40.7345 64.8288 34.7005 68.754C34.2319 69.0572 34.1333 70.7043 34.495 71.3762C41.014 83.414 50.0075 92.9934 62.5605 98.9426C71.0032 102.942 80.1282 104.22 89.6478 105.613H89.656ZM294.796 413.636C293.39 406.401 292.14 399.804 290.8 393.224C290.504 391.757 289.411 391.56 288.005 391.88C284.183 392.757 280.335 393.519 276.496 394.289C269.303 395.715 262.11 397.116 254.909 398.518C252.607 398.968 251.67 400.14 252.492 402.525C252.903 403.721 253.018 405.016 253.289 406.261C254.276 410.826 255.27 415.382 256.257 419.946C256.594 421.511 257.153 422.126 259.085 421.683C264.642 420.397 270.29 419.455 275.904 418.422C281.445 417.398 287.011 416.488 292.527 415.357C293.431 415.177 294.163 414.145 294.812 413.636H294.796ZM141.578 53.6023C133.07 73.9329 121.519 92.3296 102.743 105.269C127.348 103.13 146.321 92.3706 157.469 70.0323C152.29 64.6731 147.004 59.2156 141.586 53.6023H141.578ZM-102.553 412.825C-102.725 414.423 -102.084 415.177 -100.456 415.423C-95.6471 416.16 -90.8462 416.939 -86.0618 417.84C-79.9456 418.996 -73.8458 420.241 -67.7542 421.536C-65.4442 422.028 -64.2933 421.323 -63.8412 418.947C-62.8547 413.686 -61.6216 408.466 -60.6105 403.205C-59.9117 399.591 -60.1994 399.19 -63.907 398.436C-74.8487 396.215 -85.7987 394.043 -96.7652 391.946C-97.3488 391.831 -98.5984 392.536 -98.697 393.035C-100.07 399.607 -101.287 406.22 -102.544 412.817L-102.553 412.825Z" fill="#E60528"/>
<path d="M102.02 109.464C116.439 107.809 129.945 104.736 141.495 96.115C149.157 90.4034 154.928 82.9136 160.296 75.1534C161.907 72.8343 163.387 72.3181 166.026 73.0966C186.052 79.0294 205.313 86.5766 222.289 99.0486C224.969 101.015 227.476 103.228 230.246 105.481C228.923 107.792 227.829 109.882 226.572 111.873C220.57 121.362 217.48 131.9 216.197 142.865C215.145 151.846 214.619 160.95 214.684 169.989C214.742 177.56 215.95 185.124 216.748 192.687C217.307 198.03 218.047 203.357 218.663 208.699C219.428 215.312 220.151 221.925 220.875 228.538C221.532 234.57 222.338 240.584 222.765 246.632C223.472 256.621 224.229 266.626 224.401 276.632C224.574 286.9 224.253 297.176 223.801 307.443C223.366 317.441 221.302 327.217 218.113 336.69C217.077 339.771 215.178 342.655 213.238 345.31C210.549 348.998 206.645 350.473 202.033 350.465C169.857 350.415 137.689 350.448 105.513 350.456C102.299 350.456 102.02 350.178 102.02 346.925C102.02 268.634 102.02 190.344 102.02 112.053C102.02 111.217 102.02 110.382 102.02 109.456L102.02 109.464ZM194.388 314.892C195.588 314.36 196.295 314.081 196.969 313.737C200.298 312 203.619 310.246 206.949 308.5C210.993 306.386 211.051 306.042 209.004 301.83C203.595 290.718 198.227 279.59 192.858 268.462C188.345 259.104 183.898 249.713 179.36 240.363C178.004 237.577 177.256 237.413 174.551 238.765C170.589 240.748 166.634 242.764 162.647 244.706C160.954 245.526 160.387 246.648 161.225 248.402C161.595 249.164 161.858 249.983 162.228 250.746C166.782 260.169 171.353 269.585 175.916 279C181.3 290.104 186.668 301.224 192.119 312.295C192.612 313.302 193.639 314.056 194.396 314.909L194.388 314.892Z" fill="#E60528" fill-opacity="0.1"/>
<path d="M89.1214 109.456V112.43C89.1214 190.532 89.1214 268.634 89.1214 346.736C89.1214 350.456 89.1214 350.448 85.2658 350.448C54.134 350.44 22.9939 350.178 -8.1379 350.571C-18.3069 350.702 -23.4778 345.392 -25.9604 337.812C-28.254 330.822 -29.7913 323.537 -31.0901 316.277C-33.8276 301.002 -33.0384 285.531 -32.5452 270.15C-32.1342 257.35 -30.7695 244.567 -29.5446 231.8C-28.6321 222.294 -27.1277 212.846 -26.1166 203.348C-24.5629 188.754 -21.7925 174.274 -22.3515 159.475C-23.0338 141.39 -26.4454 124.107 -36.6145 108.726C-38.086 106.497 -37.8804 105.088 -35.9075 103.334C-28.8705 97.0655 -20.6745 92.6077 -12.5031 88.1171C-0.172035 81.3321 13.2031 77.1693 26.5288 72.9081C28.3621 72.3181 29.4472 72.9081 30.5159 74.5716C37.1829 84.8967 45.2145 93.9352 55.9754 100.229C64.3852 105.145 73.6664 107.333 83.1942 108.71C85.0521 108.98 86.91 109.185 89.1049 109.456H89.1214ZM-18.0521 305.337C-17.2793 306.108 -16.5313 307.247 -15.479 307.837C-11.7468 309.934 -7.93238 311.876 -4.11797 313.81C-1.38048 315.195 -0.747482 314.933 0.633598 312.09C3.35465 306.501 6.08393 300.912 8.7721 295.299C15.9406 280.303 23.1008 265.299 30.2364 250.295C32.0121 246.558 31.7325 245.919 27.951 243.985C24.6792 242.305 21.4156 240.625 18.193 238.847C15.546 237.388 14.543 237.585 12.9647 240.15C12.7427 240.51 12.529 240.887 12.3481 241.273C2.47504 261.972 -7.38982 282.671 -17.2547 303.379C-17.4684 303.829 -17.6328 304.305 -18.0521 305.337Z" fill="#E60528" fill-opacity="0.1"/>
<path d="M232.655 109.546C239.528 118.535 244.427 127.59 248.603 137.079C256.331 154.648 261.419 173.127 267.157 191.368C275.526 217.984 281.774 245.14 287.364 272.453C289.855 284.613 292.42 296.774 294.368 309.025C297.484 328.593 300.534 348.211 299.695 368.148C299.481 373.196 298.552 378.113 295.675 382.497C293.998 385.053 292.058 386.651 288.852 387.299C276.496 389.79 264.198 392.592 251.892 395.338C249.483 395.878 247.65 395.395 245.94 393.494C240.662 387.602 237.185 380.645 234.332 373.425C230.419 363.543 227.008 353.464 223.275 343.507C222.165 340.557 222.124 337.738 223.029 334.772C227.345 320.612 229.112 306.058 228.939 291.333C228.767 276.353 228.257 261.357 227.345 246.402C226.662 235.241 225.24 224.121 223.917 213.01C222.511 201.242 220.604 189.541 219.329 177.765C218.113 166.498 218.483 155.222 220.086 143.971C221.097 136.842 222.659 129.893 225.503 123.313C227.484 118.732 230.098 114.422 232.663 109.554L232.655 109.546Z" fill="#E60528" fill-opacity="0.1"/>
<path d="M-41.1112 109.677C-35.8499 117.748 -31.6327 125.73 -29.6104 134.76C-26.4783 148.74 -25.7056 162.859 -27.1195 177.069C-27.8183 184.099 -29.2405 191.048 -30.2187 198.055C-30.9668 203.373 -31.5587 208.716 -32.1835 214.05C-33.0138 221.171 -33.8605 228.292 -34.5922 235.422C-35.2334 241.715 -35.9486 248.017 -36.2363 254.335C-36.7624 265.635 -37.1488 276.943 -37.3132 288.244C-37.5269 303.756 -35.9075 319.08 -31.4518 334.01C-30.4982 337.222 -30.4078 340.303 -31.6409 343.499C-36.0143 354.857 -39.9685 366.386 -44.7365 377.572C-47.1123 383.144 -50.8281 388.176 -54.1164 393.338C-55.3906 395.338 -57.3224 395.985 -59.9202 395.387C-71.8813 392.625 -83.8343 389.79 -95.8941 387.561C-102.989 386.242 -104.863 380.907 -106.408 375.499C-108.603 367.837 -107.691 359.839 -107.37 351.997C-107.082 344.925 -106.318 337.853 -105.438 330.822C-104.394 322.456 -103.227 314.097 -101.731 305.804C-99.3796 292.751 -96.9134 279.713 -94.1266 266.749C-86.5718 231.669 -77.5125 196.989 -66.1186 162.933C-61.2437 148.363 -56.1551 133.916 -48.1892 120.674C-46.0107 117.052 -43.6185 113.561 -41.1112 109.685V109.677Z" fill="#E60528" fill-opacity="0.1"/>
<path d="M152.914 355.193C168.83 355.193 184.737 355.234 200.652 355.144C203.003 355.127 203.842 355.742 203.776 358.176C203.62 363.92 203.735 369.664 203.727 375.409C203.718 379.023 202.822 379.891 199.123 379.891C167.81 379.891 136.506 379.867 105.193 379.949C102.645 379.949 101.929 379.137 101.987 376.703C102.127 370.877 102.028 365.043 102.036 359.216C102.036 355.75 102.069 355.717 105.448 355.717C121.273 355.717 137.098 355.717 152.931 355.717C152.931 355.545 152.931 355.373 152.931 355.201L152.914 355.193Z" fill="#E60528" fill-opacity="0.1"/>
<path d="M-12.1579 355.193C-11.0563 355.193 -10.1274 355.193 -9.20665 355.193C22.6075 355.365 54.4217 355.554 86.2359 355.668C88.4966 355.668 89.22 356.365 89.1707 358.618C89.031 364.699 89.0721 370.787 89.1543 376.876C89.1872 379.064 88.3815 379.924 86.1373 379.924C54.5779 379.883 23.0268 379.891 -8.53255 379.908C-10.7686 379.908 -12.1743 379.236 -12.1661 376.728C-12.1414 369.64 -12.1579 362.552 -12.1579 355.193Z" fill="#E60528" fill-opacity="0.1"/>
<path d="M54.1918 50.7425L137.131 50.7419C134.738 55.8963 132.486 61.0261 129.929 66.0001C129.452 66.9261 127.759 67.7538 126.624 67.7538C106.081 67.7702 85.5291 67.6063 64.9855 67.6309C62.5604 67.6309 61.13 66.9425 60.2175 64.7382C58.302 60.1083 56.2551 55.5275 54.1835 50.7501L54.1918 50.7425Z" fill="#E60528" fill-opacity="0.1"/>
<path d="M93.2484 110.399L97.893 110.398C97.893 111.455 97.893 112.373 97.893 113.291C97.893 200.915 97.893 288.539 97.893 376.162C97.893 376.851 98.1478 377.752 97.8108 378.17C97.2271 378.899 96.2653 379.776 95.4679 379.76C94.7198 379.752 93.61 378.801 93.3469 378.039C92.977 376.966 93.24 375.671 93.24 374.466C93.24 287.703 93.24 200.931 93.24 114.167C93.24 112.979 93.24 111.799 93.24 110.39L93.2484 110.399Z" fill="#E60528" fill-opacity="0.1"/>
<path d="M64.813 72.5972L126.772 72.5967C124.06 76.4891 121.774 79.9308 119.333 83.2496C113.759 90.8049 107.552 97.6965 99.2987 102.531C96.627 104.096 94.4814 104.121 91.8261 102.326C82.0845 95.7217 70.4686 83.2332 64.821 72.6049L64.813 72.5972Z" fill="#E60528" fill-opacity="0.1"/>
<path d="M89.656 105.613C80.1364 104.22 71.0113 102.949 62.5686 98.9421C50.0156 92.9929 41.0221 83.4135 34.5031 71.3757C34.1331 70.6956 34.24 69.0567 34.7086 68.7535C40.7426 64.8365 45.5024 59.6494 49.9005 53.7985C58.7049 74.4569 70.592 92.4848 89.6641 105.612L89.656 105.613Z" fill="#E60528" fill-opacity="0.1"/>
<path d="M294.796 413.636C294.146 414.145 293.415 415.177 292.51 415.357C286.994 416.48 281.429 417.397 275.888 418.422C270.273 419.462 264.634 420.397 259.068 421.683C257.137 422.134 256.578 421.511 256.24 419.946C255.254 415.381 254.259 410.825 253.273 406.261C253.002 405.015 252.886 403.721 252.475 402.524C251.662 400.148 252.59 398.968 254.892 398.517C262.085 397.116 269.287 395.715 276.48 394.289C280.327 393.527 284.174 392.756 287.989 391.88C289.403 391.56 290.488 391.757 290.784 393.224C292.124 399.804 293.373 406.4 294.779 413.636L294.796 413.636Z" fill="#E60528" fill-opacity="0.1"/>
<path d="M141.578 53.6023C147.004 59.2074 152.281 64.6726 157.46 70.0318C146.321 92.3701 127.339 103.129 102.735 105.268C121.511 92.3291 133.069 73.9324 141.569 53.6018L141.578 53.6023Z" fill="#E60528" fill-opacity="0.1"/>
<path d="M-102.553 412.825C-101.295 406.229 -100.078 399.615 -98.7055 393.043C-98.5987 392.543 -97.3491 391.838 -96.7737 391.953C-85.8072 394.051 -74.8572 396.223 -63.9154 398.443C-60.2079 399.197 -59.9202 399.59 -60.6189 403.212C-61.6301 408.473 -62.8632 413.693 -63.8497 418.954C-64.2936 421.33 -65.4527 422.035 -67.7627 421.544C-73.8543 420.249 -79.9541 419.003 -86.0703 417.848C-90.8465 416.946 -95.6557 416.168 -100.465 415.43C-102.092 415.185 -102.734 414.422 -102.561 412.833L-102.553 412.825Z" fill="#E60528" fill-opacity="0.1"/>
<path d="M194.396 314.892C193.64 314.04 192.62 313.294 192.119 312.278C186.669 301.199 181.301 290.087 175.916 278.984C171.345 269.568 166.783 260.153 162.228 250.729C161.858 249.967 161.595 249.147 161.225 248.385C160.379 246.64 160.954 245.517 162.648 244.69C166.635 242.747 170.589 240.74 174.551 238.749C177.256 237.396 178.012 237.56 179.36 240.346C183.898 249.696 188.354 259.087 192.859 268.445C198.219 279.574 203.595 290.71 209.004 301.813C211.051 306.025 210.994 306.37 206.949 308.484C203.62 310.229 200.307 311.983 196.969 313.72C196.295 314.072 195.588 314.343 194.388 314.876L194.396 314.892ZM195.547 309.615C198.375 308.205 200.923 306.853 203.546 305.648C205.289 304.845 205.346 303.969 204.524 302.281C196.731 286.269 189.044 270.199 181.333 254.146C179.541 250.418 177.766 246.673 175.908 242.764C172.948 244.231 170.301 245.566 167.629 246.853C166.1 247.59 165.854 248.459 166.643 250.057C170.819 258.538 174.839 267.102 178.966 275.607C184.424 286.858 189.932 298.093 195.547 309.606V309.615Z" fill="#E60528"/>
<path d="M-18.0604 305.337C-17.6411 304.305 -17.4767 303.829 -17.263 303.379C-7.39809 282.671 2.46677 261.972 12.3399 241.272C12.5207 240.887 12.7345 240.51 12.9564 240.15C14.5348 237.585 15.5377 237.388 18.1848 238.847C21.4073 240.617 24.671 242.305 27.9428 243.985C31.7243 245.927 32.0039 246.558 30.2282 250.295C23.0844 265.307 15.9323 280.303 8.76386 295.299C6.08391 300.912 3.3464 306.501 0.625336 312.089C-0.755745 314.933 -1.38874 315.195 -4.12624 313.81C-7.94066 311.876 -11.7551 309.934 -15.4873 307.837C-16.5395 307.247 -17.2876 306.107 -18.0604 305.337ZM16.4091 242.821C16.105 243.272 15.9406 243.452 15.8337 243.665C7.34989 261.611 -1.12567 279.557 -9.61768 297.503C-13.0868 304.837 -13.0539 304.747 -5.64707 308.492C-3.53435 309.557 -2.69584 309.361 -1.66003 307.156C5.4509 292.046 12.7345 277.017 19.9276 261.939C22.1143 257.35 24.2188 252.72 26.4384 247.935C22.8871 246.124 19.6481 244.476 16.3927 242.821H16.4091Z" fill="#E60528"/>
<path d="M195.547 309.615C189.924 298.101 184.424 286.867 178.966 275.616C174.839 267.11 170.819 258.547 166.643 250.066C165.853 248.459 166.1 247.599 167.629 246.861C170.301 245.575 172.948 244.239 175.907 242.772C177.773 246.681 179.541 250.418 181.333 254.155C189.044 270.208 196.73 286.269 204.524 302.289C205.346 303.977 205.28 304.854 203.545 305.657C200.923 306.862 198.366 308.214 195.547 309.623L195.547 309.615Z" fill="#E60528" fill-opacity="0.1"/>
<path d="M16.4091 242.821C19.6645 244.476 22.8952 246.124 26.4548 247.935C24.227 252.728 22.1307 257.358 19.944 261.939C12.7508 277.009 5.4673 292.046 -1.64362 307.156C-2.67943 309.361 -3.52617 309.557 -5.63067 308.492C-13.0375 304.747 -13.0704 304.837 -9.60127 297.503C-1.11749 279.557 7.35807 261.611 15.8501 243.665C15.9487 243.452 16.1131 243.264 16.4255 242.821L16.4091 242.821Z" fill="#E60528" fill-opacity="0.1"/>
<path d="M102.02 109.464C102.02 110.382 102.02 111.218 102.02 112.062C102.02 190.352 102.02 268.643 102.02 346.933C102.02 350.186 102.299 350.465 105.514 350.465C137.69 350.465 169.857 350.432 202.033 350.473C206.645 350.473 210.542 349.006 213.238 345.319C215.178 342.664 217.077 339.771 218.113 336.698C221.302 327.225 223.358 317.449 223.802 307.452C224.254 297.192 224.574 286.908 224.402 276.641C224.229 266.635 223.473 256.63 222.766 246.641C222.338 240.593 221.533 234.578 220.875 228.547C220.152 221.934 219.428 215.313 218.664 208.708C218.047 203.365 217.307 198.039 216.748 192.696C215.959 185.141 214.742 177.569 214.685 169.997C214.611 160.959 215.145 151.855 216.197 142.873C217.48 131.901 220.571 121.371 226.572 111.882C227.83 109.89 228.923 107.801 230.247 105.49C227.468 103.237 224.969 101.024 222.289 99.0573C205.313 86.5853 186.052 79.0381 166.026 73.1053C163.388 72.3268 161.908 72.8349 160.297 75.1621C154.92 82.9223 149.149 90.4121 141.496 96.1237C129.937 104.744 116.439 107.809 102.02 109.473V109.464ZM102.02 109.464C116.439 107.809 129.945 104.736 141.495 96.115C149.157 90.4034 154.928 82.9136 160.296 75.1534C161.907 72.8343 163.387 72.3181 166.026 73.0966C186.052 79.0294 205.313 86.5766 222.289 99.0486C224.969 101.015 227.476 103.228 230.246 105.481C228.923 107.792 227.829 109.882 226.572 111.873C220.571 121.362 217.48 131.9 216.197 142.865C215.145 151.846 214.619 160.95 214.684 169.989C214.742 177.56 215.95 185.124 216.748 192.687C217.307 198.03 218.047 203.357 218.663 208.699C219.428 215.312 220.151 221.925 220.875 228.538C221.532 234.57 222.338 240.584 222.765 246.632C223.472 256.621 224.229 266.626 224.401 276.632C224.574 286.9 224.253 297.176 223.801 307.443C223.366 317.441 221.302 327.217 218.113 336.69C217.077 339.771 215.178 342.655 213.238 345.31C210.549 348.998 206.645 350.473 202.033 350.465C169.857 350.415 137.689 350.448 105.513 350.456C102.299 350.456 102.02 350.178 102.02 346.925C102.02 268.634 102.02 190.344 102.02 112.053C102.02 111.217 102.02 110.382 102.02 109.456L102.02 109.464ZM54.1918 50.7425C56.2634 55.5281 58.3022 60.1088 60.2258 64.7305C61.1465 66.943 62.5687 67.6314 64.9938 67.6232C85.5374 67.6068 106.089 67.7625 126.633 67.7461C127.767 67.7461 129.461 66.9184 129.937 65.9924C132.494 61.0184 134.747 55.8886 137.139 50.7343H54.2L54.1918 50.7425ZM54.1918 50.7425L137.131 50.7419C134.738 55.8963 132.486 61.0261 129.929 66.0001C129.452 66.9261 127.759 67.7538 126.624 67.7538C106.081 67.7702 85.529 67.6063 64.9855 67.6309C62.5604 67.6309 61.13 66.9425 60.2175 64.7382C58.302 60.1083 56.2551 55.5275 54.1835 50.7501L54.1918 50.7425ZM93.2484 110.399C93.2484 111.8 93.2484 112.988 93.2484 114.176C93.2484 200.94 93.2484 287.711 93.2484 374.475C93.2484 375.671 92.9854 376.966 93.3553 378.048C93.6184 378.818 94.7282 379.76 95.4762 379.769C96.2654 379.777 97.2355 378.908 97.8192 378.179C98.1562 377.753 97.9014 376.851 97.9014 376.171C97.9014 288.547 97.9014 200.923 97.9014 113.299C97.9014 112.382 97.9014 111.456 97.9014 110.407H93.2567L93.2484 110.399ZM93.2484 110.399L97.893 110.398C97.893 111.455 97.893 112.373 97.893 113.291C97.893 200.915 97.893 288.539 97.893 376.162C97.893 376.851 98.1478 377.752 97.8108 378.17C97.2271 378.899 96.2653 379.776 95.4679 379.76C94.7198 379.752 93.61 378.801 93.3469 378.039C92.977 376.966 93.24 375.671 93.24 374.466C93.24 287.703 93.24 200.931 93.24 114.167C93.24 112.979 93.24 111.799 93.24 110.39L93.2484 110.399ZM64.813 72.5972C70.4606 83.2337 82.0765 95.7139 91.818 102.319C94.4733 104.122 96.6189 104.089 99.2906 102.524C107.544 97.6888 113.759 90.7972 119.325 83.2419C121.774 79.9231 124.06 76.4814 126.764 72.589H64.8048L64.813 72.5972ZM64.813 72.5972L126.772 72.5967C124.06 76.4891 121.774 79.9308 119.333 83.2496C113.759 90.8049 107.552 97.6965 99.2987 102.531C96.627 104.096 94.4814 104.121 91.8261 102.326C82.0845 95.7217 70.4687 83.2332 64.821 72.6049L64.813 72.5972ZM89.656 105.613C70.5839 92.4853 58.6968 74.4574 49.8924 53.799C45.5025 59.6499 40.7345 64.8288 34.7005 68.754C34.2319 69.0572 34.1333 70.7043 34.495 71.3762C41.014 83.414 50.0075 92.9934 62.5605 98.9426C71.0032 102.942 80.1282 104.22 89.6478 105.613H89.656ZM89.656 105.613C80.1364 104.22 71.0113 102.949 62.5686 98.9421C50.0156 92.9929 41.0221 83.4135 34.5031 71.3757C34.1331 70.6956 34.24 69.0567 34.7086 68.7535C40.7426 64.8365 45.5024 59.6494 49.9005 53.7985C58.7049 74.4569 70.592 92.4848 89.6641 105.612L89.656 105.613ZM294.796 413.636C293.39 406.401 292.14 399.804 290.8 393.224C290.504 391.757 289.411 391.56 288.005 391.88C284.183 392.757 280.335 393.519 276.496 394.289C269.303 395.715 262.11 397.116 254.909 398.518C252.607 398.968 251.67 400.14 252.492 402.525C252.903 403.721 253.018 405.016 253.289 406.261C254.276 410.826 255.27 415.382 256.257 419.946C256.594 421.511 257.153 422.126 259.085 421.683C264.642 420.397 270.29 419.455 275.904 418.422C281.445 417.398 287.011 416.488 292.527 415.357C293.431 415.177 294.163 414.145 294.812 413.636H294.796ZM294.796 413.636C294.146 414.145 293.415 415.177 292.51 415.357C286.994 416.48 281.429 417.397 275.888 418.422C270.273 419.462 264.634 420.397 259.068 421.683C257.137 422.134 256.578 421.511 256.24 419.946C255.254 415.381 254.259 410.825 253.273 406.261C253.002 405.015 252.886 403.721 252.475 402.524C251.662 400.148 252.59 398.968 254.892 398.517C262.085 397.116 269.287 395.715 276.48 394.289C280.327 393.527 284.174 392.756 287.989 391.88C289.403 391.56 290.488 391.757 290.784 393.224C292.124 399.804 293.373 406.4 294.779 413.636L294.796 413.636ZM141.578 53.6023C133.07 73.9329 121.519 92.3296 102.743 105.269C127.348 103.13 146.321 92.3706 157.469 70.0323C152.29 64.6731 147.004 59.2156 141.586 53.6023H141.578ZM141.578 53.6023C147.004 59.2074 152.281 64.6726 157.46 70.0318C146.321 92.3701 127.339 103.129 102.735 105.268C121.511 92.3291 133.069 73.9324 141.569 53.6018L141.578 53.6023ZM-102.553 412.825C-102.725 414.423 -102.084 415.177 -100.456 415.423C-95.6471 416.16 -90.8462 416.939 -86.0618 417.84C-79.9456 418.996 -73.8458 420.241 -67.7542 421.536C-65.4442 422.028 -64.2933 421.323 -63.8412 418.947C-62.8547 413.686 -61.6216 408.466 -60.6105 403.205C-59.9117 399.591 -60.1994 399.19 -63.907 398.436C-74.8487 396.215 -85.7987 394.043 -96.7652 391.946C-97.3488 391.831 -98.5984 392.536 -98.697 393.035C-100.07 399.607 -101.287 406.22 -102.544 412.817L-102.553 412.825ZM-102.553 412.825C-101.295 406.229 -100.078 399.615 -98.7055 393.043C-98.5987 392.543 -97.3491 391.838 -96.7737 391.953C-85.8072 394.051 -74.8572 396.222 -63.9154 398.443C-60.2079 399.197 -59.9202 399.59 -60.6189 403.212C-61.6301 408.473 -62.8632 413.693 -63.8497 418.954C-64.2936 421.33 -65.4527 422.035 -67.7627 421.544C-73.8543 420.249 -79.9541 419.003 -86.0703 417.848C-90.8465 416.946 -95.6557 416.168 -100.465 415.43C-102.092 415.185 -102.734 414.423 -102.561 412.833L-102.553 412.825ZM195.547 309.615C198.375 308.205 200.923 306.853 203.546 305.648C205.289 304.845 205.346 303.969 204.524 302.281C196.731 286.269 189.044 270.199 181.333 254.146C179.541 250.418 177.766 246.673 175.908 242.764C172.948 244.231 170.301 245.566 167.629 246.853C166.1 247.59 165.854 248.459 166.643 250.057C170.819 258.538 174.839 267.102 178.966 275.607C184.424 286.858 189.932 298.093 195.547 309.606V309.615ZM195.547 309.615C189.924 298.101 184.424 286.867 178.966 275.616C174.839 267.11 170.819 258.547 166.643 250.066C165.853 248.459 166.1 247.599 167.629 246.861C170.301 245.575 172.948 244.239 175.907 242.772C177.774 246.681 179.541 250.418 181.333 254.155C189.044 270.208 196.73 286.269 204.524 302.289C205.346 303.977 205.28 304.854 203.545 305.657C200.923 306.862 198.366 308.214 195.547 309.623L195.547 309.615ZM16.4091 242.821C16.105 243.272 15.9405 243.452 15.8337 243.665C7.34989 261.611 -1.12567 279.557 -9.61768 297.503C-13.0868 304.837 -13.0539 304.747 -5.64707 308.492C-3.53435 309.557 -2.69584 309.361 -1.66003 307.156C5.4509 292.046 12.7345 277.017 19.9276 261.939C22.1143 257.35 24.2188 252.72 26.4384 247.935C22.8871 246.124 19.6481 244.476 16.3927 242.821H16.4091ZM16.4091 242.821C19.6645 244.476 22.8952 246.124 26.4548 247.935C24.227 252.728 22.1307 257.358 19.944 261.939C12.7508 277.009 5.4673 292.046 -1.64362 307.156C-2.67943 309.361 -3.52617 309.557 -5.63067 308.492C-13.0375 304.747 -13.0704 304.837 -9.60127 297.503C-1.11749 279.557 7.35807 261.611 15.8501 243.665C15.9487 243.452 16.1131 243.264 16.4255 242.821L16.4091 242.821ZM-28.0318 344.786C-30.0787 350.866 -32.101 357.144 -34.296 363.355C-38.3323 374.803 -42.5907 386.283 -50.7127 395.502C-54.6833 400.009 -56.7221 404.754 -57.6017 410.432C-58.1196 413.776 -59.1883 417.029 -59.9939 420.331C-61.2106 425.297 -63.1178 426.576 -68.0666 425.625C-79.5428 423.429 -91.0189 421.216 -102.487 418.996C-106.91 418.135 -107.822 416.513 -106.934 412.186C-105.652 405.934 -104.386 399.673 -103.547 393.355C-103.292 391.454 -103.909 388.93 -105.085 387.43C-109.589 381.711 -111.776 375.188 -111.587 368.157C-111.234 355.341 -111.094 342.426 -109.4 329.749C-106.893 310.951 -103.473 292.251 -99.7904 273.641C-94.7018 247.96 -88.6184 222.491 -81.1622 197.375C-74.487 174.873 -67.9022 152.297 -58.4484 130.745C-52.9734 118.265 -45.3528 107.096 -35.2989 97.779C-32.3723 95.0748 -28.9032 92.9114 -25.5327 90.7317C-11.1382 81.4145 4.62914 75.0638 20.9884 70.229C30.3846 67.4511 37.4051 61.633 43.8008 54.7004C44.3845 54.0694 45.0422 53.4548 45.4121 52.7009C48.5277 46.301 53.9123 45.6864 60.3738 45.7602C86.6061 46.0634 112.847 45.8995 139.087 45.8421C140.838 45.8421 141.858 46.4813 142.943 47.7924C146.823 52.4715 150.695 57.1833 154.887 61.5756C160.099 67.0332 167.218 68.9507 174.157 71.196C187.022 75.3506 199.452 80.4476 211.339 86.9868C223.169 93.4932 232.705 102.048 240.44 113.152C249.162 125.673 254.498 139.587 259.364 153.764C269.468 183.207 278.658 212.936 285.276 243.379C289.156 261.243 293.094 279.099 296.456 297.07C298.898 310.123 300.789 323.308 302.235 336.51C303.337 346.614 303.649 356.832 303.773 367.01C303.863 374.639 302.137 381.932 296.711 387.873C295.478 389.217 295.034 390.774 295.453 392.822C296.859 399.648 297.977 406.54 299.169 413.415C299.728 416.652 298.553 418.34 295.1 418.987C287.471 420.422 279.818 421.741 272.172 423.126C267.478 423.978 262.817 425.084 258.082 425.641C254.44 426.076 252.985 424.609 252.221 421.061C251.012 415.406 249.804 409.752 248.472 404.131C248.168 402.844 247.65 401.369 246.737 400.492C237.637 391.79 232.425 380.776 228.027 369.321C225.528 362.822 223.522 356.127 221.253 349.539C220.678 347.859 219.93 346.237 219.206 344.458C217.389 346.515 215.778 348.441 214.052 350.252C213.23 351.112 212.293 352.112 211.224 352.423C208.075 353.333 207.689 355.414 207.788 358.274C207.993 364.101 207.845 369.935 207.845 375.77C207.845 382.038 205.823 384.087 199.575 384.087C147.439 384.087 95.3036 384.095 43.1761 384.095C26.0523 384.095 8.93678 383.915 -8.17874 384.177C-14.7882 384.276 -16.5721 380.793 -16.6461 375.532C-16.7283 369.796 -16.4981 364.043 -16.1693 358.315C-16.0131 355.587 -16.9338 354.087 -19.2849 352.538C-22.4252 350.473 -24.9983 347.54 -28.0235 344.794L-28.0318 344.786ZM89.1134 109.464C86.9185 109.186 85.0524 108.981 83.2027 108.719C73.6749 107.35 64.3855 105.154 55.9839 100.237C45.223 93.9439 37.1832 84.9054 30.5244 74.5803C29.4475 72.9168 28.3706 72.3268 26.5373 72.9168C13.2116 77.178 -0.163543 81.3408 -12.4946 88.1258C-20.666 92.6246 -28.8703 97.0742 -35.899 103.343C-37.872 105.105 -38.0775 106.514 -36.606 108.735C-26.4287 124.124 -23.0171 141.398 -22.343 159.484C-21.784 174.275 -24.5544 188.763 -26.1081 203.357C-27.1193 212.855 -28.6237 222.303 -29.5362 231.808C-30.761 244.575 -32.1257 257.359 -32.5367 270.159C-33.03 285.54 -33.8191 301.011 -31.0816 316.286C-29.7828 323.546 -28.2455 330.831 -25.9519 337.821C-23.4611 345.401 -18.2984 350.703 -8.12942 350.58C23.0024 350.186 54.1343 350.449 85.2743 350.457C89.1216 350.457 89.1299 350.465 89.1299 346.745C89.1299 268.643 89.1299 190.541 89.1299 112.439V109.464H89.1134ZM232.647 109.546C230.082 114.414 227.468 118.724 225.487 123.305C222.642 129.885 221.089 136.834 220.069 143.963C218.466 155.223 218.096 166.498 219.313 177.757C220.579 189.533 222.494 201.243 223.9 213.002C225.224 224.114 226.646 235.234 227.328 246.395C228.241 261.35 228.75 276.337 228.923 291.325C229.096 306.051 227.32 320.604 223.012 334.764C222.108 337.731 222.149 340.558 223.259 343.5C226.999 353.456 230.403 363.535 234.316 373.418C237.177 380.637 240.646 387.586 245.923 393.486C247.633 395.387 249.458 395.871 251.875 395.33C264.182 392.585 276.48 389.782 288.836 387.291C292.042 386.644 293.982 385.046 295.659 382.489C298.536 378.105 299.465 373.188 299.679 368.141C300.526 348.211 297.467 328.594 294.352 309.017C292.403 296.766 289.83 284.606 287.348 272.445C281.758 245.133 275.51 217.976 267.141 191.36C261.403 173.119 256.315 154.649 248.587 137.072C244.411 127.582 239.511 118.527 232.639 109.538L232.647 109.546ZM-41.1191 109.686C-43.6265 113.562 -46.0187 117.052 -48.1972 120.674C-56.163 133.917 -61.2517 148.364 -66.1265 162.934C-77.5122 196.998 -86.5797 231.677 -94.1345 266.75C-96.9296 279.714 -99.3876 292.759 -101.739 305.805C-103.235 314.098 -104.402 322.456 -105.446 330.823C-106.318 337.854 -107.09 344.925 -107.378 351.997C-107.699 359.839 -108.611 367.837 -106.416 375.499C-104.871 380.899 -102.996 386.242 -95.902 387.562C-83.8422 389.799 -71.8893 392.634 -59.9281 395.387C-57.3304 395.985 -55.3985 395.338 -54.1243 393.339C-50.836 388.176 -47.1203 383.145 -44.7445 377.572C-39.9765 366.387 -36.0223 354.857 -31.6489 343.5C-30.4158 340.304 -30.5062 337.223 -31.4598 334.01C-35.9072 319.072 -37.5349 303.756 -37.3212 288.244C-37.165 276.936 -36.7704 265.627 -36.2443 254.335C-35.9483 248.017 -35.2413 241.716 -34.6001 235.422C-33.8685 228.293 -33.0217 221.172 -32.1915 214.051C-31.5667 208.716 -30.9748 203.373 -30.2267 198.055C-29.2402 191.057 -27.8262 184.1 -27.1275 177.069C-25.7135 162.86 -26.4945 148.741 -29.6184 134.761C-31.6407 125.73 -35.8579 117.749 -41.1191 109.677V109.686ZM152.906 355.193C152.906 355.365 152.906 355.537 152.906 355.709C137.081 355.709 121.256 355.709 105.423 355.709C102.053 355.709 102.02 355.742 102.012 359.209C102.012 365.043 102.102 370.869 101.962 376.696C101.905 379.129 102.628 379.949 105.168 379.941C136.481 379.859 167.786 379.891 199.098 379.883C202.798 379.883 203.694 379.015 203.702 375.401C203.718 369.656 203.595 363.912 203.751 358.168C203.817 355.742 202.979 355.128 200.627 355.136C184.72 355.226 168.805 355.185 152.89 355.185L152.906 355.193ZM-12.1658 355.193C-12.1658 362.56 -12.1493 369.64 -12.174 376.728C-12.1822 379.228 -10.7765 379.908 -8.54045 379.908C23.0189 379.883 54.57 379.883 86.1293 379.924C88.3735 379.924 89.171 379.064 89.1463 376.876C89.0641 370.787 89.0312 364.707 89.1627 358.619C89.2121 356.357 88.4886 355.677 86.2279 355.668C54.4138 355.554 22.5996 355.365 -9.21455 355.193C-10.1353 355.193 -11.0642 355.193 -12.1658 355.193ZM194.388 314.892C195.588 314.36 196.295 314.081 196.969 313.737C200.298 312 203.619 310.246 206.949 308.5C210.993 306.386 211.051 306.042 209.004 301.83C203.595 290.718 198.227 279.59 192.858 268.462C188.345 259.104 183.898 249.713 179.36 240.363C178.004 237.577 177.256 237.413 174.551 238.765C170.589 240.748 166.634 242.764 162.647 244.706C160.954 245.526 160.387 246.648 161.225 248.402C161.595 249.164 161.858 249.983 162.228 250.746C166.782 260.169 171.353 269.585 175.916 279C181.3 290.104 186.668 301.224 192.119 312.295C192.612 313.302 193.639 314.056 194.396 314.909L194.388 314.892ZM89.1214 109.456V112.43C89.1214 190.532 89.1214 268.634 89.1214 346.736C89.1214 350.456 89.1214 350.448 85.2658 350.448C54.134 350.44 22.9939 350.178 -8.1379 350.571C-18.3069 350.702 -23.4778 345.392 -25.9604 337.812C-28.254 330.822 -29.7913 323.537 -31.0901 316.277C-33.8276 301.002 -33.0384 285.531 -32.5452 270.15C-32.1342 257.35 -30.7695 244.567 -29.5446 231.8C-28.6321 222.294 -27.1277 212.846 -26.1166 203.348C-24.5629 188.754 -21.7925 174.274 -22.3515 159.475C-23.0338 141.39 -26.4454 124.107 -36.6145 108.726C-38.086 106.497 -37.8804 105.088 -35.9075 103.334C-28.8705 97.0655 -20.6745 92.6077 -12.5031 88.1171C-0.172035 81.3321 13.2031 77.1693 26.5288 72.9081C28.3621 72.3181 29.4472 72.9081 30.5159 74.5716C37.1829 84.8967 45.2145 93.9352 55.9754 100.229C64.3852 105.145 73.6664 107.333 83.1942 108.71C85.0521 108.98 86.91 109.185 89.1049 109.456H89.1214ZM-18.0521 305.337C-17.2793 306.108 -16.5313 307.247 -15.479 307.837C-11.7468 309.934 -7.93238 311.876 -4.11797 313.81C-1.38048 315.195 -0.747481 314.933 0.633598 312.09C3.35465 306.501 6.08393 300.912 8.7721 295.299C15.9406 280.303 23.1008 265.299 30.2364 250.295C32.012 246.558 31.7325 245.919 27.951 243.985C24.6792 242.305 21.4156 240.625 18.193 238.847C15.546 237.388 14.543 237.585 12.9647 240.15C12.7427 240.51 12.529 240.887 12.3481 241.273C2.47504 261.972 -7.38981 282.671 -17.2547 303.379C-17.4684 303.829 -17.6328 304.305 -18.0521 305.337ZM232.655 109.546C239.528 118.535 244.427 127.59 248.603 137.079C256.331 154.648 261.419 173.127 267.157 191.368C275.526 217.984 281.774 245.14 287.364 272.453C289.855 284.613 292.42 296.774 294.368 309.025C297.484 328.593 300.534 348.211 299.695 368.148C299.481 373.196 298.552 378.113 295.675 382.497C293.998 385.053 292.058 386.651 288.852 387.299C276.496 389.79 264.198 392.592 251.892 395.338C249.483 395.878 247.65 395.395 245.94 393.494C240.662 387.602 237.185 380.645 234.332 373.425C230.419 363.543 227.008 353.464 223.275 343.507C222.166 340.557 222.124 337.738 223.029 334.772C227.345 320.612 229.112 306.058 228.939 291.333C228.767 276.353 228.257 261.357 227.345 246.402C226.662 235.241 225.24 224.121 223.917 213.01C222.511 201.242 220.604 189.541 219.329 177.765C218.113 166.498 218.483 155.222 220.086 143.971C221.097 136.842 222.659 129.893 225.503 123.313C227.484 118.732 230.098 114.422 232.663 109.554L232.655 109.546ZM-41.1112 109.677C-35.8499 117.748 -31.6327 125.73 -29.6104 134.76C-26.4783 148.74 -25.7056 162.859 -27.1195 177.069C-27.8183 184.099 -29.2405 191.048 -30.2187 198.055C-30.9668 203.373 -31.5587 208.716 -32.1835 214.05C-33.0138 221.171 -33.8605 228.292 -34.5922 235.422C-35.2334 241.715 -35.9486 248.017 -36.2363 254.335C-36.7624 265.635 -37.1488 276.943 -37.3132 288.244C-37.5269 303.756 -35.9075 319.08 -31.4518 334.01C-30.4982 337.222 -30.4078 340.303 -31.6409 343.499C-36.0143 354.857 -39.9685 366.386 -44.7365 377.572C-47.1123 383.144 -50.8281 388.176 -54.1164 393.338C-55.3906 395.338 -57.3224 395.985 -59.9202 395.387C-71.8813 392.625 -83.8343 389.79 -95.8941 387.561C-102.989 386.242 -104.863 380.907 -106.408 375.499C-108.603 367.837 -107.691 359.839 -107.37 351.997C-107.082 344.925 -106.318 337.853 -105.438 330.822C-104.394 322.456 -103.227 314.097 -101.731 305.804C-99.3796 292.751 -96.9134 279.713 -94.1266 266.749C-86.5718 231.669 -77.5125 196.989 -66.1186 162.933C-61.2437 148.363 -56.1551 133.916 -48.1892 120.674C-46.0107 117.052 -43.6185 113.561 -41.1112 109.685V109.677ZM152.914 355.193C168.83 355.193 184.737 355.234 200.652 355.144C203.003 355.127 203.842 355.742 203.776 358.176C203.62 363.92 203.735 369.664 203.727 375.409C203.718 379.023 202.822 379.891 199.123 379.891C167.81 379.891 136.506 379.867 105.193 379.949C102.645 379.949 101.929 379.137 101.987 376.703C102.127 370.877 102.028 365.043 102.036 359.216C102.036 355.75 102.069 355.717 105.448 355.717C121.273 355.717 137.098 355.717 152.931 355.717C152.931 355.545 152.931 355.373 152.931 355.201L152.914 355.193ZM-12.1579 355.193C-11.0563 355.193 -10.1274 355.193 -9.20665 355.193C22.6075 355.365 54.4217 355.554 86.2359 355.668C88.4966 355.668 89.22 356.365 89.1707 358.618C89.031 364.699 89.0721 370.787 89.1543 376.876C89.1872 379.064 88.3815 379.924 86.1373 379.924C54.5779 379.883 23.0268 379.891 -8.53255 379.908C-10.7686 379.908 -12.1743 379.236 -12.1661 376.728C-12.1415 369.64 -12.1579 362.552 -12.1579 355.193ZM194.396 314.892C193.64 314.04 192.62 313.294 192.119 312.278C186.669 301.199 181.3 290.087 175.916 278.984C171.345 269.568 166.783 260.153 162.228 250.729C161.858 249.967 161.595 249.147 161.225 248.385C160.379 246.64 160.954 245.517 162.648 244.69C166.635 242.747 170.589 240.74 174.551 238.749C177.256 237.396 178.012 237.56 179.36 240.346C183.898 249.696 188.354 259.087 192.859 268.445C198.219 279.574 203.595 290.71 209.004 301.813C211.051 306.025 210.994 306.37 206.949 308.484C203.62 310.229 200.307 311.983 196.969 313.72C196.295 314.072 195.588 314.343 194.388 314.876L194.396 314.892ZM-18.0604 305.337C-17.6411 304.305 -17.4767 303.829 -17.263 303.379C-7.39809 282.671 2.46677 261.972 12.3399 241.272C12.5207 240.887 12.7345 240.51 12.9564 240.15C14.5348 237.585 15.5377 237.388 18.1848 238.847C21.4073 240.617 24.671 242.305 27.9428 243.985C31.7243 245.927 32.0039 246.558 30.2282 250.295C23.0844 265.307 15.9323 280.303 8.76386 295.299C6.08391 300.912 3.3464 306.501 0.625336 312.089C-0.755746 314.933 -1.38874 315.195 -4.12624 313.81C-7.94066 311.876 -11.7551 309.934 -15.4873 307.837C-16.5395 307.247 -17.2876 306.107 -18.0604 305.337Z" stroke="#E60528"/>
<path d="M186.163 177.5L185.539 173.756H182.611L182.035 177.5H179.947L182.659 161.564H185.563L188.275 177.5H186.163ZM182.899 171.908H185.251L184.123 164.924H184.027L182.899 171.908Z" fill="#E60528"/>
<path d="M171.8 177.5V161.564H176.144C177.248 161.564 178.024 161.844 178.472 162.404C178.936 162.964 179.168 163.748 179.168 164.756V166.388C179.168 167.876 178.632 168.748 177.56 169.004V169.1C178.168 169.212 178.624 169.468 178.928 169.868C179.232 170.252 179.384 170.876 179.384 171.74V174.764C179.384 175.676 179.16 176.364 178.712 176.828C178.28 177.276 177.528 177.5 176.456 177.5H171.8ZM177.248 171.596C177.248 171.036 177.128 170.636 176.888 170.396C176.664 170.156 176.28 170.036 175.736 170.036H173.912V175.628H175.808C176.32 175.628 176.688 175.5 176.912 175.244C177.136 174.988 177.248 174.604 177.248 174.092V171.596ZM177.152 165.068C177.152 164.524 177.048 164.116 176.84 163.844C176.648 163.572 176.28 163.436 175.736 163.436H173.912V168.236H175.76C176.176 168.236 176.512 168.116 176.768 167.876C177.024 167.636 177.152 167.212 177.152 166.604V165.068Z" fill="#E60528"/>
<path d="M168.676 177.5L166.396 170.612H166.3L165.148 172.868V177.5H162.964V161.564H165.148V168.716H165.244L168.7 161.564H170.884L167.884 167.876L170.86 177.5H168.676Z" fill="#E60528"/>
<path d="M159.621 170.996H161.661V173.66C161.661 175.004 161.349 176.004 160.725 176.66C160.101 177.316 159.189 177.644 157.989 177.644C156.741 177.644 155.805 177.3 155.181 176.612C154.557 175.908 154.245 174.908 154.245 173.612V165.404C154.245 164.06 154.557 163.06 155.181 162.404C155.805 161.748 156.717 161.42 157.917 161.42C159.133 161.42 160.061 161.748 160.701 162.404C161.341 163.06 161.661 164.052 161.661 165.38V167.276H159.621V165.38C159.621 164.756 159.485 164.276 159.213 163.94C158.941 163.604 158.533 163.436 157.989 163.436C156.917 163.436 156.381 164.076 156.381 165.356V173.78C156.381 174.388 156.509 174.852 156.765 175.172C157.021 175.492 157.429 175.652 157.989 175.652C159.077 175.652 159.621 175.028 159.621 173.78V170.996Z" fill="#E60528"/>
<path d="M153.014 173.66C153.014 175.004 152.686 176.004 152.03 176.66C151.39 177.316 150.47 177.644 149.27 177.644C148.022 177.644 147.07 177.3 146.414 176.612C145.774 175.908 145.454 174.908 145.454 173.612V165.524C145.454 164.228 145.782 163.22 146.438 162.5C147.11 161.78 148.046 161.42 149.246 161.42C150.446 161.42 151.374 161.788 152.03 162.524C152.686 163.26 153.014 164.276 153.014 165.572V173.66ZM150.902 165.38C150.902 164.756 150.758 164.276 150.47 163.94C150.182 163.604 149.766 163.436 149.222 163.436C148.71 163.436 148.31 163.604 148.022 163.94C147.734 164.26 147.59 164.732 147.59 165.356V173.756C147.59 175.02 148.142 175.652 149.246 175.652C149.774 175.652 150.182 175.5 150.47 175.196C150.758 174.892 150.902 174.42 150.902 173.78V165.38Z" fill="#E60528"/>
<path d="M142.323 177.5V168.692C142.323 167.716 142.347 166.564 142.395 165.236H142.299L139.611 177.5H137.619L134.931 165.236H134.835C134.883 166.564 134.907 167.716 134.907 168.692V177.5H132.987V161.564H136.251L138.603 173.252H138.699L141.051 161.564H144.243V177.5H142.323Z" fill="#E60528"/>
</svg>
