<svg width="317" height="440" viewBox="0 0 317 440" fill="none" xmlns="http://www.w3.org/2000/svg">
<path fill-rule="evenodd" clip-rule="evenodd" d="M48.7628 41.4641C48.7571 41.4657 48.7358 41.471 48.7003 41.4799C47.3292 41.8237 24.1843 47.6268 -4.61766 61.9807C-16.3854 67.8308 -25.2061 77.4149 -29.4608 88.9698C-46.3964 134.837 -102.932 290.921 -119.39 373.133L-119.514 373.797L-118.871 374.066C-118.622 374.17 -92.8657 384.397 -64.5358 390.579L-63.8509 390.724L-12.2346 258.559V399.52H203.757V258.559L255.374 390.724L256.059 390.579C284.388 384.376 310.145 374.17 310.394 374.066L311.037 373.797L310.913 373.133H310.933C294.496 290.942 237.961 134.837 221.004 88.9698C216.75 77.4149 207.929 67.8308 196.161 61.9807C166.586 47.2519 143.009 41.5056 142.781 41.4641L142.386 41.3604L142.075 41.6093C122.836 56.4004 96.083 55.2801 95.7717 55.2594H94.1736C94.1682 55.2594 94.1499 55.26 94.121 55.2609C92.8141 55.302 68.2632 56.0741 49.4685 41.6093L49.1572 41.3604L48.7628 41.4641Z" fill="#E60528"/>
<path d="M310.933 373.133C294.496 290.942 237.961 134.837 221.004 88.9698C216.75 77.4149 207.929 67.8308 196.161 61.9807C166.586 47.2519 143.009 41.5056 142.781 41.4641L142.386 41.3604L142.075 41.6093C122.836 56.4004 96.083 55.2801 95.7717 55.2594H94.1736C93.9245 55.2594 68.6871 56.4004 49.4685 41.6093L49.1572 41.3604L48.7628 41.4641C48.5345 41.5263 24.9367 47.2519 -4.61767 61.9807C-16.3854 67.8308 -25.2061 77.4149 -29.4608 88.9698C-46.3964 134.837 -102.932 290.921 -119.39 373.133L-119.514 373.797L-118.871 374.066C-118.622 374.17 -92.8657 384.397 -64.5358 390.579L-63.8509 390.724L-12.2346 258.559V399.52H203.757V258.559L255.374 390.724L256.058 390.579C284.388 384.376 310.145 374.17 310.394 374.066L311.037 373.797L310.913 373.133H310.933ZM195.414 63.4536C199.897 65.6941 203.944 68.4946 207.451 71.7516C207.016 71.876 206.601 72.0627 206.206 72.3324C203.633 74.1372 201.848 79.6553 200.893 88.7208C195.933 85.049 176.548 71.9175 147.367 66.3371C150.397 59.5328 152.348 52.6041 153.614 46.3391C163.286 49.4508 178.333 54.9482 195.414 63.4329V63.4536ZM94.2151 56.919H95.7302C96 56.919 121.798 58.0392 141.349 44.1817C140.124 50.0524 138.443 55.1557 136.43 59.6158C98.9679 73.3074 59.9495 60.9642 55.8816 59.6158C52.8515 53.1227 51.0873 47.3141 50.2987 44.3061C69.7456 58.0392 93.9868 56.9605 94.2151 56.9397V56.919ZM135.454 61.7318C129.477 73.8675 121.175 80.7756 114.243 84.6549C99.7565 92.7661 80.8492 90.5049 69.3098 79.2612C63.9343 74.0335 59.8872 67.6441 56.8986 61.6696C62.2325 63.3084 78.2964 67.6648 98.1377 67.6648C109.76 67.6648 122.669 66.1504 135.475 61.7318H135.454ZM48.3477 43.2689C49.3855 47.5631 54.7609 67.4159 68.1475 80.4229C75.3701 87.4554 85.3322 91.1272 95.4189 91.1272C102.185 91.1272 108.992 89.4884 115.053 86.0862C125.264 80.3607 138.381 68.3079 143.237 43.2689C144.628 43.6215 147.679 44.4721 152.037 45.8412C147.222 69.9675 135.745 86.8745 118.871 94.7368C106.066 100.711 94.5057 99.4252 94.4019 99.4252H94.2981C74.5191 99.4252 59.4099 90.2767 49.3855 72.2702C42.827 60.4871 40.7308 48.5381 40.295 45.5923C44.2591 44.3476 47.0402 43.6008 48.327 43.2689H48.3477ZM-3.8705 63.4536C13.667 54.72 29.0876 49.1604 38.6969 46.0902C39.1328 48.87 40.6478 57.0642 44.5912 66.2542C15.0576 71.8345 -4.51389 85.1735 -9.39119 88.7623C-10.3459 79.6553 -12.1308 74.1372 -14.7043 72.3117C-15.0987 72.042 -15.5138 71.8345 -15.9289 71.7308C-12.4213 68.4739 -8.37423 65.6733 -3.89126 63.4329L-3.8705 63.4536ZM-64.8679 388.795C-90.2921 383.173 -113.496 374.357 -117.605 372.759C-116.899 369.253 -116.111 365.602 -115.26 361.827C-110.382 363.715 -86.4733 372.697 -60.9868 378.9L-64.8471 388.795H-64.8679ZM-60.4057 377.344C-86.2865 371.058 -110.631 361.848 -114.907 360.188C-95.626 275.59 -43.9681 133.032 -27.9042 89.5299C-25.6835 83.5139 -22.1759 78.058 -17.6307 73.4111C-16.8836 73.1622 -16.2609 73.2452 -15.6383 73.6808C-10.6365 77.1867 -10.0761 99.7986 -10.2836 108.221L-12.2138 253.995L-60.4057 377.365V377.344ZM202.118 397.84H-10.5742V387.675H202.118V397.84ZM202.118 386.015H-10.5742V254.14L-8.62328 108.242C-8.62328 108.242 -8.43649 100.442 -9.05912 92.2475C-9.10063 91.7288 -9.14214 91.2102 -9.18365 90.7123C-6.40255 88.5549 13.7085 73.7016 45.2968 67.81C46.0855 69.5319 46.9572 71.2744 47.9119 73.017C55.0099 85.7958 68.7909 101.043 94.2359 101.064C94.5264 101.106 95.6679 101.209 97.4943 101.209C101.936 101.209 110.321 100.525 119.494 96.272C132.86 90.0693 141.307 79.2819 146.682 67.8723C177.835 73.7431 197.738 88.3267 200.727 90.6501C200.686 91.1687 200.644 91.7081 200.603 92.2475C199.98 100.442 200.167 108.159 200.167 108.221L202.097 254.14V386.015H202.118ZM203.757 253.933L201.827 108.2C201.619 99.7986 202.201 77.1867 207.182 73.6808C207.804 73.2452 208.448 73.1622 209.195 73.4111C213.74 78.058 217.248 83.5139 219.468 89.5299C235.553 133.094 287.356 276.088 306.575 360.644C289.017 366.349 257.179 375.788 251.97 377.344L203.778 253.974L203.757 253.933ZM256.432 388.795L252.551 378.879C258.134 377.219 289.452 367.926 306.928 362.262C307.737 365.872 308.484 369.378 309.169 372.78C305.06 374.377 281.856 383.194 256.432 388.816V388.795Z" stroke="white" stroke-width="3"/>
<path d="M175.124 197.127L163.892 198.999L163.892 207.783L175.124 209.511L175.124 215.775L127.316 207.639L127.316 198.927L175.124 190.791L175.124 197.127ZM158.348 206.919L158.348 199.863L137.396 203.247L137.396 203.535L158.348 206.919Z" fill="white"/>
<path d="M175.124 240.218L127.316 240.218L127.316 227.186C127.316 223.874 128.156 221.546 129.836 220.202C131.516 218.81 133.868 218.114 136.892 218.114L141.788 218.114C146.252 218.114 148.868 219.722 149.636 222.938L149.924 222.938C150.26 221.114 151.028 219.746 152.228 218.834C153.38 217.922 155.252 217.466 157.844 217.466L166.916 217.466C169.652 217.466 171.716 218.138 173.108 219.482C174.452 220.778 175.124 223.034 175.124 226.25L175.124 240.218ZM157.412 223.874C155.732 223.874 154.532 224.234 153.812 224.954C153.092 225.626 152.732 226.778 152.732 228.41L152.732 233.882L169.508 233.882L169.508 228.194C169.508 226.658 169.124 225.554 168.356 224.882C167.588 224.21 166.436 223.874 164.9 223.874L157.412 223.874ZM137.828 224.162C136.196 224.162 134.972 224.474 134.156 225.098C133.34 225.674 132.932 226.778 132.932 228.41L132.932 233.882L147.332 233.882L147.332 228.338C147.332 227.09 146.972 226.082 146.252 225.314C145.532 224.546 144.26 224.162 142.436 224.162L137.828 224.162Z" fill="white"/>
<path d="M175.124 249.59L154.46 256.43L154.46 256.718L161.228 260.174L175.124 260.174L175.124 266.726L127.316 266.726L127.316 260.174L148.772 260.174L148.772 259.886L127.316 249.518L127.316 242.966L146.252 251.966L175.124 243.038L175.124 249.59Z" fill="white"/>
<path d="M155.612 276.754L155.612 270.634L163.604 270.634C167.636 270.634 170.636 271.57 172.604 273.442C174.572 275.314 175.556 278.05 175.556 281.65C175.556 285.394 174.524 288.202 172.46 290.074C170.348 291.946 167.348 292.882 163.46 292.882L138.836 292.882C134.804 292.882 131.804 291.946 129.836 290.074C127.868 288.202 126.884 285.466 126.884 281.866C126.884 278.218 127.868 275.434 129.836 273.514C131.804 271.594 134.78 270.634 138.764 270.634L144.452 270.634L144.452 276.754L138.764 276.754C136.892 276.754 135.452 277.162 134.444 277.978C133.436 278.794 132.932 280.018 132.932 281.65C132.932 284.866 134.852 286.474 138.692 286.474L163.964 286.474C165.788 286.474 167.18 286.09 168.14 285.322C169.1 284.554 169.58 283.33 169.58 281.65C169.58 278.386 167.708 276.754 163.964 276.754L155.612 276.754Z" fill="white"/>
<path d="M163.604 296.576C167.636 296.576 170.636 297.56 172.604 299.528C174.572 301.448 175.556 304.208 175.556 307.808C175.556 311.552 174.524 314.408 172.46 316.376C170.348 318.296 167.348 319.256 163.46 319.256L139.196 319.256C135.308 319.256 132.284 318.272 130.124 316.304C127.964 314.288 126.884 311.48 126.884 307.88C126.884 304.28 127.988 301.496 130.196 299.528C132.404 297.56 135.452 296.576 139.34 296.576L163.604 296.576ZM138.764 302.912C136.892 302.912 135.452 303.344 134.444 304.208C133.436 305.072 132.932 306.32 132.932 307.952C132.932 309.488 133.436 310.688 134.444 311.552C135.404 312.416 136.82 312.848 138.692 312.848L163.892 312.848C167.684 312.848 169.58 311.192 169.58 307.88C169.58 306.296 169.124 305.072 168.212 304.208C167.3 303.344 165.884 302.912 163.964 302.912L138.764 302.912Z" fill="white"/>
<path d="M175.124 328.648L148.7 328.648C145.772 328.648 142.316 328.576 138.332 328.432L138.332 328.72L175.124 336.784L175.124 342.76L138.332 350.824L138.332 351.112C142.316 350.968 145.772 350.896 148.7 350.896L175.124 350.896L175.124 356.656L127.316 356.656L127.316 346.864L162.38 339.808L162.38 339.52L127.316 332.464L127.316 322.888L175.124 322.888L175.124 328.648Z" fill="white"/>
</svg>
