<svg width="413" height="1024" viewBox="0 0 413 1024" fill="none" xmlns="http://www.w3.org/2000/svg">
<g clip-path="url(#clip0_372_178)">
<g clip-path="url(#clip1_372_178)">
<path d="M119.898 561.375C118.695 568.705 117.232 575.995 116.351 583.346C113.044 611.115 109.857 638.905 106.771 666.715C103.504 696.096 100.318 725.477 97.2915 754.898C94.646 780.634 92.5617 806.451 89.6758 832.146C86.5293 860.097 82.9019 888.008 79.1541 915.899C77.0498 931.566 74.5848 947.213 71.6988 962.739C70.6968 968.136 67.8709 973.19 65.9871 978.446C65.3057 980.359 64.7445 982.393 64.504 984.407C63.4018 994.013 62.8206 1003.7 61.2774 1013.22C60.0549 1020.8 55.5055 1024.2 47.97 1023.88C23.4195 1022.81 -1.15099 1021.58 -25.6814 1020.23C-28.5874 1020.07 -31.5335 1019.04 -34.2991 1018C-38.127 1016.55 -40.051 1013.55 -40.071 1009.4C-40.071 1008.17 -40.1311 1006.92 -40.071 1005.69C-39.2694 988.354 -40.9328 971.297 -44.3598 954.241C-46.364 944.273 -46.7247 933.942 -47.3259 923.732C-48.328 906.817 -49.0495 889.901 -49.6708 872.965C-51.234 829.73 -52.8373 786.494 -54.1399 743.239C-55.3424 703.527 -56.5649 663.795 -57.086 624.084C-57.7273 576.539 -57.8275 528.994 -57.8075 481.449C-57.8075 456.176 -57.1261 430.924 -56.5649 405.651C-56.2844 392.964 -55.4025 380.298 -55.1019 367.611C-54.8414 357.079 -55.0418 346.527 -55.0418 335.975C-55.4827 335.975 -55.9437 335.975 -56.3846 335.954C-57.6071 345.399 -58.6492 354.864 -60.1122 364.268C-62.5773 380.237 -64.9622 396.247 -68.0485 412.095C-71.7361 431.044 -76.1252 449.853 -80.2136 468.722C-80.5142 470.091 -80.7146 471.622 -81.4762 472.709C-89.4926 484.309 -89.7933 498.224 -92.7393 511.273C-94.7835 520.375 -98.6515 523.517 -107.83 521.724C-125.847 518.22 -143.844 514.737 -161.841 511.112C-170.9 509.279 -173.044 505.574 -171.341 496.532C-169.657 487.712 -168.054 478.871 -167.032 469.971C-166.551 465.883 -168.034 461.573 -167.754 457.425C-167.233 449.712 -166.351 441.999 -165.168 434.347C-160.519 404.463 -155.669 374.599 -150.899 344.734C-145.348 309.816 -140.017 274.877 -134.225 239.998C-128.413 204.959 -122.26 170 -116.047 135.021C-113.783 122.233 -111.378 109.426 -108.231 96.8399C-101.277 69.0297 -83.4803 50.9864 -57.0259 41.0787C-29.0083 30.6071 -0.990646 20.1758 26.9468 9.52297C31.9771 7.60989 36.787 4.93158 41.4767 2.23314C45.8857 -0.30421 50.1345 -0.565999 55.0646 0.56171C68.853 3.68305 82.6413 7.08631 96.61 8.97925C122.624 12.5033 148.597 10.3083 173.909 3.7636C186.274 0.581847 197.638 -2.17701 208.38 7.10645C235.275 17.1149 262.03 27.4455 289.086 37.0109C309.107 44.0792 326.884 53.7654 338.868 72.1511C346.825 84.3545 350.212 98.0481 352.757 112.104C359.651 150.305 366.866 188.446 373.52 226.708C377.909 252.001 381.576 277.394 385.504 302.768C390.695 336.116 395.885 369.484 400.996 402.852C403.621 420.069 406.387 437.267 408.371 454.545C409.033 460.224 406.527 465.983 407.81 472.045C409.694 480.986 410.716 490.108 411.898 499.17C412.82 506.299 410.696 509.46 403.842 510.89C391.356 513.528 378.85 516.005 366.325 518.422C359.631 519.731 352.877 520.717 346.163 521.986C339.77 523.194 335.281 521.06 333.798 514.716C331.313 504.144 329.469 493.411 327.345 482.738C327.144 481.691 327.284 480.362 326.703 479.657C317.765 469.286 317.665 455.894 314.919 443.59C310.129 422.184 306.101 400.576 302.433 378.928C300.209 365.778 299.307 352.407 297.764 339.116C297.563 337.424 297.183 335.773 295.78 334.182C295.78 347.07 295.639 359.958 295.82 372.847C296.1 393.87 296.722 414.874 296.942 435.898C297.323 471.058 297.623 506.238 297.784 541.399C297.924 573.398 297.944 605.396 297.744 637.375C297.603 660.875 297.122 684.396 296.561 707.897C296.08 728.377 295.299 748.837 294.597 769.297C293.555 800.007 292.673 830.716 291.33 861.406C290.248 886.417 289.026 911.448 287.002 936.419C286.04 948.421 282.753 960.222 281.13 972.184C280.168 979.312 280.348 986.602 280.107 993.832C279.947 998.785 280.067 1003.74 279.847 1008.67C279.586 1014.79 276.841 1018.48 270.828 1019.12C257.922 1020.53 244.975 1021.56 232.008 1022.35C220.785 1023.03 209.522 1022.89 198.299 1023.62C181.665 1024.7 178.659 1022.55 176.414 1003.96C175.572 996.953 175.412 989.864 174.23 982.917C173.488 978.547 170.943 974.52 170.041 970.17C167.335 956.939 164.65 943.689 162.706 930.338C160.04 912.053 157.936 893.687 155.812 875.342C153.026 851.197 150.421 827.031 147.775 802.886C145.37 780.997 142.945 759.107 140.681 737.217C138.717 718.308 137.073 699.359 135.109 680.449C133.185 661.903 131.041 643.376 128.957 624.829C127.173 608.92 125.389 593.012 123.485 577.103C122.844 571.827 121.782 566.591 120.9 561.335C120.539 561.315 120.179 561.295 119.818 561.275L119.898 561.375ZM-79.432 71.2046C-77.7685 74.0843 -76.546 76.1988 -75.3035 78.3333C-55.9637 111.48 -45.422 147.325 -44.5001 185.627C-43.478 228.54 -43.3778 271.494 -43.3578 314.427C-43.3377 352.427 -44.1193 390.427 -44.2596 428.406C-44.4801 483.906 -44.7406 539.405 -44.3999 594.884C-44.1795 632.32 -42.977 669.756 -42.1954 707.192C-41.8146 726.101 -41.5541 745.011 -41.033 763.9C-40.071 798.335 -38.9487 832.75 -37.9066 867.186C-37.8865 867.891 -37.8665 868.595 -37.8264 869.3C-36.4636 890.384 -35.2411 911.489 -33.6779 932.553C-32.8762 943.387 -31.4934 954.16 -30.3109 965.659C-2.67412 966.585 24.5418 967.451 51.7378 968.458C56.1869 968.619 58.3313 966.364 59.0127 962.477C60.2753 955.389 61.3375 948.26 62.3396 941.111C65.3457 919.685 68.5123 898.298 71.1777 876.832C73.8031 855.667 75.9876 834.462 78.1721 813.257C80.1763 793.985 81.8196 774.694 83.8037 755.422C85.6876 737.016 87.832 718.65 89.8161 700.265C92.0406 679.583 94.1249 658.902 96.4297 638.241C98.3336 621.104 100.157 603.946 102.602 586.87C104.566 573.156 107.252 559.523 109.857 545.91C110.899 540.452 115.028 538.036 120.199 537.854C125.229 537.673 129.197 540.191 130.76 545.024C132.324 549.836 133.406 554.871 134.107 559.885C136.472 576.781 138.717 593.716 140.721 610.652C143.246 631.998 145.591 653.364 147.835 674.73C149.799 693.297 151.423 711.884 153.367 730.451C155.291 748.837 157.515 767.182 159.459 785.568C161.383 803.792 163.007 822.037 164.971 840.262C167.235 861.084 169.52 881.927 172.206 902.709C174.731 922.403 177.797 942.037 180.583 961.712C181.264 966.565 183.809 968.68 188.8 968.458C208.66 967.572 228.521 966.887 248.362 966.062C255.677 965.76 262.992 965.256 270.367 964.853C270.728 963.524 271.209 962.356 271.329 961.148C273.133 942.037 275.297 922.927 276.54 903.776C278.063 880.517 278.925 857.218 279.827 833.918C280.648 812.915 281.33 791.891 281.771 770.888C282.973 713.999 284.216 657.11 285.058 600.221C285.498 571.404 285.218 542.587 285.098 513.77C284.997 490.269 284.577 466.769 284.416 443.268C284.196 407.765 283.895 372.263 283.975 336.76C284.056 294.511 284.316 252.262 284.857 210.034C285.058 195.071 285.358 179.988 287.322 165.187C291.531 133.37 300.71 103.083 318.366 75.8766C319.208 74.5877 319.729 73.1177 320.49 71.5268C310.811 62.6864 299.828 56.484 288.044 51.8725C267.201 43.7167 246.178 36.0443 225.275 27.9892C222.108 26.7809 221.126 27.7475 220.745 30.6876C220.244 34.5138 219.863 38.3802 218.962 42.1258C209.542 81.6561 171.163 112.95 130.48 114.42C123.866 114.662 123.285 115.205 125.75 121.508C127.975 127.207 131.141 132.544 133.566 138.182C137.073 146.358 136.272 147.667 127.614 149.379C127.313 149.439 127.073 149.782 126.271 150.426C126.091 154.192 125.71 158.401 125.71 162.609C125.67 270.829 125.69 379.049 125.69 487.269C125.69 488.86 125.73 490.451 125.67 492.041C125.53 495.364 123.666 496.653 120.479 496.532C114.647 496.311 115.128 492.041 115.128 488.155C115.128 377.639 115.048 267.124 115.288 156.608C115.288 150.406 112.463 146.842 107.813 145.472C102.282 143.841 103.204 141.324 105.007 137.8C108.034 131.859 111.14 125.959 114.166 120.018C116.11 116.212 114.888 114.46 110.619 114.319C107.132 114.199 103.624 113.917 100.197 113.272C61.5179 105.821 34.9032 84.0927 22.2371 46.1735C20.213 40.1322 19.0906 33.7687 17.5475 27.4858C-14.3582 43.2535 -50.5726 48.4893 -79.432 71.2248V71.2046ZM327.144 81.5151C324.218 85.9051 321.072 89.4896 319.188 93.6581C307.203 119.938 300.068 147.687 298.044 176.404C295.8 208 299.688 239.495 302.493 270.95C304.397 292.175 306.742 313.36 309.508 334.464C312.454 356.958 315.761 379.411 319.549 401.764C322.795 420.976 326.984 440.026 330.651 459.177C332.054 466.527 335.421 468.903 342.997 467.332C351.374 465.621 359.751 463.829 368.148 462.117C377.007 460.325 385.885 458.593 395.585 456.66C394.122 445.946 392.859 435.676 391.276 425.466C388.39 407.06 385.103 388.735 382.358 370.329C379.552 351.561 377.628 332.652 374.582 313.924C369.391 282.026 363.679 250.228 358.048 218.411C351.434 181.076 344.72 143.761 337.906 106.466C336.323 97.8467 333.958 89.4292 327.164 81.495L327.144 81.5151ZM-87.3883 81.3339C-89.8133 86.8113 -92.6592 91.1812 -93.6813 95.9538C-99.2928 122.213 -104.804 148.493 -109.694 174.893C-114.163 199.079 -117.831 223.425 -121.819 247.711C-126.95 278.945 -132.12 310.178 -137.171 341.432C-141.74 369.725 -146.249 398.019 -150.678 426.332C-152.242 436.361 -153.504 446.409 -154.907 456.559C-135.988 460.385 -118.232 464.211 -100.355 467.494C-94.062 468.662 -92.0178 466.547 -90.7352 460.103C-88.0697 446.691 -85.1437 433.32 -82.7788 419.848C-78.2295 393.87 -73.5599 367.913 -69.8122 341.814C-66.8862 321.435 -65.1827 300.875 -63.1785 280.374C-61.0341 258.626 -58.7494 236.897 -57.2864 215.108C-54.7412 177.552 -59.8717 140.961 -72.8785 105.6C-75.9648 97.2426 -79.0111 88.7042 -87.3683 81.3339H-87.3883ZM188.018 981.93C188.8 990.328 189.581 997.497 190.082 1004.69C190.383 1008.93 192.307 1010.38 196.495 1010.16C208.4 1009.5 220.324 1009.26 232.249 1008.63C242.41 1008.11 252.551 1007.22 262.712 1006.62C265.898 1006.44 267.562 1005.37 267.261 1001.81C266.62 994.033 266.199 986.24 265.678 978.185C239.023 979.473 213.731 980.702 188.038 981.95L188.018 981.93ZM51.2167 982.595C48.6113 982.132 45.9058 981.346 43.1601 981.205C22.1169 980.078 1.05356 979.111 -19.9897 977.983C-22.8556 977.822 -24.9199 978.346 -25.1203 981.568C-25.5812 988.938 -26.0422 996.308 -26.1825 1003.68C-26.1825 1004.63 -24.479 1006.24 -23.3366 1006.48C-19.9096 1007.16 -16.3823 1007.48 -12.8951 1007.65C5.18204 1008.55 23.2592 1009.34 41.3163 1010.22C48.0903 1010.57 49.2727 1009.52 49.6936 1002.73C50.0944 996.248 50.6756 989.784 51.2367 982.595H51.2167ZM56.4675 17.6586C57.5898 23.1964 58.3915 28.1704 59.7142 33.0035C59.9948 34.0305 62.059 35.0777 63.4018 35.2388C77.6511 36.9505 91.9405 39.669 106.21 39.7697C125.469 39.8906 144.749 38.3198 163.969 36.7289C181.444 35.279 183.489 32.7215 182.607 18.0613C182.607 17.9002 182.487 17.7391 182.246 17.135C140.961 26.4386 99.496 26.8011 56.4675 17.6787V17.6586ZM172.005 48.3484C136.632 52.8592 102.342 53.4029 67.0092 48.0463C82.8618 67.2576 101.701 78.2125 126.071 75.9168C145.01 74.1447 160.421 65.1835 172.005 48.3484ZM111.18 102.619C109.897 98.8536 108.575 95.7927 107.853 92.5908C107.092 89.1875 105.087 87.6571 101.941 86.9724C77.4707 81.6158 60.8165 66.4521 50.6355 44.1396C46.6874 35.5005 44.9238 25.8345 42.138 16.5309C28.5701 18.746 26.546 21.7063 29.8327 35.5408C29.9129 35.8832 30.1133 36.1852 30.2135 36.5276C36.4062 59.3234 51.0764 75.5745 69.9352 88.664C82.2205 97.1822 96.0489 100.807 111.18 102.64V102.619ZM195.954 14.94C195.754 17.1149 195.634 19.1689 195.373 21.2229C195.113 23.3173 194.792 25.3914 194.331 27.4455C187.637 57.7929 170.402 78.4542 140.019 86.9724C132.684 89.0264 130.159 92.1881 129.177 101.512C131.081 101.512 133.025 101.774 134.869 101.472C155.09 98.028 172.666 89.3084 187.297 74.7086C200.283 61.7601 207.939 46.1131 211.146 28.1302C212.007 23.2971 210.564 20.0952 205.414 18.7863C202.307 18.0009 199.401 16.3698 195.954 14.94ZM352.196 507.708C366.685 504.587 381.175 501.526 395.625 498.264C396.567 498.042 398.01 496.331 397.89 495.545C396.667 488.477 395.244 481.429 393.681 474.421C393 471.34 390.735 470.252 387.689 470.836C372.958 473.656 358.228 476.495 343.498 479.294C340.692 479.818 339.71 481.066 340.532 484.087C342.095 489.826 343.478 495.646 344.56 501.486C345.382 505.936 347.366 508.111 352.216 507.688L352.196 507.708ZM-99.7738 480.784C-101.698 480.039 -103.702 478.892 -105.846 478.469C-119.575 475.851 -133.323 473.293 -147.111 471.058C-148.674 470.816 -151.52 472.447 -152.162 473.918C-153.905 477.885 -154.947 482.194 -155.989 486.443C-158.595 497.076 -158.535 497.096 -147.813 499.533C-147.312 499.653 -146.831 499.935 -146.33 500.036C-134.866 502.291 -123.402 504.607 -111.899 506.762C-108.532 507.386 -105.526 506.883 -104.624 502.734C-103.061 495.565 -101.457 488.396 -99.7738 480.764V480.784ZM119.096 126.744C116.892 131.295 115.248 134.719 113.224 138.887C117.854 140.176 121.541 141.203 126.411 142.552C123.806 136.894 121.782 132.544 119.096 126.724V126.744Z" fill="#E60528"/>
<path d="M-79.4312 71.2033C-50.5719 48.488 -14.3374 43.2321 17.5481 27.4644C19.1113 33.7473 20.2136 40.1108 22.2377 46.1521C34.9038 84.0712 61.5184 105.8 100.198 113.251C103.625 113.915 107.132 114.197 110.619 114.298C114.868 114.439 116.091 116.191 114.167 119.997C111.14 125.937 108.034 131.838 105.008 137.778C103.204 141.302 102.282 143.84 107.814 145.451C112.463 146.82 115.309 150.364 115.289 156.587C115.048 267.102 115.109 377.617 115.129 488.133C115.129 492.019 114.648 496.289 120.48 496.51C123.666 496.631 125.53 495.342 125.67 492.019C125.73 490.428 125.69 488.838 125.69 487.247C125.69 379.027 125.69 270.807 125.71 162.588C125.71 158.379 126.091 154.17 126.271 150.405C127.073 149.76 127.314 149.418 127.614 149.357C136.252 147.666 137.074 146.337 133.566 138.161C131.141 132.522 127.975 127.186 125.75 121.487C123.285 115.184 123.867 114.64 130.48 114.399C171.164 112.928 209.543 81.6144 218.962 42.1044C219.844 38.3588 220.245 34.4924 220.746 30.6662C221.126 27.7261 222.108 26.7394 225.275 27.9678C246.158 36.0027 267.201 43.6953 288.044 51.851C299.848 56.4625 310.811 62.6649 320.491 71.5053C319.729 73.0761 319.208 74.5663 318.366 75.8551C300.69 103.061 291.531 133.368 287.322 165.165C285.358 179.967 285.058 195.05 284.857 210.012C284.316 252.261 284.056 294.489 283.976 336.738C283.915 372.241 284.196 407.743 284.416 443.246C284.557 466.747 284.998 490.247 285.098 513.748C285.218 542.565 285.479 571.402 285.058 600.199C284.196 657.088 282.973 713.976 281.771 770.865C281.33 791.889 280.649 812.892 279.827 833.896C278.905 857.195 278.043 880.494 276.54 903.753C275.298 922.904 273.133 941.995 271.33 961.125C271.209 962.334 270.728 963.502 270.368 964.831C262.992 965.254 255.677 965.737 248.362 966.039C228.502 966.865 208.641 967.549 188.8 968.435C183.81 968.657 181.264 966.563 180.583 961.689C177.797 942.015 174.751 922.381 172.206 902.686C169.54 881.904 167.236 861.082 164.971 840.239C162.987 822.035 161.384 803.77 159.46 785.545C157.516 767.16 155.291 748.814 153.367 730.429C151.423 711.862 149.78 693.255 147.836 674.708C145.571 653.342 143.246 631.976 140.721 610.63C138.717 593.674 136.472 576.759 134.108 559.863C133.406 554.849 132.324 549.814 130.761 545.001C129.198 540.148 125.249 537.651 120.199 537.832C115.028 538.014 110.9 540.43 109.858 545.888C107.252 559.501 104.567 573.134 102.603 586.847C100.178 603.924 98.3341 621.081 96.4302 638.219C94.1254 658.88 92.0412 679.581 89.8166 700.242C87.8325 718.628 85.6881 736.994 83.8042 755.399C81.8202 774.671 80.1567 793.963 78.1727 813.235C75.9681 834.44 73.8037 855.645 71.1783 876.809C68.5128 898.276 65.3463 919.662 62.3401 941.089C61.3381 948.217 60.2959 955.366 59.0133 962.455C58.3319 966.321 56.1875 968.597 51.7383 968.435C24.5425 967.429 -2.67344 966.563 -30.3102 965.636C-31.4927 954.158 -32.8755 943.364 -33.6771 932.53C-35.2404 911.446 -36.4629 890.362 -37.8257 869.278C-37.8657 868.573 -37.8858 867.868 -37.9058 867.163C-38.968 832.728 -40.0703 798.313 -41.0322 763.877C-41.5533 744.968 -41.8139 726.079 -42.1946 707.17C-42.9562 669.734 -44.1587 632.298 -44.3992 594.862C-44.7198 539.363 -44.4793 483.884 -44.2589 428.384C-44.1186 390.385 -43.317 352.385 -43.357 314.405C-43.3771 271.472 -43.4773 228.518 -44.4994 185.605C-45.4213 147.303 -55.9629 111.438 -75.3027 78.3119C-76.5452 76.1974 -77.7677 74.0628 -79.4312 71.1831V71.2033Z" fill="#FCE6E9"/>
<path d="M327.145 81.5337C333.939 89.4679 336.324 97.8855 337.887 106.504C344.701 143.799 351.415 181.114 358.028 218.45C363.66 250.267 369.352 282.084 374.562 313.962C377.608 332.69 379.532 351.6 382.338 370.368C385.084 388.774 388.371 407.119 391.257 425.505C392.86 435.715 394.102 445.985 395.565 456.698C385.865 458.631 376.987 460.343 368.129 462.155C359.732 463.847 351.375 465.639 342.977 467.371C335.402 468.922 332.035 466.565 330.632 459.215C326.964 440.064 322.776 421.014 319.529 401.803C315.741 379.45 312.434 356.997 309.488 334.503C306.723 313.378 304.378 292.194 302.474 270.989C299.668 239.534 295.78 208.038 298.025 176.442C300.069 147.726 307.184 119.976 319.168 93.6968C321.072 89.5283 324.219 85.9438 327.125 81.5538L327.145 81.5337Z" fill="#FCE6E9"/>
<path d="M188.018 981.927C213.711 980.678 239.003 979.45 265.658 978.161C266.179 986.216 266.6 994.009 267.241 1001.78C267.542 1005.33 265.878 1006.39 262.692 1006.6C252.531 1007.2 242.39 1008.09 232.229 1008.61C220.324 1009.23 208.38 1009.5 196.475 1010.14C192.287 1010.38 190.363 1008.91 190.062 1004.66C189.561 997.473 188.78 990.304 187.998 981.907L188.018 981.927Z" fill="black"/>
<path d="M51.2176 982.592C50.6565 989.781 50.0953 996.245 49.6745 1002.73C49.2536 1009.54 48.0712 1010.56 41.2972 1010.22C23.2201 1009.33 5.14294 1008.55 -12.9142 1007.64C-16.4214 1007.46 -19.9286 1007.16 -23.3556 1006.48C-24.498 1006.25 -26.2215 1004.62 -26.2015 1003.68C-26.0612 996.306 -25.6002 988.935 -25.1393 981.565C-24.9389 978.343 -22.8746 977.839 -20.0088 977.98C1.0345 979.108 22.0978 980.075 43.141 981.202C45.8867 981.343 48.6123 982.129 51.1976 982.592H51.2176Z" fill="black"/>
<path d="M56.448 17.6775C99.4765 26.7999 140.942 26.4374 182.227 17.1338C182.467 17.7379 182.587 17.899 182.587 18.0601C183.469 32.7203 181.425 35.2979 163.949 36.7277C144.729 38.3186 125.43 39.8692 106.19 39.7685C91.9009 39.6879 77.6315 36.9492 63.3823 35.2375C62.0395 35.0764 59.9752 34.0293 59.6947 33.0022C58.3719 28.1692 57.5703 23.1952 56.448 17.6574V17.6775Z" fill="black"/>
<path d="M171.986 48.367C160.402 65.2021 144.99 74.1633 126.051 75.9354C101.661 78.2311 82.8426 67.2762 66.99 48.0649C102.323 53.4215 136.613 52.8778 171.986 48.367Z" fill="#FCE6E9"/>
<path d="M111.161 102.638C96.0094 100.805 82.201 97.1805 69.9157 88.6623C51.057 75.5728 36.3868 59.3218 30.1941 36.526C30.0939 36.1836 29.8935 35.8816 29.8133 35.5392C26.5265 21.7047 28.5507 18.7444 42.1186 16.5293C44.9043 25.8329 46.6679 35.4989 50.616 44.138C60.797 66.4505 77.4512 81.6141 101.922 86.9707C105.088 87.6554 107.092 89.1859 107.834 92.5891C108.535 95.791 109.878 98.8519 111.161 102.618V102.638Z" fill="black"/>
<path d="M195.955 14.9385C199.402 16.3884 202.308 17.9994 205.415 18.7848C210.565 20.0937 212.008 23.2956 211.146 28.1286C207.94 46.1115 200.264 61.7585 187.297 74.707C172.667 89.2866 155.091 98.0264 134.87 101.47C133.026 101.792 131.102 101.51 129.178 101.51C130.14 92.1864 132.685 89.0248 140.02 86.9708C170.403 78.4727 187.638 57.7914 194.332 27.4439C194.793 25.3899 195.093 23.2956 195.374 21.2214C195.634 19.1674 195.755 17.1133 195.955 14.9385Z" fill="black"/>
<path d="M352.196 507.727C347.346 508.15 345.362 505.975 344.54 501.525C343.458 495.665 342.075 489.865 340.512 484.126C339.69 481.126 340.672 479.877 343.478 479.333C358.208 476.534 372.938 473.715 387.669 470.875C390.715 470.291 392.98 471.379 393.661 474.46C395.224 481.468 396.647 488.516 397.87 495.584C398.01 496.37 396.567 498.081 395.605 498.303C381.155 501.545 366.665 504.626 352.176 507.748L352.196 507.727Z" fill="black"/>
<path d="M119.097 126.743C121.782 132.562 123.806 136.912 126.412 142.571C121.542 141.222 117.854 140.195 113.225 138.906C115.229 134.737 116.892 131.314 119.097 126.763V126.743Z" fill="#FCE6E9"/>
<path d="M-52.0471 53.8703L-5.40344 35.8715L77.3041 440.983L28.2559 451.022L-52.0471 53.8703Z" fill="black"/>
<path d="M292.725 53.8703L246.081 35.8715L163.374 440.983L212.422 451.022L292.725 53.8703Z" fill="black"/>
<rect x="68.069" y="441.182" width="103.917" height="67.0101" fill="black"/>
<rect x="-45.6027" y="441.182" width="113.672" height="67.0101" fill="#F38293"/>
<rect x="172.2" y="441.182" width="113.672" height="67.0101" fill="#F38293"/>
<rect x="-28.0588" y="593.002" width="104.286" height="29.3169" fill="black"/>
<rect x="163.373" y="593.002" width="104.286" height="29.3169" fill="black"/>
<rect x="-28.0588" y="634.883" width="104.286" height="29.3169" fill="black"/>
<rect x="-28.0588" y="676.765" width="104.286" height="29.3169" fill="black"/>
</g>
</g>
<defs>
<clipPath id="clip0_372_178">
<rect width="584" height="1024" fill="white" transform="translate(-171.915)"/>
</clipPath>
<clipPath id="clip1_372_178">
<rect width="584" height="1024" fill="white" transform="translate(-171.901 -0.0439453)"/>
</clipPath>
</defs>
</svg>
