<svg width="317" height="440" viewBox="0 0 317 440" fill="none" xmlns="http://www.w3.org/2000/svg">
<path d="M32.8463 158.41C32.8463 157.483 32.8463 156.769 32.8463 156.047C32.8463 136.98 32.7161 117.913 32.8897 98.8547C33.0025 87.0648 35.1804 75.6585 41.0722 65.3313C48.7515 51.8648 59.9797 43.125 74.5747 38.6927C85.0133 35.5267 95.6688 35.2503 106.212 36.5167C117.145 37.8276 127.471 41.5554 136.408 48.7256C148.313 58.2859 155.185 70.7892 157.45 85.9768C158.248 91.3099 158.587 96.7678 158.63 102.163C158.769 120.08 158.682 138.005 158.682 155.922V158.401C159.559 158.401 160.314 158.401 161.077 158.401C177.069 158.401 193.061 158.401 209.062 158.401C212.619 158.401 213.756 159.561 213.756 163.217C213.756 234.286 213.782 305.364 213.739 376.433C213.73 391.95 201.009 403.829 187.065 403.811C126.299 403.731 65.5418 403.776 4.77574 403.776C-8.81267 403.776 -20.0756 393.734 -21.9412 379.911C-22.1321 378.52 -22.2275 377.102 -22.2275 375.701C-22.2362 304.909 -22.2362 234.108 -22.2362 163.306C-22.2362 159.534 -21.1516 158.419 -17.4464 158.419C-1.51519 158.419 14.4074 158.419 30.3386 158.419C31.1109 158.419 31.8745 158.419 32.8463 158.419V158.41ZM-15.8932 164.938C-15.8932 165.848 -15.8932 166.579 -15.8932 167.302C-15.8932 236.837 -15.7891 306.363 -16.006 375.889C-16.0407 387.268 -5.89715 397.417 4.88854 397.39C65.4637 397.239 126.03 397.319 186.605 397.301C188.219 397.301 189.885 397.221 191.447 396.846C199.578 394.92 207.508 386.394 207.5 376.718C207.43 306.916 207.465 237.122 207.465 167.319C207.465 166.544 207.465 165.768 207.465 164.929H-15.8845L-15.8932 164.938ZM131.948 158.303C131.948 157.625 131.948 157.099 131.948 156.564C131.948 135.357 131.965 114.14 131.922 92.933C131.922 89.9187 131.679 86.9043 131.436 83.8989C131.323 82.5166 131.358 80.8489 130.638 79.8233C126.811 74.41 122.941 68.9788 117.44 65.144C107.583 58.2859 96.7448 57.1533 85.4211 59.6861C76.6745 61.6391 69.9411 66.8652 64.7869 74.2584C63.0254 76.7822 60.6999 79.0831 60.4049 82.3917C60.0318 86.5833 59.6847 90.8016 59.6673 95.0109C59.5892 115.344 59.6239 135.687 59.6239 156.02C59.6239 156.743 59.6239 157.465 59.6239 158.294H131.948V158.303ZM63.4593 50.9106C60.5611 53.2917 57.4286 55.4232 54.8081 58.0986C44.2567 68.8539 39.5277 82.2669 39.198 97.2672C38.8769 112.08 39.1285 126.902 39.1199 141.715C39.1199 147.218 39.1199 152.72 39.1199 158.25H53.6107C53.6107 157.34 53.6107 156.6 53.6107 155.86C53.6107 141.849 53.55 127.839 53.6281 113.828C53.6975 101.334 53.0033 88.8039 54.8515 76.372C56.1878 67.4003 58.2443 58.6872 63.4506 50.9106H63.4593ZM129.388 52.4267C130.941 56.1188 132.651 59.579 133.892 63.2177C137.354 73.3398 138.039 83.9078 138.065 94.5204C138.117 115.059 138.083 135.606 138.083 156.145V158.25H152.331C152.365 157.875 152.4 157.679 152.4 157.483C152.4 137.212 152.487 116.941 152.374 96.6608C152.339 90.2219 151.098 83.9346 148.99 77.8256C146.829 71.5561 143.627 65.9109 139.445 60.89C136.608 57.4833 133.284 54.576 129.397 52.4267H129.388ZM64.1447 63.8865C85.4818 47.4236 106.715 47.9319 127.818 64.6446C125.397 54.1836 111.8 42.6078 97.5951 42.5989C81.3342 42.581 68.5788 50.4112 64.1447 63.8865Z" fill="#E60528"/>
<path d="M-15.8844 164.939H207.474C207.474 165.777 207.474 166.553 207.474 167.329C207.474 237.132 207.439 306.925 207.509 376.728C207.517 386.395 199.586 394.921 191.456 396.856C189.885 397.231 188.228 397.311 186.614 397.311C126.039 397.329 65.4725 397.248 4.89733 397.4C-5.89703 397.427 -16.0319 387.278 -15.9972 375.898C-15.7803 306.372 -15.8844 236.837 -15.8844 167.311C-15.8844 166.58 -15.8844 165.858 -15.8844 164.948V164.939Z" fill="#E60528" fill-opacity="0.1"/>
<path d="M63.4594 50.9106C58.2445 58.6873 56.1967 67.4003 54.8604 76.372C53.0121 88.8039 53.7063 101.334 53.6369 113.828C53.5588 127.839 53.6195 141.849 53.6195 155.86C53.6195 156.6 53.6195 157.331 53.6195 158.25H39.1287C39.1287 152.729 39.1287 147.218 39.1287 141.715C39.1287 126.902 38.8771 112.071 39.2068 97.2673C39.5365 82.2669 44.2743 68.8629 54.817 58.0987C57.4375 55.4322 60.5699 53.2918 63.4681 50.9106H63.4594Z" fill="#E60528" fill-opacity="0.1"/>
<path d="M129.38 52.418C133.267 54.5672 136.59 57.4746 139.428 60.8813C143.61 65.9022 146.812 71.5474 148.973 77.8169C151.081 83.9259 152.322 90.2132 152.357 96.6521C152.469 116.923 152.391 137.194 152.383 157.474C152.383 157.67 152.348 157.875 152.313 158.241H138.065V156.136C138.065 135.598 138.1 115.05 138.048 94.5117C138.022 83.8902 137.336 73.3311 133.874 63.209C132.633 59.5793 130.924 56.1101 129.371 52.418H129.38Z" fill="#E60528" fill-opacity="0.1"/>
<path d="M64.1362 63.8775C68.5703 50.4022 81.3256 42.572 97.5866 42.5899C111.791 42.6077 125.388 54.1746 127.809 64.6356C106.715 47.9229 85.482 47.4146 64.1362 63.8775Z" fill="#E60528" fill-opacity="0.1"/>
<path d="M183.282 378.831L181.143 366.464H171.107L169.132 378.831H161.975L171.271 326.19H181.225L190.522 378.831H183.282ZM172.094 360.359H180.156L176.289 337.289H175.96L172.094 360.359Z" fill="#E60528"/>
<path d="M134.046 378.831V326.19H148.936C152.721 326.19 155.381 327.115 156.916 328.965C158.507 330.815 159.302 333.405 159.302 336.734V342.125C159.302 347.041 157.465 349.921 153.79 350.767V351.084C155.874 351.454 157.437 352.299 158.479 353.621C159.521 354.889 160.042 356.95 160.042 359.804V369.794C160.042 372.806 159.274 375.079 157.739 376.612C156.258 378.091 153.68 378.831 150.006 378.831H134.046ZM152.721 359.329C152.721 357.479 152.309 356.158 151.487 355.365C150.719 354.572 149.403 354.176 147.538 354.176H141.286V372.648H147.785C149.54 372.648 150.801 372.225 151.569 371.379C152.337 370.534 152.721 369.265 152.721 367.574V359.329ZM152.392 337.765C152.392 335.968 152.035 334.62 151.322 333.722C150.664 332.823 149.403 332.374 147.538 332.374H141.286V348.23H147.62C149.046 348.23 150.198 347.833 151.075 347.041C151.953 346.248 152.392 344.847 152.392 342.839V337.765Z" fill="#E60528"/>
<path d="M123.338 378.831L115.523 356.078H115.194L111.245 363.531V378.831H103.759V326.19H111.245V349.815H111.574L123.42 326.19H130.907L120.623 347.041L130.824 378.831H123.338Z" fill="#E60528"/>
<path d="M92.3007 357.346H99.2933V366.146C99.2933 370.585 98.2239 373.889 96.085 376.056C93.946 378.223 90.8199 379.306 86.7066 379.306C82.4287 379.306 79.2204 378.17 77.0814 375.897C74.9425 373.572 73.873 370.268 73.873 365.987V338.874C73.873 334.434 74.9425 331.131 77.0814 328.964C79.2204 326.797 82.3465 325.714 86.4598 325.714C90.628 325.714 93.8089 326.797 96.0027 328.964C98.1965 331.131 99.2933 334.408 99.2933 338.795V345.058H92.3007V338.795C92.3007 336.734 91.8345 335.148 90.9022 334.038C89.9698 332.928 88.5713 332.373 86.7066 332.373C83.032 332.373 81.1947 334.487 81.1947 338.716V366.542C81.1947 368.551 81.6335 370.083 82.511 371.14C83.3885 372.197 84.787 372.726 86.7066 372.726C90.436 372.726 92.3007 370.665 92.3007 366.542V357.346Z" fill="#E60528"/>
<path d="M69.6523 366.146C69.6523 370.585 68.528 373.889 66.2794 376.056C64.0856 378.223 60.9321 379.306 56.8187 379.306C52.5409 379.306 49.2777 378.17 47.0291 375.897C44.8353 373.572 43.7384 370.268 43.7384 365.987V339.27C43.7384 334.989 44.8627 331.66 47.1113 329.281C49.4148 326.903 52.6232 325.714 56.7365 325.714C60.8498 325.714 64.0308 326.929 66.2794 329.361C68.528 331.792 69.6523 335.148 69.6523 339.429V366.146ZM62.4129 338.795C62.4129 336.734 61.9193 335.148 60.9321 334.038C59.9449 332.928 58.5189 332.373 56.6542 332.373C54.8992 332.373 53.5281 332.928 52.5409 334.038C51.5537 335.095 51.0601 336.654 51.0601 338.716V366.463C51.0601 370.638 52.9522 372.726 56.7365 372.726C58.5463 372.726 59.9449 372.224 60.9321 371.22C61.9193 370.216 62.4129 368.656 62.4129 366.542V338.795Z" fill="#E60528"/>
<path d="M33.0079 378.831V349.736C33.0079 346.512 33.0902 342.707 33.2547 338.32H32.9257L23.7118 378.831H16.8837L7.66992 338.32H7.34085C7.50539 342.707 7.58765 346.512 7.58765 349.736V378.831H1.00635V326.19H12.1946L20.2567 364.799H20.5857L28.6478 326.19H39.5892V378.831H33.0079Z" fill="#E60528"/>
</svg>
