<svg width="317" height="440" viewBox="0 0 317 440" fill="none" xmlns="http://www.w3.org/2000/svg">
<path d="M274.355 368.359C274.949 370.791 278.434 385.187 279.124 394.221C279.14 394.511 279.012 394.785 278.771 394.946C278.642 395.026 266.084 403.11 243.49 408.681C243.425 408.681 243.361 408.698 243.313 408.698C243.104 408.698 242.895 408.617 242.735 408.456C242.446 408.15 235.46 400.743 230.434 386.491C229.502 386.363 228.571 386.105 227.688 385.719C223.577 383.899 221.296 379.793 219.61 376.025C219.225 375.155 218.823 374.285 218.438 373.416C217.009 370.195 215.531 366.862 213.925 363.625L206.506 348.617C206.297 349.261 206.056 349.873 205.816 350.469C205.832 350.501 205.864 350.549 205.864 350.598C205.912 350.855 205.751 351.113 205.51 351.194C204.884 352.611 204.178 353.867 203.375 354.93C202.395 356.25 201.287 357.248 200.066 357.973L201.64 384.076C201.672 384.479 201.383 384.833 200.998 384.897C171.594 390.388 137.116 392.16 104.757 392.16C45.4038 392.16 -6.80344 386.185 -7.62244 386.089C-8.00786 386.041 -8.29691 385.735 -8.31297 385.348C-9.53345 365.863 -9.22833 360.179 -8.65022 358.424C-10.9787 356.089 -12.8094 352.659 -14.2226 348.521L-21.69 363.625C-23.2798 366.862 -24.7733 370.195 -26.2025 373.416C-26.5879 374.285 -26.9733 375.155 -27.3588 376.025C-29.0449 379.793 -31.3413 383.899 -35.4524 385.719C-36.3356 386.105 -37.2671 386.363 -38.1985 386.491C-43.2088 400.743 -50.1944 408.15 -50.4995 408.456C-50.6601 408.617 -50.8528 408.698 -51.0616 408.698C-51.1258 408.698 -51.1901 408.698 -51.2543 408.681C-73.8491 403.11 -86.4071 395.026 -86.5356 394.946C-86.7765 394.785 -86.921 394.511 -86.8889 394.221C-86.2144 385.171 -82.7296 370.775 -82.1194 368.359C-83.3399 366.669 -83.8698 364.93 -84.0786 363.529C-84.4479 361.113 -83.9662 359.197 -83.8859 358.875C-66.3657 258.295 -35.9181 181.919 -32.6582 173.948L-34.2801 173.143C-34.6173 172.965 -34.794 172.579 -34.6816 172.209C-28.0332 149.986 -4.31432 103.803 -4.08949 103.336C-4.05737 103.288 -4.02526 103.239 -3.99314 103.191C4.45381 92.9012 17.7666 87.0397 22.9536 85.043C22.3915 84.8819 21.8455 84.7531 21.3477 84.6404C21.1229 84.5921 20.9302 84.4472 20.8177 84.2378C20.7214 84.0446 18.3768 79.3425 27.4179 73.0784C28.1245 72.1283 34.3072 63.1751 39.3657 39.874C39.976 37.056 42.8505 35.5745 44.9542 34.721C54.4771 30.7919 64.7547 32.064 74.6952 33.2879C75.9317 33.4489 77.1843 33.5938 78.4047 33.7388C90.2562 35.0914 102.365 35.0753 114.409 33.6582C115.404 33.5455 116.4 33.4167 117.396 33.2879C127.416 32.0479 137.79 30.7758 147.41 34.7049C149.513 35.5584 152.388 37.0238 152.998 39.8579C158.073 63.2234 164.239 72.1122 164.946 73.0623C173.987 79.3264 171.658 84.0285 171.546 84.2217C171.434 84.431 171.241 84.576 171.016 84.6243C170.502 84.737 169.924 84.8819 169.33 85.043C174.549 87.0558 187.798 92.9012 196.228 103.175C196.261 103.223 196.293 103.272 196.325 103.32C196.566 103.787 220.285 149.954 226.917 172.193C227.029 172.579 226.837 172.998 226.467 173.143L224.845 173.835C227.896 181.307 258.521 257.893 276.105 358.859C276.25 359.422 277.342 364.14 274.339 368.343L274.355 368.359Z" fill="white" stroke="#E60528" stroke-width="3"/>
<path d="M274.355 368.36C277.358 364.157 276.266 359.423 276.122 358.875C258.537 257.909 227.913 181.307 224.862 173.852L226.484 173.159C226.853 172.998 227.046 172.596 226.934 172.209C220.285 149.987 196.566 103.803 196.341 103.336C196.309 103.288 196.277 103.24 196.245 103.192C187.814 92.9339 174.566 87.0724 169.347 85.0596C169.957 84.8824 170.519 84.7536 171.033 84.6409C171.258 84.5926 171.45 84.4477 171.563 84.2383C171.675 84.0451 174.004 79.343 164.962 73.0789C164.256 72.1288 158.089 63.24 153.015 39.8745C152.404 37.0565 149.53 35.575 147.426 34.7215C137.807 30.7924 127.433 32.0645 117.412 33.3045C116.417 33.4333 115.421 33.546 114.425 33.6748C102.381 35.0919 90.2568 35.1241 78.4214 33.7554C77.2009 33.6104 75.9483 33.4655 74.7118 33.3045C64.7714 32.0806 54.4777 30.8085 44.8905 34.7215C42.7868 35.575 39.9123 37.0404 39.3021 39.8745C34.2435 63.1756 28.0609 72.1288 27.3543 73.0789C18.3132 79.343 20.6578 84.0451 20.7541 84.2383C20.8665 84.4477 21.0592 84.5926 21.284 84.6409C21.7979 84.7536 22.3279 84.8824 22.8899 85.0435C17.7029 87.0402 4.40621 92.9017 -4.05679 103.192C-4.08891 103.24 -4.12103 103.288 -4.15314 103.336C-4.39403 103.803 -28.0969 149.971 -34.7452 172.209C-34.8576 172.579 -34.681 172.982 -34.3438 173.143L-32.7218 173.948C-35.9657 181.919 -66.4293 258.296 -83.9495 358.875C-84.0459 359.213 -84.5116 361.114 -84.1422 363.529C-83.9335 364.93 -83.3875 366.669 -82.183 368.36C-82.7772 370.792 -86.262 385.188 -86.9525 394.221C-86.9686 394.511 -86.8401 394.785 -86.5992 394.946C-86.4707 395.027 -73.9127 403.11 -51.3179 408.682C-51.2537 408.682 -51.1895 408.698 -51.1252 408.698C-50.9165 408.698 -50.7077 408.618 -50.5632 408.457C-50.2741 408.151 -43.2885 400.743 -38.2621 386.492C-37.3146 386.363 -36.3993 386.105 -35.5161 385.719C-31.405 383.899 -29.1246 379.793 -27.4224 376.025C-27.037 375.155 -26.6516 374.286 -26.2662 373.416C-24.8369 370.196 -23.3435 366.862 -21.7536 363.626L-14.2863 348.521C-12.8731 352.66 -11.0584 356.073 -8.71385 358.424C-9.29197 360.18 -9.59709 365.864 -8.37663 385.349C-8.36057 385.735 -8.05544 386.041 -7.68609 386.089C-6.88315 386.186 45.3402 392.16 104.694 392.16C137.052 392.16 171.531 390.389 200.934 384.898C201.32 384.833 201.609 384.463 201.577 384.077L200.003 357.974C201.223 357.249 202.331 356.251 203.311 354.93C204.114 353.851 204.821 352.595 205.447 351.194C205.688 351.114 205.848 350.872 205.8 350.598C205.8 350.55 205.768 350.518 205.752 350.47C205.993 349.874 206.218 349.262 206.442 348.618L213.862 363.626C215.467 366.862 216.945 370.196 218.374 373.416C218.76 374.286 219.145 375.155 219.546 376.025C221.233 379.793 223.529 383.899 227.624 385.719C228.507 386.105 229.439 386.363 230.37 386.492C235.397 400.743 242.366 408.151 242.671 408.457C242.832 408.618 243.024 408.698 243.249 408.698C243.314 408.698 243.378 408.698 243.426 408.682C266.021 403.11 278.595 395.027 278.707 394.946C278.948 394.785 279.093 394.511 279.061 394.221C278.386 385.172 274.901 370.775 274.291 368.36H274.355ZM225.215 171.968L196.727 184.141C196.518 182.676 196.309 181.243 196.101 179.842C207.615 175.301 220.574 169.278 223.818 167.749C224.332 169.23 224.798 170.647 225.215 171.968ZM163.806 74.1417C163.806 74.1417 163.919 74.2544 163.983 74.3028C169.844 78.3285 170.695 81.694 170.294 83.1755C157.062 86.2995 118.986 104.109 108.58 109.037C113.654 102.741 119.179 96.9758 124.944 90.9694C127.16 88.6667 129.456 86.2673 131.689 83.8841C140.2 74.7858 148.117 64.9791 155.279 54.7376C159.599 68.6667 163.597 73.8519 163.822 74.1256L163.806 74.1417ZM159.39 88.4573C142.962 101.968 125.907 110.438 108.644 113.675C107.279 113.932 105.914 114.142 104.533 114.335C105.159 113.465 105.786 112.628 106.428 111.791C106.508 111.791 106.589 111.758 106.653 111.726C107.054 111.533 139.365 96.0901 159.39 88.4573ZM146.832 36.1869C148.615 36.9115 151.023 38.1193 151.473 40.2127C152.517 45.0114 153.609 49.1982 154.669 52.8535C147.362 63.401 139.236 73.4815 130.516 82.8374C128.284 85.2206 125.988 87.6199 123.788 89.9066C116.417 97.5877 108.789 105.543 102.397 114.625C98.1738 115.108 93.9342 115.285 89.6947 115.156L102.221 98.4895C117.187 80.2931 141.934 53.2239 142.175 52.9502C145.917 48.86 147.49 44.8986 146.848 41.1466C146.382 38.4735 144.889 36.4446 143.46 35.0436C144.6 35.3657 145.74 35.736 146.848 36.203L146.832 36.1869ZM95.3635 104.931C93.597 98.5378 88.4742 92.3542 83.9296 86.8792C82.7412 85.446 81.6171 84.0773 80.6054 82.789C75.0651 75.6715 68.6255 68.4735 60.3391 60.1482C59.7932 59.6007 59.1829 59.0049 58.5405 58.3769C55.1842 55.108 50.6236 50.6313 48.4235 46.1386C55.7463 45.3656 101.53 40.9051 144.728 46.1386C144.038 47.9904 142.785 49.9067 140.987 51.8713C140.73 52.145 115.967 79.2464 100.952 97.5072L95.3635 104.947V104.931ZM50.9768 34.5122C58.6208 32.918 66.6663 33.9003 74.503 34.8665C75.7556 35.0275 76.9922 35.1724 78.2287 35.3173C90.1925 36.6861 102.429 36.67 114.602 35.2368C115.598 35.1241 116.593 34.9953 117.605 34.8665C124.992 33.9647 132.572 33.0307 139.814 34.2223C140.489 34.6088 144.552 37.1209 145.274 41.4043C145.483 42.5959 145.403 43.8197 145.066 45.0919C100.968 39.7135 54.1244 44.4317 47.9738 45.0919C47.3797 43.6265 47.0585 42.1611 47.1548 40.7441C47.3154 38.3769 48.568 36.3318 50.9768 34.4961V34.5122ZM40.8277 40.1966C41.2773 38.1032 43.7022 36.8954 45.4686 36.1708C46.2395 35.8648 47.0103 35.5911 47.7811 35.3496C46.4483 36.9438 45.6935 38.7312 45.565 40.6474C45.1154 47.4429 52.2294 54.3994 57.4164 59.488C58.0588 60.116 58.653 60.6957 59.199 61.2432C67.4371 69.5363 73.8286 76.686 79.3367 83.7391C80.3645 85.0596 81.4886 86.4283 82.693 87.8615C87.2859 93.4009 92.4889 99.6972 93.9824 105.945C94.0306 106.122 94.1269 106.251 94.2393 106.364L88.8436 113.546C85.1982 105.237 78.2608 95.9452 67.116 84.4477C47.4118 63.8036 39.1254 54.8181 37.5195 53.0629C38.6115 49.3592 39.7357 45.0919 40.7955 40.1805L40.8277 40.1966ZM22.0388 83.1755C21.8301 82.1932 21.7337 78.8277 28.3339 74.3028C28.3981 74.2544 28.4623 74.2061 28.5105 74.1417C28.7193 73.868 32.7019 68.6989 37.0217 54.8342C39.6554 57.7005 48.1344 66.8471 66.0079 85.5588C77.3936 97.314 84.315 106.702 87.7676 115.027C79.8828 114.609 71.9818 113.127 64.1611 110.567C42.2569 103.417 27.274 89.9227 23.6608 86.4444C24.5922 86.0902 25.2185 85.8647 25.4272 85.8003C42.1124 91.1948 75.5308 108.683 75.9002 108.876C76.2856 109.069 76.7673 108.924 76.96 108.538C77.1688 108.151 77.0082 107.668 76.6228 107.475C75.0009 106.622 36.9414 86.7021 22.0388 83.1916V83.1755ZM-33.043 172C-32.7058 170.873 -32.3043 169.697 -31.8868 168.473C-29.1889 170.357 -19.9069 176.412 -7.41309 180.406C-7.6058 181.726 -7.7985 183.063 -7.99121 184.415C-7.99121 184.415 -7.9912 184.415 -8.00726 184.415L-33.0269 172.016L-33.043 172ZM-51.3661 407.023C-71.1827 402.08 -83.0502 395.236 -85.3145 393.851C-84.64 385.848 -81.894 373.932 -80.8983 369.825C-80.2078 370.518 -79.3567 371.178 -78.345 371.79C-73.8003 374.527 -69.9623 376.573 -66.2366 378.247C-61.419 380.421 -56.4568 382.144 -52.1851 383.593C-51.6391 383.771 -51.0771 383.98 -50.515 384.173C-47.3514 385.3 -43.6418 386.605 -40.0768 386.605C-40.0286 386.605 -39.9965 386.605 -39.9483 386.605C-44.236 398.473 -49.9851 405.461 -51.3661 407.023ZM-23.1347 362.933C-24.7406 366.202 -26.234 369.536 -27.6793 372.772C-28.0648 373.642 -28.4502 374.495 -28.8356 375.365C-30.4093 378.859 -32.497 382.659 -36.1102 384.254C-40.3016 386.106 -45.4404 384.286 -49.9851 382.692C-50.5632 382.498 -51.1252 382.289 -51.6712 382.112C-55.9108 380.663 -60.8408 378.956 -65.5943 376.814C-69.2557 375.172 -73.0456 373.143 -77.542 370.437C-78.9392 369.6 -79.9509 368.65 -80.7217 367.668C-83.6605 363.835 -82.4721 359.503 -82.3918 359.278C-82.3918 359.246 -82.3918 359.213 -82.3757 359.181C-64.9519 259.117 -34.7131 183.063 -31.2926 174.641L-8.72991 185.832C-8.6175 185.881 -8.5051 185.913 -8.37663 185.913C-8.32845 185.913 -8.26421 185.913 -8.21603 185.897C-11.8132 211.017 -15.4425 242.869 -16.1652 272.466C-16.5184 275.285 -22.139 321.484 -14.9286 346.347L-23.1347 362.933ZM-6.80285 384.608C-7.9912 365.429 -7.55762 360.518 -7.28462 359.262C-3.02903 359.825 36.7326 364.817 93.8379 364.817C124.061 364.817 159.165 363.416 196.406 359.213C197.144 359.133 197.835 358.956 198.509 358.714L200.003 383.481C120.062 398.183 3.05727 385.703 -6.80285 384.608ZM202.074 353.996C200.436 356.186 198.525 357.378 196.213 357.651C88.0246 369.874 -1.9049 358.392 -7.20432 357.684C-8.47297 356.508 -9.58103 354.994 -10.5606 353.207C-6.36926 353.706 7.77856 355.3 27.8842 356.75C27.9966 356.814 28.1091 356.846 28.2375 356.846H28.3018C28.3018 356.846 28.4463 356.814 28.5105 356.798C48.3271 358.231 73.8125 359.519 101.209 359.519C134.772 359.519 171.193 357.571 203.568 351.565C203.118 352.466 202.62 353.271 202.074 353.996ZM38.0174 260.115C40.2174 259.761 42.5459 259.423 45.019 259.117C45.5329 265.671 48.2147 310.647 26.9046 328.553L26.0856 317.974C32.2522 310.389 36.1224 298.264 37.6159 281.935C38.5473 271.565 38.1779 262.66 38.0334 260.115H38.0174ZM46.0789 287.136C47.6045 273.755 46.8337 261.983 46.5928 258.924C60.1464 257.314 77.6666 256.428 98.8322 256.251C99.2015 256.251 129.215 257.201 148.293 258.988C148.036 262.161 147.298 273.851 148.807 287.136C150.445 301.516 155.134 320.759 168.19 330.743C168.335 330.856 168.495 330.904 168.672 330.904C168.672 330.904 168.704 330.904 168.72 330.904L166.777 355.413C166.777 355.413 166.777 355.526 166.777 355.59C117.107 360.389 64.2254 358.312 29.0244 355.784L27.0652 330.486C39.8641 320.437 44.4891 301.42 46.0949 287.152L46.0789 287.136ZM158.186 281.935C159.663 298.28 163.549 310.405 169.716 317.974L168.833 329.23C146.655 311.838 149.337 265.913 149.867 259.149C152.886 259.439 155.6 259.777 157.784 260.115C157.64 262.66 157.27 271.549 158.202 281.935H158.186ZM205.623 345.945C205.495 346.106 205.431 346.315 205.463 346.524C205.061 347.925 204.612 349.23 204.098 350.405C192.584 352.563 180.572 354.205 168.335 355.429L171.306 317.797C171.306 317.587 171.258 317.378 171.129 317.233C156.612 299.761 159.358 259.922 159.39 259.536C159.422 259.117 159.133 258.763 158.732 258.698C156.275 258.28 153.095 257.893 149.498 257.555C149.418 257.507 149.321 257.475 149.225 257.475C149.128 257.475 149.032 257.475 148.936 257.507C129.81 255.687 99.2497 254.721 98.8482 254.705C72.3672 254.914 51.571 256.267 37.0538 258.715C36.6524 258.779 36.3633 259.149 36.3954 259.552C36.4275 259.954 39.1736 299.777 24.6564 317.249C24.5279 317.41 24.4637 317.603 24.4798 317.813L27.4346 355.687C6.31721 354.141 -8.11967 352.466 -11.1227 352.096C-11.9577 350.373 -12.6804 348.424 -13.3067 346.299C-13.3067 346.251 -13.3388 346.202 -13.3549 346.154C-20.5813 321.42 -14.6556 273.239 -14.5914 272.644C-14.5914 272.611 -14.5914 272.595 -14.5914 272.563C-13.114 211.339 0.889328 140.438 1.03386 139.729C1.11416 139.295 0.841156 138.876 0.407562 138.795C-0.00996399 138.699 -0.44355 138.989 -0.523842 139.423C-0.588081 139.762 -3.78379 155.929 -7.28462 179.375C-19.9872 175.285 -29.2852 169.069 -31.5495 167.475C-23.488 144.576 -3.81591 106.122 -2.8042 104.158C4.6471 95.124 16.2737 89.504 22.0228 87.1208C24.6082 89.6811 40.2174 104.448 63.583 112.097C73.1541 115.221 82.8055 116.799 92.4408 116.799C97.9329 116.799 103.409 116.283 108.869 115.269C127.594 111.774 146.045 102.225 163.71 86.8953C164.802 86.5088 165.83 86.1546 166.793 85.8486C168.463 86.4283 185.245 92.3864 194.96 104.158C195.956 106.106 215.243 143.803 223.449 166.766C220.398 168.199 207.47 174.222 195.924 178.779C192.455 155.639 189.324 139.745 189.243 139.407C189.163 138.972 188.73 138.699 188.312 138.779C187.878 138.86 187.605 139.278 187.686 139.713C187.83 140.422 201.85 211.323 203.311 272.547C203.311 272.595 203.311 272.628 203.311 272.676C203.407 273.239 211.838 322.66 205.607 345.945H205.623ZM228.266 384.286C224.653 382.692 222.549 378.891 220.992 375.397C220.606 374.527 220.221 373.658 219.836 372.804C218.39 369.568 216.913 366.218 215.291 362.965L207.117 346.444C213.46 323.062 205.415 275.429 204.901 272.466C204.178 242.821 200.533 210.921 196.936 185.784L223.385 174.496C226.452 182.016 256.996 258.425 274.548 359.197C274.548 359.23 274.548 359.262 274.564 359.278C274.628 359.503 275.817 363.851 272.878 367.684C272.123 368.666 271.095 369.616 269.698 370.453C265.218 373.159 261.412 375.188 257.767 376.83C253.013 378.972 248.083 380.679 243.843 382.128C243.297 382.305 242.735 382.515 242.157 382.708C237.629 384.318 232.474 386.122 228.282 384.27L228.266 384.286ZM243.522 407.056C242.157 405.494 236.408 398.505 232.104 386.637C232.153 386.637 232.185 386.637 232.233 386.637C235.798 386.637 239.508 385.333 242.671 384.205C243.233 384.012 243.795 383.803 244.341 383.626C248.629 382.176 253.591 380.437 258.393 378.279C262.118 376.605 265.957 374.544 270.501 371.822C271.513 371.21 272.348 370.55 273.055 369.858C274.034 373.964 276.796 385.864 277.471 393.883C275.206 395.252 263.339 402.096 243.522 407.056Z" fill="white" stroke="#E60528" stroke-width="3"/>
<path d="M164.226 185.468L163.602 181.724H160.674L160.098 185.468H158.01L160.722 169.532H163.626L166.338 185.468H164.226ZM160.962 179.876H163.314L162.186 172.892H162.09L160.962 179.876Z" fill="#E60528"/>
<path d="M149.862 185.468V169.532H154.206C155.31 169.532 156.086 169.812 156.534 170.372C156.998 170.932 157.23 171.716 157.23 172.724V174.356C157.23 175.844 156.694 176.716 155.622 176.972V177.068C156.23 177.18 156.686 177.436 156.99 177.836C157.294 178.22 157.446 178.844 157.446 179.708V182.732C157.446 183.644 157.222 184.332 156.774 184.796C156.342 185.244 155.59 185.468 154.518 185.468H149.862ZM155.31 179.564C155.31 179.004 155.19 178.604 154.95 178.364C154.726 178.124 154.342 178.004 153.798 178.004H151.974V183.596H153.87C154.382 183.596 154.75 183.468 154.974 183.212C155.198 182.956 155.31 182.572 155.31 182.06V179.564ZM155.214 173.036C155.214 172.492 155.11 172.084 154.902 171.812C154.71 171.54 154.342 171.404 153.798 171.404H151.974V176.204H153.822C154.238 176.204 154.574 176.084 154.83 175.844C155.086 175.604 155.214 175.18 155.214 174.572V173.036Z" fill="#E60528"/>
<path d="M146.738 185.468L144.458 178.58H144.362L143.21 180.836V185.468H141.026V169.532H143.21V176.684H143.306L146.762 169.532H148.946L145.946 175.844L148.922 185.468H146.738Z" fill="#E60528"/>
<path d="M137.683 178.964H139.723V181.628C139.723 182.972 139.411 183.972 138.787 184.628C138.163 185.284 137.251 185.612 136.051 185.612C134.803 185.612 133.867 185.268 133.243 184.58C132.619 183.876 132.307 182.876 132.307 181.58V173.372C132.307 172.028 132.619 171.028 133.243 170.372C133.867 169.716 134.779 169.388 135.979 169.388C137.195 169.388 138.123 169.716 138.763 170.372C139.403 171.028 139.723 172.02 139.723 173.348V175.244H137.683V173.348C137.683 172.724 137.547 172.244 137.275 171.908C137.003 171.572 136.595 171.404 136.051 171.404C134.979 171.404 134.443 172.044 134.443 173.324V181.748C134.443 182.356 134.571 182.82 134.827 183.14C135.083 183.46 135.491 183.62 136.051 183.62C137.139 183.62 137.683 182.996 137.683 181.748V178.964Z" fill="#E60528"/>
<path d="M131.076 181.628C131.076 182.972 130.748 183.972 130.092 184.628C129.452 185.284 128.532 185.612 127.332 185.612C126.084 185.612 125.132 185.268 124.476 184.58C123.836 183.876 123.516 182.876 123.516 181.58V173.492C123.516 172.196 123.844 171.188 124.5 170.468C125.172 169.748 126.108 169.388 127.308 169.388C128.508 169.388 129.436 169.756 130.092 170.492C130.748 171.228 131.076 172.244 131.076 173.54V181.628ZM128.964 173.348C128.964 172.724 128.82 172.244 128.532 171.908C128.244 171.572 127.828 171.404 127.284 171.404C126.772 171.404 126.372 171.572 126.084 171.908C125.796 172.228 125.652 172.7 125.652 173.324V181.724C125.652 182.988 126.204 183.62 127.308 183.62C127.836 183.62 128.244 183.468 128.532 183.164C128.82 182.86 128.964 182.388 128.964 181.748V173.348Z" fill="#E60528"/>
<path d="M120.386 185.468V176.66C120.386 175.684 120.41 174.532 120.458 173.204H120.362L117.674 185.468H115.682L112.994 173.204H112.898C112.946 174.532 112.97 175.684 112.97 176.66V185.468H111.05V169.532H114.314L116.666 181.22H116.762L119.114 169.532H122.306V185.468H120.386Z" fill="#E60528"/>
</svg>
