<svg width="1865" height="1071" viewBox="0 0 1865 1071" fill="none" xmlns="http://www.w3.org/2000/svg">
<rect x="196.835" y="177.336" width="60.75" height="60.75" fill="#FCE6E9" stroke="black" stroke-width="1.6875"/>
<rect x="271.085" y="163.836" width="60.75" height="60.75" fill="#FCE6E9" stroke="black" stroke-width="1.6875"/>
<rect x="271.085" y="541.836" width="60.75" height="135" fill="#FCE6E9" stroke="black" stroke-width="1.6875"/>
<rect x="115.835" y="302.211" width="60.75" height="202.5" rx="30.375" fill="#FCE6E9" stroke="black" stroke-width="1.6875"/>
<rect x="1769.58" y="400.086" width="60.75" height="202.5" rx="30.375" fill="#FCE6E9" stroke="black" stroke-width="1.6875"/>
<rect x="1600.83" y="848.961" width="60.75" height="202.5" rx="30.375" fill="#FCE6E9" stroke="black" stroke-width="1.6875"/>
<rect x="1330.83" y="112.829" width="60.75" height="202.5" transform="rotate(-75 1330.83 112.829)" fill="#FCE6E9" stroke="black" stroke-width="1.6875"/>
<rect x="1535.41" y="168.516" width="60.75" height="202.5" transform="rotate(-75 1535.41 168.516)" fill="#FCE6E9" stroke="black" stroke-width="1.6875"/>
<rect x="1769.58" y="177.336" width="60.75" height="202.5" fill="#FCE6E9" stroke="black" stroke-width="1.6875"/>
<rect x="1784.77" y="227.961" width="30.375" height="101.25" fill="#FCE6E9" stroke="black" stroke-width="1.6875"/>
<rect x="1769.58" y="622.836" width="60.75" height="202.5" fill="#FCE6E9" stroke="black" stroke-width="1.6875"/>
<path d="M1841.3 164V163.332L1840.86 163.093C1736.09 106.766 1435.57 0.992506 973.085 0.992188C510.581 0.991869 203.332 111.272 95.2207 163.075L94.7412 163.305V454.086H1.08496V798.336H94.7412V1069.18H510.844L510.971 1069.14L760.594 988.18H1080.95L1330.57 1069.14L1330.7 1069.18H1841.3V852.337M1841.3 164H1839.08V825.336H1678.46V1068.79H1732.46V852.336L1840.46 852.337H1841.3M1841.3 164H1864.08V852V852.337H1841.3" stroke="black" stroke-width="1.6875"/>
<rect x="115.835" y="832.086" width="60.75" height="202.5" rx="30.375" fill="#FCE6E9" stroke="black" stroke-width="1.6875"/>
<rect x="777.335" y="882.711" width="20.25" height="67.5" rx="10.125" fill="#FCE6E9" stroke="black" stroke-width="1.6875"/>
<rect x="1084.46" y="882.711" width="20.25" height="67.5" rx="10.125" fill="#FCE6E9" stroke="black" stroke-width="1.6875"/>
<rect x="14.585" y="467.586" width="81" height="317.249" fill="#FCE6E9" stroke="black" stroke-width="1.6875"/>
<rect x="271.085" y="697.086" width="60.75" height="135" fill="#FCE6E9" stroke="black" stroke-width="1.6875"/>
<rect x="453.335" y="541.836" width="60.75" height="135" fill="#FCE6E9" stroke="black" stroke-width="1.6875"/>
<rect x="1458.82" y="308.961" width="60.75" height="135" fill="#FCE6E9" stroke="black" stroke-width="1.6875"/>
<rect x="1108.08" y="96.3359" width="60.75" height="135" transform="rotate(-90 1108.08 96.3359)" fill="#FCE6E9" stroke="black" stroke-width="1.6875"/>
<rect x="345.335" y="1034.59" width="60.75" height="135" transform="rotate(-90 345.335 1034.59)" fill="#FCE6E9" stroke="black" stroke-width="1.6875"/>
<rect x="1145.21" y="946.836" width="60.75" height="135" transform="rotate(-90 1145.21 946.836)" fill="#FCE6E9" stroke="black" stroke-width="1.6875"/>
<rect x="652.46" y="946.836" width="60.75" height="108" transform="rotate(-90 652.46 946.836)" fill="#FCE6E9" stroke="black" stroke-width="1.6875"/>
<rect x="844.835" y="35.5859" width="249.75" height="249.75" fill="#FCE6E9" stroke="black" stroke-width="1.6875"/>
<rect x="453.335" y="697.086" width="60.75" height="135" fill="#FCE6E9" stroke="black" stroke-width="1.6875"/>
<rect x="1458.82" y="464.211" width="60.75" height="135" fill="#FCE6E9" stroke="black" stroke-width="1.6875"/>
<rect x="345.335" y="150.336" width="60.75" height="60.75" fill="#FCE6E9" stroke="black" stroke-width="1.6875"/>
<rect x="419.585" y="136.836" width="60.75" height="60.75" fill="#FCE6E9" stroke="black" stroke-width="1.6875"/>
<rect x="493.835" y="123.336" width="60.75" height="60.75" fill="#FCE6E9" stroke="black" stroke-width="1.6875"/>
<rect x="568.085" y="109.836" width="60.75" height="60.75" fill="#FCE6E9" stroke="black" stroke-width="1.6875"/>
<rect x="642.335" y="96.3359" width="60.75" height="60.75" fill="#FCE6E9" stroke="black" stroke-width="1.6875"/>
<rect x="1279.06" y="35.5859" width="60.75" height="60.75" transform="rotate(15 1279.06 35.5859)" fill="#FCE6E9" stroke="black" stroke-width="1.6875"/>
<rect x="1784.77" y="673.461" width="30.375" height="101.25" fill="#FCE6E9" stroke="black" stroke-width="1.6875"/>
<rect x="131.022" y="352.836" width="30.375" height="101.25" fill="#FCE6E9" stroke="black" stroke-width="1.6875"/>
<rect x="131.022" y="882.711" width="30.375" height="101.25" fill="#FCE6E9" stroke="black" stroke-width="1.6875"/>
<circle cx="726.71" cy="592.461" r="84.375" fill="#FCE6E9" stroke="black" stroke-width="1.6875"/>
<circle cx="1097.96" cy="592.461" r="84.375" fill="#FCE6E9" stroke="black" stroke-width="1.6875"/>
<circle cx="1455.71" cy="781.461" r="84.375" fill="#FCE6E9" stroke="black" stroke-width="1.6875"/>
</svg>
